<svg width="500" height="500" viewBox="0 0 500 500" fill="none" xmlns="http://www.w3.org/2000/svg">
<circle cx="250" cy="250" r="250" fill="#675E7D"/>
<path d="M373.398 71.4273H126.625C118.172 71.4273 111.32 78.2795 111.32 86.732V333.505C111.32 341.958 118.172 348.81 126.625 348.81H373.398C381.851 348.81 388.703 341.958 388.703 333.505V86.732C388.703 78.2795 381.851 71.4273 373.398 71.4273Z" fill="#3D5A98"/>
<path d="M302.688 348.787V241.373H338.734L344.125 199.513H302.688V172.795C302.688 160.677 306.063 152.404 323.43 152.404H345.602V114.904C334.865 113.785 324.076 113.253 313.281 113.31C281.359 113.31 259.375 132.763 259.375 168.646V199.513H223.328V241.373H259.375V348.787H302.688Z" fill="white"/>
<path d="M148.926 405.812C147.285 405.578 146.465 405.197 146.465 404.67C146.465 404.289 146.743 403.849 147.3 403.351C147.856 402.853 148.413 402.34 148.97 401.813C148.97 400.055 148.706 398.092 148.179 395.924C147.651 393.727 147.271 392.028 147.036 390.827C146.802 389.626 146.685 388.527 146.685 387.531C146.685 386.535 146.831 385.905 147.124 385.641C147.446 385.378 147.9 385.246 148.486 385.246C149.072 385.246 149.453 385.334 149.629 385.509C149.805 385.656 149.922 385.846 149.98 386.081C150.039 386.315 150.068 386.564 150.068 386.828C150.098 387.091 150.156 387.34 150.244 387.575C150.391 388.131 150.845 388.41 151.606 388.41C153.569 388.38 155.532 388.219 157.495 387.926C159.458 387.604 161.406 387.282 163.34 386.96C167.207 386.315 169.917 385.993 171.47 385.993C173.052 385.993 174.297 386.037 175.205 386.125C175.234 386.681 175.293 387.165 175.381 387.575C175.469 387.985 175.513 388.322 175.513 388.586C175.513 389.084 175.029 389.259 174.062 389.113C158.74 389.67 151.079 390.812 151.079 392.541C151.079 394.445 151.211 396.086 151.475 397.463C151.738 398.81 151.929 399.66 152.046 400.011C152.192 400.363 152.354 400.539 152.529 400.539C154.199 400.539 155.884 400.392 157.583 400.099C159.312 399.806 161.025 399.499 162.725 399.176C164.453 398.825 166.182 398.503 167.91 398.21C169.639 397.917 171.338 397.77 173.008 397.77C173.037 397.77 173.052 397.887 173.052 398.122C173.052 398.327 173.037 398.561 173.008 398.825C172.92 399.528 172.92 399.88 173.008 399.88C171.748 400.583 169.463 401.154 166.152 401.593C164.717 401.798 163.252 401.989 161.758 402.165C160.264 402.34 158.887 402.531 157.627 402.736C154.727 403.146 153.042 403.688 152.573 404.362L152.09 412.975C151.768 413.297 151.401 413.459 150.991 413.459L149.365 413.327C149.219 413.327 149.072 413.327 148.926 413.327V405.812ZM194.409 405.812C192.212 409.269 189.282 411.408 185.62 412.228C184.771 412.404 183.994 412.492 183.291 412.492C182.617 412.492 182.046 412.492 181.577 412.492C181.138 412.463 180.64 412.389 180.083 412.272C179.526 412.155 179.014 411.964 178.545 411.701C177.461 411.086 176.919 410.221 176.919 409.108C176.802 408.581 176.743 407.995 176.743 407.35C176.743 406.676 176.89 405.797 177.183 404.714C177.476 403.63 178.003 402.458 178.765 401.198C179.556 399.938 180.508 398.781 181.621 397.726C183.936 395.5 186.44 394.064 189.136 393.42C189.927 393.244 190.645 393.156 191.289 393.156C191.963 393.156 192.563 393.2 193.091 393.288C194.79 393.288 195.933 394.445 196.519 396.759C196.899 398.224 197.119 400.275 197.178 402.912C197.266 405.519 197.339 407.541 197.397 408.976C197.485 410.382 197.676 411.672 197.969 412.843H195.376C195.259 412.052 195.171 411.349 195.112 410.734C195.054 410.119 194.995 409.547 194.937 409.02C194.79 407.79 194.614 406.72 194.409 405.812ZM194.233 399.001C194.233 397.301 193.398 396.452 191.729 396.452C191.523 396.422 191.318 396.408 191.113 396.408C188.975 396.408 186.719 397.433 184.346 399.484C183.232 400.422 182.28 401.476 181.489 402.648C180.317 404.318 179.731 405.812 179.731 407.13C179.731 408.859 180.728 409.884 182.72 410.207C185.356 410.148 187.876 408.947 190.278 406.603C191.304 405.578 192.153 404.464 192.827 403.263C193.765 401.652 194.233 400.231 194.233 399.001ZM217.788 408.493C218.989 407.995 220.161 407.541 221.304 407.13C222.446 406.72 223.53 406.515 224.556 406.515C225.61 406.515 226.138 406.838 226.138 407.482C226.138 407.629 226.094 407.863 226.006 408.185C225.947 408.478 225.552 408.844 224.819 409.284C224.116 409.694 223.237 410.089 222.183 410.47C221.157 410.851 220.029 411.203 218.799 411.525C217.568 411.847 216.367 412.126 215.195 412.36C212.764 412.858 211.035 413.107 210.01 413.107C208.984 413.107 207.871 412.99 206.67 412.755C205.498 412.521 204.399 412.14 203.374 411.613C201.001 410.382 199.814 408.566 199.814 406.164C199.814 405.988 199.814 405.636 199.814 405.109C199.814 404.582 200.034 403.835 200.474 402.868C200.913 401.872 201.572 400.89 202.451 399.923C203.33 398.927 204.355 398.019 205.527 397.199C207.988 395.441 210.566 394.298 213.262 393.771C214.199 393.566 214.976 393.464 215.591 393.464C216.235 393.464 216.763 393.478 217.173 393.507C217.583 393.507 218.008 393.537 218.447 393.595C218.887 393.625 219.268 393.727 219.59 393.903C220.352 394.284 220.732 395.031 220.732 396.144C220.732 396.847 220.234 397.536 219.238 398.21C218.975 398.385 218.74 398.547 218.535 398.693C218.389 398.019 218.198 397.448 217.964 396.979C217.729 396.51 217.217 396.276 216.426 396.276C212.969 397.008 209.995 398.107 207.505 399.572C204.692 401.242 203.286 403 203.286 404.845C203.286 405.05 203.301 405.27 203.33 405.505C203.33 407.38 204.048 408.713 205.483 409.504C206.567 410.089 207.959 410.382 209.658 410.382C211.387 410.382 212.881 410.192 214.141 409.811C215.4 409.401 216.616 408.962 217.788 408.493ZM237.476 410.031C240.054 410.031 243.936 408.859 249.121 406.515C249.443 406.515 249.707 406.632 249.912 406.867C250.117 407.072 250.22 407.321 250.22 407.614C249.048 409.606 246.807 411.159 243.496 412.272C240.186 413.385 237.095 413.576 234.224 412.843C230.972 411.994 228.994 410.163 228.291 407.35C228.232 406.794 228.203 406.047 228.203 405.109C228.203 404.172 228.438 402.941 228.906 401.418C229.404 399.865 230.239 398.4 231.411 397.023C232.583 395.646 233.96 394.562 235.542 393.771C237.124 392.98 238.809 392.585 240.596 392.585C242.295 392.585 244.199 393.171 246.309 394.342C247.305 394.899 248.096 395.529 248.682 396.232C249.268 396.935 249.561 397.653 249.561 398.385C249.561 398.59 249.546 398.796 249.517 399.001C249.458 400.788 248.594 401.916 246.924 402.384C246.191 402.589 245.342 402.692 244.375 402.692L238.047 402.428C235.938 402.428 234.326 402.882 233.213 403.791C232.568 404.289 232.114 405.036 231.851 406.032C232.583 408.698 234.458 410.031 237.476 410.031ZM245.298 396.452C244.653 395.983 243.979 395.646 243.276 395.441C242.573 395.236 241.987 395.133 241.519 395.133C241.05 395.133 240.288 395.295 239.233 395.617C238.179 395.91 237.241 396.247 236.421 396.628C234.399 397.565 233.389 398.547 233.389 399.572C235.732 399.777 237.49 399.88 238.662 399.88C241.914 399.88 244.111 399.601 245.254 399.045C245.957 398.752 246.309 398.385 246.309 397.946C246.309 397.419 245.972 396.921 245.298 396.452ZM253.12 387.619L252.988 381.95C252.988 381.481 253.149 381.115 253.472 380.851C253.794 380.588 254.189 380.456 254.658 380.456C255.127 380.456 255.552 380.588 255.933 380.851C256.313 381.086 256.46 381.422 256.372 381.862L256.68 400.846C258.525 398.385 261.016 396.32 264.15 394.65C266.758 393.244 269.043 392.541 271.006 392.541C272.734 392.541 274.067 393.097 275.005 394.211C275.708 395.089 276.06 396.261 276.06 397.726C276.06 399.162 275.781 400.422 275.225 401.505C274.697 402.56 273.994 403.586 273.115 404.582C272.236 405.548 271.226 406.457 270.083 407.306C268.94 408.156 267.783 408.918 266.611 409.591C264.385 410.88 262.188 411.95 260.02 412.799C259.844 412.741 259.551 412.726 259.141 412.755C258.73 412.785 258.232 412.799 257.646 412.799C256.064 412.799 254.673 412.609 253.472 412.228C253.179 409.445 253.032 405.212 253.032 399.528L253.12 387.619ZM256.812 409.196C256.812 409.518 257.104 409.679 257.69 409.679C258.306 409.679 259.053 409.562 259.932 409.328C260.811 409.093 261.865 408.698 263.096 408.141C264.355 407.555 265.615 406.808 266.875 405.9C269.805 403.82 272.017 401.374 273.511 398.561C273.13 396.891 271.987 396.056 270.083 396.056C268.354 396.056 266.406 396.701 264.238 397.99C261.162 399.836 258.965 402.121 257.646 404.845C257.09 405.929 256.812 407.028 256.812 408.141C256.812 408.434 256.812 408.669 256.812 408.844C256.812 409.02 256.812 409.137 256.812 409.196ZM279.224 404.757C279.224 401.3 280.718 398.517 283.706 396.408C286.079 394.738 288.936 393.727 292.275 393.376C292.451 393.376 292.861 393.376 293.506 393.376C294.15 393.376 295.015 393.566 296.099 393.947C298.501 394.767 300.142 396.217 301.021 398.297C301.372 399.118 301.548 399.821 301.548 400.407C301.548 400.964 301.533 401.359 301.504 401.593C301.504 405.255 300.112 408.141 297.329 410.251C294.751 412.184 291.528 413.151 287.661 413.151C284.878 413.151 282.769 412.506 281.333 411.217C279.927 409.928 279.224 407.775 279.224 404.757ZM282.256 405.812C282.256 407.629 282.739 408.859 283.706 409.504C284.438 409.972 285.669 410.207 287.397 410.207C289.126 410.207 290.649 410.075 291.968 409.811C293.286 409.547 294.458 409.093 295.483 408.449C297.681 407.043 298.779 404.86 298.779 401.901C298.779 400.143 298.311 398.708 297.373 397.594C296.348 396.393 295 395.793 293.33 395.793C292.188 395.998 291.03 396.217 289.858 396.452C288.716 396.686 287.632 397.14 286.606 397.814C284.38 399.25 282.93 401.916 282.256 405.812ZM304.536 404.757C304.536 401.3 306.03 398.517 309.019 396.408C311.392 394.738 314.248 393.727 317.588 393.376C317.764 393.376 318.174 393.376 318.818 393.376C319.463 393.376 320.327 393.566 321.411 393.947C323.813 394.767 325.454 396.217 326.333 398.297C326.685 399.118 326.86 399.821 326.86 400.407C326.86 400.964 326.846 401.359 326.816 401.593C326.816 405.255 325.425 408.141 322.642 410.251C320.063 412.184 316.841 413.151 312.974 413.151C310.19 413.151 308.081 412.506 306.646 411.217C305.239 409.928 304.536 407.775 304.536 404.757ZM307.568 405.812C307.568 407.629 308.052 408.859 309.019 409.504C309.751 409.972 310.981 410.207 312.71 410.207C314.438 410.207 315.962 410.075 317.28 409.811C318.599 409.547 319.771 409.093 320.796 408.449C322.993 407.043 324.092 404.86 324.092 401.901C324.092 400.143 323.623 398.708 322.686 397.594C321.66 396.393 320.312 395.793 318.643 395.793C317.5 395.998 316.343 396.217 315.171 396.452C314.028 396.686 312.944 397.14 311.919 397.814C309.692 399.25 308.242 401.916 307.568 405.812ZM333.101 405.109L333.32 408.932C333.32 411.276 332.764 412.697 331.65 413.195C331.416 413.283 331.138 413.327 330.815 413.327C330.493 413.327 330.112 413.254 329.673 413.107L329.717 396.672C329.717 394.298 329.57 391.925 329.277 389.552C329.014 387.15 328.882 384.762 328.882 382.389C328.882 381.452 329.38 380.983 330.376 380.983H330.728C330.933 380.983 331.064 380.998 331.123 381.027C331.562 382.843 331.855 385.041 332.002 387.619C332.324 393.332 332.617 397.17 332.881 399.132C333.379 398.869 334.492 398.122 336.221 396.891C337.949 395.661 339.341 394.679 340.396 393.947C341.45 393.185 342.446 392.482 343.384 391.838C345.581 390.402 346.958 389.684 347.515 389.684C347.983 389.684 348.35 389.963 348.613 390.519C347.148 392.365 344.79 394.416 341.538 396.672C340.22 397.58 338.901 398.488 337.583 399.396C336.294 400.275 335.107 401.198 334.023 402.165C335.986 402.692 337.847 403.249 339.604 403.835C341.362 404.391 343.062 404.904 344.702 405.373C348.481 406.486 351.733 407.116 354.458 407.262C354.458 408.053 354.385 408.566 354.238 408.8C353.975 409.211 353.433 409.445 352.612 409.504H352.261C350.474 409.005 348.101 408.449 345.142 407.834C339.312 406.632 335.298 405.724 333.101 405.109Z" fill="#FC3F96"/>
</svg>
