<svg width="500" height="500" viewBox="0 0 500 500" fill="none" xmlns="http://www.w3.org/2000/svg">
<circle cx="250" cy="250" r="250" fill="#675E7D"/>
<path d="M361 98.8445C351.837 89.682 340.812 85.107 327.912 85.107H171.825C158.925 85.107 147.9 89.682 138.737 98.8445C129.575 108.007 125 119.032 125 131.932V288.02C125 300.92 129.575 311.945 138.737 321.107C147.9 330.27 158.925 334.845 171.825 334.845H208.25C210.625 334.845 212.413 334.757 213.613 334.595C215.009 334.315 216.269 333.57 217.188 332.482C218.375 331.232 218.975 329.42 218.975 327.045L218.888 315.982C218.838 308.932 218.812 303.357 218.812 299.232L215.062 299.882C212.688 300.32 209.688 300.507 206.05 300.457C202.259 300.387 198.479 300.007 194.75 299.32C190.78 298.587 187.043 296.915 183.85 294.445C180.506 291.915 178.012 288.427 176.7 284.445L175.075 280.695C173.705 277.736 171.985 274.954 169.95 272.407C167.625 269.37 165.263 267.32 162.875 266.232L161.75 265.42C160.966 264.858 160.252 264.203 159.625 263.47C159.026 262.789 158.533 262.022 158.163 261.195C157.838 260.432 158.112 259.807 158.975 259.32C159.85 258.82 161.412 258.582 163.7 258.582L166.95 259.082C169.112 259.507 171.8 260.807 174.987 262.97C178.213 265.169 180.908 268.06 182.875 271.432C185.375 275.87 188.375 279.257 191.9 281.595C195.425 283.92 198.975 285.095 202.55 285.095C206.125 285.095 209.213 284.82 211.825 284.282C214.351 283.76 216.806 282.937 219.138 281.832C220.113 274.582 222.763 268.982 227.1 265.082C221.48 264.531 215.909 263.553 210.438 262.157C205.097 260.69 199.962 258.561 195.15 255.82C190.116 253.079 185.669 249.375 182.062 244.92C178.6 240.582 175.75 234.895 173.525 227.857C171.312 220.807 170.2 212.67 170.2 203.457C170.2 190.345 174.475 179.182 183.038 169.957C179.038 160.107 179.413 149.045 184.175 136.807C187.325 135.82 191.988 136.557 198.162 138.995C204.338 141.432 208.863 143.52 211.738 145.245C214.613 146.995 216.912 148.457 218.65 149.645C228.812 146.816 239.314 145.395 249.863 145.42C260.6 145.42 271 146.832 281.088 149.645L287.262 145.745C292.012 142.893 297.022 140.499 302.225 138.595C307.975 136.42 312.35 135.832 315.4 136.807C320.275 149.057 320.7 160.107 316.688 169.97C325.25 179.182 329.538 190.345 329.538 203.47C329.538 212.682 328.425 220.845 326.2 227.932C323.988 235.032 321.112 240.72 317.587 245.007C313.918 249.406 309.452 253.074 304.425 255.82C299.175 258.745 294.075 260.857 289.137 262.157C283.666 263.558 278.096 264.54 272.475 265.095C278.1 269.97 280.925 277.657 280.925 288.17V327.045C280.925 328.882 281.188 330.37 281.737 331.507C281.99 332.055 282.351 332.547 282.797 332.952C283.244 333.358 283.768 333.67 284.337 333.87C285.537 334.295 286.588 334.57 287.513 334.67C288.438 334.795 289.762 334.832 291.488 334.832H327.912C340.812 334.832 351.837 330.257 361 321.095C370.15 311.945 374.738 300.907 374.738 288.007V131.932C374.738 119.032 370.162 108.007 361 98.8445Z" fill="black"/>
<path d="M206.033 415.26V407.218C203.25 409.123 201.316 410.382 200.232 410.998C197.712 412.375 195.5 413.063 193.596 413.063C191.311 413.063 189.348 412.228 187.708 410.558C186.038 408.83 185.203 406.852 185.203 404.626C185.349 402.282 185.847 399.909 186.697 397.506C188.455 392.409 191.37 388.673 195.442 386.3C197.463 385.099 199.792 384.499 202.429 384.499C202.488 384.499 202.546 384.499 202.605 384.499L203.792 384.455C205.139 384.455 205.754 384.982 205.637 386.037C203.293 386.154 201.096 386.696 199.045 387.663C196.995 388.63 195.208 389.933 193.684 391.574C192.19 393.185 191.003 395.075 190.125 397.243C189.275 399.411 188.85 401.623 188.85 403.879C188.85 406.134 189.436 407.76 190.608 408.756C191.78 409.753 193.289 410.251 195.134 410.251C196.716 410.251 198.914 409.562 201.726 408.185C203.513 407.306 204.846 406.31 205.725 405.197C206.165 404.67 206.384 404.113 206.384 403.527V397.023C205.505 397.023 203.455 397.36 200.232 398.034C197.039 398.708 195.193 399.089 194.695 399.176C194.548 399.089 194.373 399.001 194.167 398.913C193.962 398.796 193.845 398.634 193.816 398.429C193.757 397.99 194.402 397.316 195.75 396.408C196.072 396.232 198.005 395.895 201.55 395.397C205.095 394.87 207.351 394.533 208.318 394.386C209.285 394.24 210.09 394.123 210.735 394.035C211.028 394.093 211.394 394.093 211.833 394.035C212.273 393.947 212.683 393.918 213.064 393.947C214.001 393.976 214.441 394.489 214.382 395.485L210.735 396.979C210.178 398.766 209.9 402.135 209.9 407.087L209.988 413.634C209.988 414.22 209.988 414.762 209.988 415.26C209.109 415.7 208.259 415.92 207.439 415.92C206.619 415.92 206.15 415.7 206.033 415.26ZM220.535 392.453C220.916 397.931 221.238 404.274 221.501 411.481C221.326 412.389 220.623 412.843 219.392 412.843C219.07 412.843 218.733 412.785 218.381 412.668C218.059 412.521 217.854 412.331 217.766 412.096V392.453H220.535ZM216.448 386.476C216.448 385.451 217.048 384.938 218.25 384.938C219.041 384.938 219.685 385.114 220.183 385.465C220.271 385.788 220.315 386.11 220.315 386.432C220.315 386.725 220.198 387.018 219.963 387.311C219.729 387.604 219.377 387.751 218.909 387.751C218.44 387.751 217.971 387.648 217.502 387.443C217.034 387.209 216.682 386.886 216.448 386.476ZM230.027 408.888L230.115 401.857C230.115 400.744 230.012 399.792 229.807 399.001H222.996L222.908 395.968H229.5V384.63C229.587 384.367 229.763 384.103 230.027 383.839C230.437 383.429 230.774 383.224 231.038 383.224C231.331 383.224 231.58 383.254 231.785 383.312C231.99 383.371 232.209 383.576 232.444 383.927C232.913 385.861 233.147 388.776 233.147 392.672C233.147 393.639 233.191 394.591 233.279 395.529C234.216 395.412 235.154 395.353 236.091 395.353C236.091 395.353 236.853 395.353 238.376 395.353C238.933 395.353 239.446 395.324 239.915 395.265L239.783 398.429L233.367 398.254L233.586 413.415C233.059 413.649 232.605 413.766 232.224 413.766C230.759 413.766 230.027 412.14 230.027 408.888ZM247.209 400.714C247.122 401.711 247.078 403.131 247.078 404.977C247.078 406.794 247.356 409.005 247.913 411.613L244.441 413.371L242.859 401.418C241.833 401.271 241.321 400.92 241.321 400.363C241.321 399.953 241.555 399.469 242.024 398.913C242.522 398.356 242.888 397.902 243.123 397.55C243.357 397.17 243.489 396.759 243.518 396.32C243.577 395.851 243.65 395.031 243.738 393.859C243.826 392.687 243.899 391.442 243.958 390.124C244.045 388.805 244.119 387.56 244.177 386.388C244.265 385.216 244.309 384.396 244.309 383.927C244.954 383.283 245.422 382.887 245.715 382.741C246.448 382.36 246.946 382.506 247.209 383.18L246.946 397.023C254.182 397.023 258.533 396.554 259.998 395.617V381.73C260.173 381.232 260.994 380.983 262.458 380.983C262.781 380.983 263.044 380.998 263.25 381.027C263.25 381.584 263.264 382.433 263.293 383.576C263.352 384.689 263.396 385.964 263.425 387.399C263.484 388.835 263.542 390.358 263.601 391.969C263.66 393.551 263.718 395.06 263.777 396.496C263.865 399.484 263.938 401.681 263.997 403.088C264.202 406.603 264.919 409.445 266.15 411.613C264.832 412.14 263.381 412.404 261.799 412.404C260.452 409.064 259.734 404.684 259.646 399.264C257.712 399.206 256.394 399.176 255.691 399.176C254.988 399.176 254.197 399.22 253.318 399.308C251.501 399.425 249.465 399.894 247.209 400.714ZM268.611 407.262C268.611 406.794 268.567 406.149 268.479 405.329C268.42 404.479 268.362 403.556 268.303 402.56C268.245 401.564 268.215 400.553 268.215 399.528C268.215 398.503 268.303 397.565 268.479 396.715C268.86 394.811 269.651 393.859 270.852 393.859C271.672 394.093 272.214 394.386 272.478 394.738C272.771 395.089 272.917 395.529 272.917 396.056C272.917 396.554 272.786 397.184 272.522 397.946C271.555 400.495 271.072 402.795 271.072 404.845C271.072 405.519 271.116 406.237 271.204 406.999C271.672 408.962 273.284 409.943 276.038 409.943C277.473 409.943 278.835 409.694 280.125 409.196C282.585 408.288 284.255 407.218 285.134 405.988C285.398 404.64 285.53 403.468 285.53 402.472C285.53 401.447 285.486 400.539 285.398 399.748C285.339 398.957 285.251 398.092 285.134 397.155C285.046 396.188 284.988 395.133 284.958 393.991C285.339 393.815 285.706 393.727 286.057 393.727C286.438 393.727 286.819 393.918 287.2 394.298C287.61 394.679 287.947 395.397 288.21 396.452C288.503 397.506 288.694 398.752 288.782 400.187C288.87 401.593 288.914 403.058 288.914 404.582C288.943 406.105 288.958 407.585 288.958 409.02C288.958 410.426 289.016 411.642 289.133 412.668C288.782 412.99 288.445 413.151 288.123 413.151C286.951 413.151 286.086 411.979 285.53 409.635C285.149 409.958 284.504 410.353 283.596 410.822C281.663 411.877 279.377 412.58 276.741 412.931C276.243 412.99 275.686 413.019 275.071 413.019C274.456 413.019 273.679 412.902 272.742 412.668C271.833 412.433 270.969 411.891 270.149 411.042C269.329 410.192 268.816 408.932 268.611 407.262ZM291.946 387.619L291.814 381.95C291.814 381.481 291.975 381.115 292.297 380.851C292.62 380.588 293.015 380.456 293.484 380.456C293.953 380.456 294.377 380.588 294.758 380.851C295.139 381.086 295.286 381.422 295.198 381.862L295.505 400.846C297.351 398.385 299.841 396.32 302.976 394.65C305.583 393.244 307.869 392.541 309.832 392.541C311.56 392.541 312.893 393.097 313.831 394.211C314.534 395.089 314.885 396.261 314.885 397.726C314.885 399.162 314.607 400.422 314.05 401.505C313.523 402.56 312.82 403.586 311.941 404.582C311.062 405.548 310.051 406.457 308.909 407.306C307.766 408.156 306.609 408.918 305.437 409.591C303.21 410.88 301.013 411.95 298.845 412.799C298.669 412.741 298.376 412.726 297.966 412.755C297.556 412.785 297.058 412.799 296.472 412.799C294.89 412.799 293.499 412.609 292.297 412.228C292.004 409.445 291.858 405.212 291.858 399.528L291.946 387.619ZM295.637 409.196C295.637 409.518 295.93 409.679 296.516 409.679C297.131 409.679 297.878 409.562 298.757 409.328C299.636 409.093 300.691 408.698 301.921 408.141C303.181 407.555 304.441 406.808 305.701 405.9C308.63 403.82 310.842 401.374 312.336 398.561C311.956 396.891 310.813 396.056 308.909 396.056C307.18 396.056 305.232 396.701 303.064 397.99C299.988 399.836 297.791 402.121 296.472 404.845C295.916 405.929 295.637 407.028 295.637 408.141C295.637 408.434 295.637 408.669 295.637 408.844C295.637 409.02 295.637 409.137 295.637 409.196Z" fill="#FC3F96"/>
</svg>
