<svg width="500" height="500" viewBox="0 0 500 500" fill="none" xmlns="http://www.w3.org/2000/svg">
<circle cx="250" cy="250" r="250" fill="#675E7D"/>
<g clip-path="url(#clip0_79_1181)">
<path d="M329.688 60.107H170.312C131.48 60.107 100 91.587 100 130.42V289.795C100 328.627 131.48 360.107 170.312 360.107H329.688C368.52 360.107 400 328.627 400 289.795V130.42C400 91.587 368.52 60.107 329.688 60.107Z" fill="white"/>
<path d="M329.688 60.107H170.312C131.48 60.107 100 91.587 100 130.42V289.795C100 328.627 131.48 360.107 170.312 360.107H329.688C368.52 360.107 400 328.627 400 289.795V130.42C400 91.587 368.52 60.107 329.688 60.107Z" fill="#0A66C2"/>
<path d="M316.463 315.207H350.764C352.007 315.207 353.199 314.713 354.078 313.834C354.957 312.955 355.451 311.763 355.451 310.52L355.469 238.049C355.469 200.171 347.307 171.055 303.041 171.055C286.214 170.43 270.346 179.104 261.783 193.588C261.741 193.659 261.678 193.713 261.602 193.744C261.526 193.775 261.442 193.78 261.363 193.759C261.284 193.737 261.214 193.69 261.164 193.626C261.114 193.561 261.087 193.481 261.086 193.4V179.24C261.086 177.997 260.592 176.804 259.713 175.925C258.834 175.046 257.642 174.552 256.398 174.552H223.847C222.604 174.552 221.412 175.046 220.533 175.925C219.654 176.804 219.16 177.997 219.16 179.24V310.513C219.16 311.756 219.654 312.949 220.533 313.828C221.412 314.707 222.604 315.201 223.847 315.201H258.146C259.389 315.201 260.581 314.707 261.46 313.828C262.339 312.949 262.833 311.756 262.833 310.513V245.623C262.833 227.275 266.314 209.506 289.061 209.506C311.485 209.506 311.775 230.501 311.775 246.811V310.519C311.775 311.762 312.269 312.955 313.148 313.834C314.027 314.713 315.22 315.207 316.463 315.207ZM144.531 129.984C144.531 143.887 155.977 155.327 169.881 155.327C183.782 155.325 195.221 143.879 195.221 129.978C195.218 116.077 183.779 104.638 169.877 104.638C155.971 104.638 144.531 116.08 144.531 129.984ZM152.686 315.207H187.03C188.274 315.207 189.466 314.713 190.345 313.834C191.224 312.955 191.718 311.762 191.718 310.519V179.24C191.718 177.997 191.224 176.804 190.345 175.925C189.466 175.046 188.274 174.552 187.03 174.552H152.686C151.443 174.552 150.251 175.046 149.372 175.925C148.493 176.804 147.999 177.997 147.999 179.24V310.519C147.999 311.762 148.493 312.955 149.372 313.834C150.251 314.713 151.443 315.207 152.686 315.207Z" fill="white"/>
</g>
<path d="M171.096 393.903L171.008 382.961L174.524 383.092L174.128 408.844L197.288 409.504C197.756 409.65 197.991 409.899 197.991 410.251C197.991 410.602 197.771 410.968 197.332 411.349C196.482 412.111 195.515 412.492 194.431 412.492C194.167 412.492 193.889 412.463 193.596 412.404L169.998 412.184C170.73 409.46 171.096 403.366 171.096 393.903ZM203.879 392.453C204.26 397.931 204.583 404.274 204.846 411.481C204.67 412.389 203.967 412.843 202.737 412.843C202.415 412.843 202.078 412.785 201.726 412.668C201.404 412.521 201.199 412.331 201.111 412.096V392.453H203.879ZM199.792 386.476C199.792 385.451 200.393 384.938 201.594 384.938C202.385 384.938 203.03 385.114 203.528 385.465C203.616 385.788 203.66 386.11 203.66 386.432C203.66 386.725 203.542 387.018 203.308 387.311C203.074 387.604 202.722 387.751 202.253 387.751C201.785 387.751 201.316 387.648 200.847 387.443C200.378 387.209 200.027 386.886 199.792 386.476ZM223.875 403.483C223.875 399.997 223.684 397.433 223.303 395.793C223.538 395.353 223.186 395.133 222.249 395.133C221.252 395.133 219.963 395.382 218.381 395.88C216.799 396.379 215.51 396.877 214.514 397.375C212.141 398.517 210.823 399.63 210.559 400.714V412.668H207.615C207.234 411.672 207.043 408.874 207.043 404.274C207.043 400.172 207.117 397.155 207.263 395.221C207.439 393.288 207.571 392.189 207.659 391.925C208.42 391.427 209.036 391.178 209.504 391.178C210.237 391.178 210.603 392.043 210.603 393.771C210.603 394.445 210.559 395.104 210.471 395.749C210.413 396.364 210.383 396.789 210.383 397.023C215.129 393.537 218.806 391.794 221.414 391.794C224.373 391.794 226.057 394.181 226.467 398.957C226.643 400.627 226.731 402.941 226.731 405.9L226.687 409.372C226.687 410.661 226.716 411.906 226.775 413.107C226.482 413.283 226.248 413.371 226.072 413.371C225.984 413.341 225.793 413.297 225.5 413.239C225.208 413.18 224.827 413.136 224.358 413.107C224.065 411.935 223.904 410.749 223.875 409.547C223.845 408.317 223.831 407.189 223.831 406.164L223.875 403.483ZM233.586 405.109L233.806 408.932C233.806 411.276 233.25 412.697 232.136 413.195C231.902 413.283 231.624 413.327 231.301 413.327C230.979 413.327 230.598 413.254 230.159 413.107L230.203 396.672C230.203 394.298 230.056 391.925 229.763 389.552C229.5 387.15 229.368 384.762 229.368 382.389C229.368 381.452 229.866 380.983 230.862 380.983H231.213C231.418 380.983 231.55 380.998 231.609 381.027C232.048 382.843 232.341 385.041 232.488 387.619C232.81 393.332 233.103 397.17 233.367 399.132C233.865 398.869 234.978 398.122 236.707 396.891C238.435 395.661 239.827 394.679 240.881 393.947C241.936 393.185 242.932 392.482 243.87 391.838C246.067 390.402 247.444 389.684 248 389.684C248.469 389.684 248.835 389.963 249.099 390.519C247.634 392.365 245.276 394.416 242.024 396.672C240.706 397.58 239.387 398.488 238.069 399.396C236.78 400.275 235.593 401.198 234.509 402.165C236.472 402.692 238.333 403.249 240.09 403.835C241.848 404.391 243.547 404.904 245.188 405.373C248.967 406.486 252.219 407.116 254.944 407.262C254.944 408.053 254.871 408.566 254.724 408.8C254.46 409.211 253.918 409.445 253.098 409.504H252.747C250.959 409.005 248.586 408.449 245.627 407.834C239.797 406.632 235.784 405.724 233.586 405.109ZM265.842 410.031C268.42 410.031 272.302 408.859 277.488 406.515C277.81 406.515 278.074 406.632 278.279 406.867C278.484 407.072 278.586 407.321 278.586 407.614C277.415 409.606 275.173 411.159 271.863 412.272C268.552 413.385 265.461 413.576 262.59 412.843C259.338 411.994 257.361 410.163 256.658 407.35C256.599 406.794 256.57 406.047 256.57 405.109C256.57 404.172 256.804 402.941 257.273 401.418C257.771 399.865 258.606 398.4 259.778 397.023C260.95 395.646 262.327 394.562 263.909 393.771C265.491 392.98 267.175 392.585 268.962 392.585C270.662 392.585 272.566 393.171 274.675 394.342C275.671 394.899 276.462 395.529 277.048 396.232C277.634 396.935 277.927 397.653 277.927 398.385C277.927 398.59 277.913 398.796 277.883 399.001C277.825 400.788 276.96 401.916 275.291 402.384C274.558 402.589 273.708 402.692 272.742 402.692L266.414 402.428C264.304 402.428 262.693 402.882 261.58 403.791C260.935 404.289 260.481 405.036 260.217 406.032C260.95 408.698 262.825 410.031 265.842 410.031ZM273.665 396.452C273.02 395.983 272.346 395.646 271.643 395.441C270.94 395.236 270.354 395.133 269.885 395.133C269.417 395.133 268.655 395.295 267.6 395.617C266.545 395.91 265.608 396.247 264.788 396.628C262.766 397.565 261.755 398.547 261.755 399.572C264.099 399.777 265.857 399.88 267.029 399.88C270.281 399.88 272.478 399.601 273.621 399.045C274.324 398.752 274.675 398.385 274.675 397.946C274.675 397.419 274.338 396.921 273.665 396.452ZM302.009 377.819C302.009 380.631 301.921 383.385 301.746 386.081C301.599 388.747 301.453 391.369 301.306 393.947C301.189 396.496 301.13 399.22 301.13 402.121C301.13 404.992 301.335 408.039 301.746 411.261C301.746 411.935 301.614 412.419 301.35 412.712C301.116 413.005 300.706 413.151 300.12 413.151C298.743 413.151 298.054 412.008 298.054 409.723V408.273C293.894 411.379 290.378 412.931 287.507 412.931C286.365 412.931 285.193 412.653 283.992 412.096C282.82 411.54 281.707 410.412 280.652 408.713C280.505 408.009 280.432 407.292 280.432 406.559C280.432 405.827 280.564 404.948 280.828 403.922C281.121 402.868 281.692 401.784 282.542 400.671C283.42 399.557 284.475 398.576 285.706 397.726C288.401 395.91 291.316 395.002 294.451 395.002C295.798 395.002 297.087 395.207 298.318 395.617C298.318 395.089 298.347 394.167 298.406 392.848C298.494 391.53 298.582 390.138 298.669 388.673C298.845 384.865 298.962 382.624 299.021 381.95C299.08 381.247 299.153 380.661 299.241 380.192C299.358 379.694 299.519 379.269 299.724 378.918C300.164 378.185 300.925 377.819 302.009 377.819ZM283.64 406.208C283.64 408.522 284.475 409.679 286.145 409.679C286.409 409.679 286.702 409.65 287.024 409.591C288.225 409.591 289.705 409.24 291.462 408.537C294.802 407.218 296.838 406.076 297.571 405.109V399.264C297.571 398.239 296.736 397.726 295.066 397.726C294.861 397.697 294.583 397.682 294.231 397.682C293.909 397.682 293.396 397.755 292.693 397.902C291.99 398.048 291.199 398.312 290.32 398.693C289.441 399.074 288.577 399.543 287.727 400.099C285.94 401.3 284.709 402.707 284.036 404.318C283.772 404.933 283.64 405.563 283.64 406.208ZM307.722 412.404C307.722 412.902 307.371 413.151 306.667 413.151C306.14 413.151 305.51 412.902 304.778 412.404C304.426 411.613 304.25 409.723 304.25 406.735C304.25 403.747 304.28 401.286 304.338 399.352C304.397 397.389 304.456 395.588 304.514 393.947C304.69 390.373 304.778 388.483 304.778 388.278C305.627 387.78 306.331 387.531 306.887 387.531C307.444 387.531 307.722 387.78 307.722 388.278V412.404ZM328.245 403.483C328.245 399.997 328.054 397.433 327.673 395.793C327.908 395.353 327.556 395.133 326.619 395.133C325.623 395.133 324.333 395.382 322.751 395.88C321.169 396.379 319.88 396.877 318.884 397.375C316.511 398.517 315.193 399.63 314.929 400.714V412.668H311.985C311.604 411.672 311.414 408.874 311.414 404.274C311.414 400.172 311.487 397.155 311.633 395.221C311.809 393.288 311.941 392.189 312.029 391.925C312.791 391.427 313.406 391.178 313.875 391.178C314.607 391.178 314.973 392.043 314.973 393.771C314.973 394.445 314.929 395.104 314.841 395.749C314.783 396.364 314.753 396.789 314.753 397.023C319.5 393.537 323.176 391.794 325.784 391.794C328.743 391.794 330.427 394.181 330.837 398.957C331.013 400.627 331.101 402.941 331.101 405.9L331.057 409.372C331.057 410.661 331.086 411.906 331.145 413.107C330.852 413.283 330.618 413.371 330.442 413.371C330.354 413.341 330.164 413.297 329.871 413.239C329.578 413.18 329.197 413.136 328.728 413.107C328.435 411.935 328.274 410.749 328.245 409.547C328.215 408.317 328.201 407.189 328.201 406.164L328.245 403.483Z" fill="#FC3F96"/>
<defs>
<clipPath id="clip0_79_1181">
<rect width="300" height="300" fill="white" transform="translate(100 60.107)"/>
</clipPath>
</defs>
</svg>
