<svg width="500" height="500" viewBox="0 0 500 500" fill="none" xmlns="http://www.w3.org/2000/svg">
<circle cx="250" cy="250" r="250" fill="#675E7D"/>
<g clip-path="url(#clip0_79_1191)">
<path d="M337.168 332.661V252.519H363.766V359.26H123.684V252.519H150.283V332.661H337.168Z" fill="#BCBBBB"/>
<path d="M179.646 244.919L310.223 272.209L315.749 245.955L185.174 218.665L179.646 244.919ZM196.918 182.739L317.823 239.046L328.877 214.866L207.972 158.213L196.918 182.739ZM230.426 123.323L333.022 208.647L349.948 188.266L247.352 102.942L230.426 123.323ZM296.752 60.107L275.332 75.9972L354.784 183.084L376.201 167.194L296.752 60.107ZM176.881 305.716H310.222V279.117H176.882L176.881 305.716Z" fill="#F48023"/>
</g>
<path d="M117.4 407.133C117.4 406.7 117.571 406.325 117.913 406.005C118.277 405.664 118.551 405.436 118.733 405.322C118.938 405.185 119.075 405.083 119.143 405.014C119.257 407.088 120.658 408.125 123.347 408.125C125.466 408.125 127.939 407.464 130.764 406.142C132.769 405.231 134.114 404.297 134.797 403.339C135.025 403.043 135.139 402.804 135.139 402.622C135.139 402.417 135.105 402.257 135.037 402.143L120.852 398.964C120.442 398.873 120.043 398.68 119.656 398.383C118.949 397.882 118.596 397.426 118.596 397.016C118.596 395.444 119.713 394.02 121.946 392.744C124.407 391.354 127.699 390.306 131.824 389.599C132.758 389.44 133.453 389.349 133.909 389.326C134.045 389.371 134.25 389.417 134.524 389.463C134.82 389.485 135.116 389.531 135.413 389.599C136.119 389.759 136.415 390.055 136.301 390.488C136.301 391.263 134.82 391.878 131.858 392.334C128.03 392.903 125.637 393.382 124.68 393.769C123.746 394.157 123.062 394.555 122.629 394.965C122.219 395.376 122.003 395.866 121.98 396.435C121.98 396.549 122.242 396.674 122.766 396.811C123.29 396.948 123.917 397.119 124.646 397.324C125.375 397.506 126.321 397.757 127.483 398.076C130.308 398.851 133.772 399.83 137.874 401.015C138.101 401.517 138.215 401.984 138.215 402.417C138.215 403.624 137.509 404.786 136.096 405.903C134.501 407.156 132.291 408.216 129.465 409.082C127.118 409.788 125.25 410.141 123.86 410.141C122.698 410.141 121.593 409.936 120.544 409.526C119.496 409.116 118.71 408.717 118.186 408.33C117.662 407.942 117.4 407.544 117.4 407.133ZM145.461 406.826L145.53 401.357C145.53 400.491 145.45 399.751 145.291 399.135H139.993L139.924 396.777H145.051V387.959C145.12 387.754 145.256 387.548 145.461 387.343C145.78 387.024 146.042 386.865 146.248 386.865C146.475 386.865 146.669 386.888 146.829 386.933C146.988 386.979 147.159 387.138 147.341 387.412C147.706 388.916 147.888 391.183 147.888 394.214C147.888 394.965 147.922 395.706 147.991 396.435C148.72 396.344 149.449 396.298 150.178 396.298C150.178 396.298 150.771 396.298 151.956 396.298C152.389 396.298 152.787 396.276 153.152 396.23L153.049 398.691L148.059 398.554L148.23 410.346C147.82 410.529 147.467 410.62 147.17 410.62C146.031 410.62 145.461 409.355 145.461 406.826ZM167.883 404.433C166.174 407.122 163.896 408.785 161.047 409.423C160.387 409.56 159.783 409.629 159.236 409.629C158.712 409.629 158.267 409.629 157.903 409.629C157.561 409.606 157.174 409.549 156.741 409.458C156.308 409.366 155.909 409.218 155.544 409.013C154.701 408.535 154.28 407.863 154.28 406.997C154.189 406.587 154.143 406.131 154.143 405.63C154.143 405.105 154.257 404.422 154.485 403.579C154.713 402.736 155.123 401.824 155.715 400.844C156.331 399.865 157.071 398.964 157.937 398.144C159.737 396.412 161.685 395.296 163.782 394.795C164.397 394.658 164.955 394.589 165.457 394.589C165.981 394.589 166.448 394.624 166.858 394.692C168.18 394.692 169.068 395.592 169.524 397.392C169.82 398.532 169.991 400.127 170.037 402.177C170.105 404.205 170.162 405.778 170.208 406.894C170.276 407.988 170.424 408.991 170.652 409.902H168.635C168.544 409.287 168.476 408.74 168.43 408.261C168.385 407.783 168.339 407.339 168.293 406.928C168.18 405.971 168.043 405.14 167.883 404.433ZM167.747 399.135C167.747 397.814 167.097 397.153 165.798 397.153C165.639 397.13 165.479 397.119 165.32 397.119C163.656 397.119 161.902 397.916 160.056 399.511C159.19 400.241 158.45 401.061 157.834 401.972C156.923 403.271 156.467 404.433 156.467 405.459C156.467 406.803 157.242 407.601 158.792 407.851C160.842 407.806 162.802 406.871 164.67 405.048C165.468 404.251 166.129 403.385 166.653 402.451C167.382 401.198 167.747 400.092 167.747 399.135ZM186.067 406.518C187.001 406.131 187.913 405.778 188.801 405.459C189.69 405.14 190.533 404.98 191.331 404.98C192.151 404.98 192.561 405.231 192.561 405.732C192.561 405.846 192.527 406.028 192.458 406.279C192.413 406.507 192.105 406.792 191.536 407.133C190.989 407.452 190.305 407.76 189.485 408.056C188.687 408.352 187.81 408.626 186.853 408.877C185.896 409.127 184.962 409.344 184.05 409.526C182.159 409.913 180.815 410.107 180.017 410.107C179.22 410.107 178.354 410.016 177.419 409.834C176.508 409.651 175.653 409.355 174.856 408.945C173.01 407.988 172.087 406.575 172.087 404.707C172.087 404.57 172.087 404.297 172.087 403.886C172.087 403.476 172.258 402.895 172.6 402.143C172.942 401.368 173.455 400.605 174.138 399.853C174.822 399.078 175.619 398.372 176.531 397.734C178.445 396.367 180.45 395.478 182.546 395.068C183.276 394.908 183.879 394.829 184.358 394.829C184.859 394.829 185.269 394.84 185.588 394.863C185.907 394.863 186.238 394.886 186.58 394.931C186.921 394.954 187.218 395.034 187.468 395.171C188.061 395.467 188.357 396.048 188.357 396.914C188.357 397.461 187.97 397.996 187.195 398.52C186.99 398.657 186.807 398.782 186.648 398.896C186.534 398.372 186.386 397.928 186.204 397.563C186.021 397.199 185.623 397.016 185.007 397.016C182.319 397.586 180.006 398.44 178.069 399.58C175.881 400.879 174.788 402.246 174.788 403.681C174.788 403.841 174.799 404.012 174.822 404.194C174.822 405.652 175.38 406.689 176.497 407.304C177.34 407.76 178.422 407.988 179.744 407.988C181.088 407.988 182.25 407.84 183.23 407.544C184.21 407.225 185.155 406.883 186.067 406.518ZM197.791 403.886L197.961 406.86C197.961 408.683 197.528 409.788 196.663 410.175C196.48 410.244 196.264 410.278 196.013 410.278C195.763 410.278 195.466 410.221 195.125 410.107L195.159 397.324C195.159 395.478 195.045 393.632 194.817 391.787C194.612 389.918 194.509 388.061 194.509 386.215C194.509 385.486 194.897 385.122 195.671 385.122H195.945C196.104 385.122 196.207 385.133 196.252 385.156C196.594 386.569 196.822 388.278 196.936 390.283C197.187 394.726 197.415 397.711 197.62 399.238C198.007 399.033 198.873 398.452 200.217 397.495C201.562 396.538 202.644 395.774 203.464 395.205C204.285 394.612 205.059 394.065 205.789 393.564C207.498 392.448 208.569 391.889 209.001 391.889C209.366 391.889 209.651 392.106 209.856 392.539C208.717 393.974 206.882 395.569 204.353 397.324C203.328 398.03 202.302 398.737 201.277 399.443C200.274 400.127 199.351 400.844 198.508 401.596C200.035 402.006 201.482 402.439 202.849 402.895C204.216 403.328 205.538 403.727 206.814 404.091C209.753 404.957 212.283 405.447 214.402 405.561C214.402 406.176 214.345 406.575 214.231 406.757C214.026 407.076 213.604 407.259 212.966 407.304H212.693C211.303 406.917 209.457 406.484 207.156 406.005C202.621 405.071 199.5 404.365 197.791 403.886ZM230.569 404.365C230.022 403.134 229.749 401.687 229.749 400.024C229.749 398.361 230.011 396.891 230.535 395.615C231.082 394.316 231.822 393.2 232.756 392.265C234.739 390.328 237.222 389.36 240.208 389.36C243.329 389.36 245.904 390.078 247.932 391.513C250.211 393.154 251.35 395.501 251.35 398.554C251.35 402.337 250.473 405.128 248.718 406.928C246.986 408.728 244.275 409.629 240.583 409.629C235.457 409.629 232.118 407.874 230.569 404.365ZM232.551 399.34C232.551 404.718 235.263 407.407 240.686 407.407C243.352 407.407 245.517 406.609 247.18 405.014C248.844 403.442 249.675 401.38 249.675 398.828C249.675 396.435 248.684 394.612 246.702 393.359C245.015 392.265 242.885 391.718 240.31 391.718C238.259 391.718 236.448 392.459 234.875 393.94C233.326 395.421 232.551 397.221 232.551 399.34ZM253.674 396.88C253.629 396.766 253.606 396.64 253.606 396.504C253.606 396.344 253.663 396.139 253.777 395.888C253.891 395.638 254.05 395.421 254.255 395.239C254.483 395.057 254.722 394.977 254.973 395C255.247 395 255.463 395.159 255.623 395.478L261.365 406.142C261.547 405.869 261.832 405.367 262.219 404.638C262.629 403.886 263.085 403.043 263.586 402.109C264.111 401.175 264.646 400.206 265.193 399.204C265.763 398.178 266.287 397.244 266.765 396.401C267.859 394.464 268.508 393.496 268.713 393.496C269.192 393.496 269.534 393.678 269.739 394.043C269.967 394.384 270.081 394.646 270.081 394.829C270.081 395.011 270.081 395.136 270.081 395.205C268.805 397.985 267.62 400.548 266.526 402.895C265.455 405.242 264.737 406.769 264.373 407.475C264.031 408.159 263.723 408.706 263.45 409.116C262.971 409.822 262.504 410.175 262.048 410.175C261.593 410.175 261.069 409.822 260.476 409.116C259.884 408.387 259.211 407.418 258.459 406.211C257.138 404.023 255.543 400.913 253.674 396.88ZM278.489 407.714C280.494 407.714 283.513 406.803 287.546 404.98C287.797 404.98 288.002 405.071 288.162 405.254C288.321 405.413 288.401 405.607 288.401 405.835C287.489 407.384 285.746 408.592 283.171 409.458C280.597 410.324 278.193 410.472 275.959 409.902C273.43 409.241 271.892 407.817 271.345 405.63C271.3 405.197 271.277 404.616 271.277 403.886C271.277 403.157 271.459 402.2 271.824 401.015C272.211 399.808 272.861 398.668 273.772 397.597C274.683 396.526 275.754 395.683 276.985 395.068C278.215 394.453 279.526 394.145 280.916 394.145C282.237 394.145 283.718 394.601 285.359 395.512C286.134 395.945 286.749 396.435 287.205 396.982C287.66 397.529 287.888 398.087 287.888 398.657C287.888 398.816 287.877 398.976 287.854 399.135C287.808 400.525 287.136 401.403 285.837 401.767C285.268 401.927 284.607 402.006 283.855 402.006L278.933 401.801C277.292 401.801 276.039 402.155 275.173 402.861C274.672 403.248 274.319 403.829 274.114 404.604C274.683 406.678 276.142 407.714 278.489 407.714ZM284.573 397.153C284.071 396.788 283.547 396.526 283 396.367C282.454 396.207 281.998 396.128 281.633 396.128C281.269 396.128 280.676 396.253 279.856 396.504C279.036 396.731 278.306 396.993 277.668 397.29C276.096 398.019 275.31 398.782 275.31 399.58C277.133 399.739 278.5 399.819 279.412 399.819C281.941 399.819 283.65 399.602 284.539 399.17C285.085 398.942 285.359 398.657 285.359 398.315C285.359 397.905 285.097 397.518 284.573 397.153ZM307.234 397.631C306.277 396.948 305.046 396.606 303.542 396.606C302.13 396.606 300.819 396.868 299.612 397.392C297.333 398.349 295.772 399.58 294.929 401.084C294.565 401.767 294.382 402.496 294.382 403.271C294.382 403.408 294.382 403.795 294.382 404.433C294.382 405.048 294.496 405.892 294.724 406.963C294.952 408.011 295.066 409.082 295.066 410.175C294.587 410.198 294.2 410.255 293.904 410.346C293.608 410.437 293.357 410.483 293.152 410.483C292.947 410.483 292.764 410.392 292.605 410.21C292.468 410.027 292.309 409.674 292.126 409.15C292.104 409.013 292.058 408.626 291.99 407.988C291.921 407.35 291.83 406.575 291.716 405.664C291.625 404.752 291.511 403.761 291.375 402.69C291.261 401.596 291.147 400.525 291.033 399.477C290.782 397.199 290.588 395.524 290.452 394.453C290.452 393.906 290.85 393.632 291.648 393.632C292.126 393.632 292.502 393.838 292.776 394.248C293.049 394.635 293.266 395.091 293.425 395.615C293.585 396.116 293.687 396.617 293.733 397.119C293.801 397.62 293.858 397.973 293.904 398.178C296.912 395.49 300.649 394.145 305.115 394.145C305.616 394.145 306.14 394.157 306.687 394.179C306.824 394.157 306.995 394.145 307.2 394.145C307.405 394.145 307.61 394.282 307.815 394.555C308.066 394.874 308.191 395.262 308.191 395.717C308.191 396.857 307.872 397.495 307.234 397.631ZM329.382 398.691C329.496 398.691 329.553 398.999 329.553 399.614C329.553 400.229 329.576 400.651 329.622 400.879L317.898 402.314L318.513 409.902L315.745 409.765C315.745 407.714 315.517 405.367 315.061 402.724L310.618 404.433C310.321 404.433 310.071 404.262 309.866 403.921C309.501 403.328 309.319 402.793 309.319 402.314L314.514 400.468C314.058 396.549 313.831 393.37 313.831 390.932C313.831 388.471 314.036 386.557 314.446 385.19C314.856 383.823 315.448 382.911 316.223 382.456C317.021 381.977 317.864 381.738 318.752 381.738C319.641 381.738 320.541 381.932 321.453 382.319C322.387 382.706 323.276 383.196 324.119 383.789C324.962 384.381 325.68 385.053 326.272 385.805C326.864 386.534 327.161 387.252 327.161 387.959C327.161 388.505 327.104 388.893 326.99 389.121C326.078 387.845 324.973 386.705 323.674 385.703C322.125 384.518 320.667 383.925 319.299 383.925C318 383.925 317.135 384.848 316.702 386.694C316.497 387.651 316.394 389.007 316.394 390.761C316.394 392.493 316.44 394.088 316.531 395.547C316.622 396.982 316.895 398.429 317.351 399.887C318.764 399.887 320.347 399.762 322.102 399.511C325.474 398.987 327.901 398.714 329.382 398.691ZM331.16 396.845C331.114 395.615 331.069 394.521 331.023 393.564C330.977 392.584 330.943 391.866 330.92 391.411C330.92 390.932 330.738 389.782 330.374 387.959C330.579 387.685 330.772 387.423 330.955 387.172C331.16 386.922 331.444 386.797 331.809 386.797C332.607 386.797 333.222 390.158 333.655 396.88C333.883 400.776 333.997 404.672 333.997 408.569C333.997 409.617 333.267 410.141 331.809 410.141L331.536 410.107C331.536 408.922 331.501 407.407 331.433 405.561C331.365 403.715 331.308 402.109 331.262 400.742C331.239 399.375 331.205 398.076 331.16 396.845ZM336.902 403.613C336.902 400.924 338.064 398.759 340.388 397.119C342.234 395.82 344.456 395.034 347.053 394.76C347.19 394.76 347.509 394.76 348.01 394.76C348.512 394.76 349.184 394.908 350.027 395.205C351.895 395.843 353.171 396.971 353.855 398.589C354.128 399.227 354.265 399.773 354.265 400.229C354.265 400.662 354.254 400.97 354.231 401.152C354.231 404 353.149 406.245 350.984 407.885C348.979 409.389 346.472 410.141 343.464 410.141C341.3 410.141 339.659 409.64 338.542 408.637C337.449 407.635 336.902 405.96 336.902 403.613ZM339.26 404.433C339.26 405.846 339.636 406.803 340.388 407.304C340.958 407.669 341.915 407.851 343.259 407.851C344.604 407.851 345.789 407.749 346.814 407.544C347.839 407.339 348.751 406.985 349.548 406.484C351.257 405.39 352.112 403.693 352.112 401.391C352.112 400.024 351.747 398.908 351.018 398.042C350.221 397.107 349.172 396.64 347.874 396.64C346.985 396.8 346.085 396.971 345.173 397.153C344.285 397.335 343.442 397.688 342.644 398.213C340.912 399.329 339.784 401.403 339.26 404.433ZM368.723 400.673C368.222 402.337 367.8 403.875 367.458 405.288C367.139 406.7 366.82 407.874 366.501 408.808C366 410.153 365.431 410.825 364.792 410.825C364.451 410.825 364.063 410.665 363.63 410.346C362.582 409.23 361.101 406.757 359.187 402.929C357.319 399.192 356.384 396.857 356.384 395.922C356.384 395.512 356.51 395.262 356.76 395.171C357.011 395.057 357.296 395.045 357.615 395.136C358.389 395.364 358.936 395.717 359.255 396.196C359.415 396.424 359.609 396.823 359.836 397.392L360.691 399.511C361.648 401.904 362.594 404.091 363.528 406.074C364.029 405.299 364.508 404.297 364.963 403.066L366.023 400.127C366.934 397.552 367.755 396.241 368.484 396.196C369.054 395.831 370.763 397.848 373.611 402.246C374.819 404.114 375.57 405.231 375.867 405.595C376.072 405.595 376.311 404.912 376.584 403.545C376.881 402.177 377.131 401.027 377.336 400.092C377.564 399.135 377.838 398.247 378.157 397.426C378.909 395.512 379.775 394.555 380.754 394.555C381.073 394.555 381.29 394.669 381.404 394.897C381.541 395.102 381.609 395.273 381.609 395.41C381.609 395.547 381.609 395.649 381.609 395.717C381.335 396.492 381.051 397.381 380.754 398.383C380.458 399.363 380.139 400.377 379.797 401.425C379.478 402.451 379.148 403.476 378.806 404.502C378.487 405.504 378.168 406.416 377.849 407.236C377.097 409.013 376.471 409.97 375.969 410.107C375.582 410.289 374.955 409.845 374.089 408.774C373.702 408.273 373.292 407.68 372.859 406.997C372.426 406.313 371.97 405.607 371.492 404.878C370.33 403.055 369.407 401.653 368.723 400.673Z" fill="#FC3F96"/>
<defs>
<clipPath id="clip0_79_1191">
<rect width="252.632" height="300" fill="white" transform="translate(123.684 60.107)"/>
</clipPath>
</defs>
</svg>
