<svg width="71" height="70" viewBox="0 0 71 70" fill="none" xmlns="http://www.w3.org/2000/svg">
<path d="M64.7304 2.6416H7.14995C5.17769 2.6416 3.57886 4.24043 3.57886 6.2127V63.7932C3.57886 65.7654 5.17769 67.3643 7.14995 67.3643H64.7304C66.7027 67.3643 68.3015 65.7654 68.3015 63.7932V6.2127C68.3015 4.24043 66.7027 2.6416 64.7304 2.6416Z" fill="#3D5A98"/>
<path d="M48.2313 67.3586V42.2953H56.6422L57.9001 32.5281H48.2313V26.2937C48.2313 23.4664 49.0188 21.5359 53.0711 21.5359H58.2446V12.7859C55.7394 12.5248 53.2219 12.4007 50.7032 12.4141C43.2547 12.4141 38.125 16.9531 38.125 25.3258V32.5281H29.7141V42.2953H38.125V67.3586H48.2313Z" fill="white"/>
</svg>
