<svg width="197" height="70" viewBox="0 0 197 70" fill="none" xmlns="http://www.w3.org/2000/svg">
<g clip-path="url(#clip0_70_651)">
<path d="M38.6063 32.1561V57.2686C38.6063 57.4436 38.5625 57.7498 38.3438 57.8373C38.3438 57.8373 32.875 61.7311 23.8625 61.7311C12.9688 61.7311 0.0625 58.3186 0.0625 35.8311C0.0625 13.3436 11.35 8.70607 22.375 8.74982C31.9125 8.74982 35.7625 10.8936 36.375 11.2873C36.55 11.5061 36.6375 11.6811 36.6375 11.8998L34.8 19.6873C34.8 20.0811 34.4062 20.5623 33.925 20.4311C32.35 19.9498 29.9875 18.9873 24.4313 18.9873C18 18.9873 11.0875 20.8248 11.0875 35.3061C11.0875 49.7873 17.65 51.4936 22.375 51.4936C26.4 51.4936 27.8438 51.0123 27.8438 51.0123V40.9498H21.4125C20.9312 40.9498 20.5813 40.5998 20.5813 40.2061V32.1561C20.5813 31.7623 20.9312 31.4123 21.4125 31.4123H37.775C38.2562 31.4123 38.6063 31.7623 38.6063 32.1561ZM195.45 42.3498C195.45 57.3561 190.594 61.6436 182.106 61.6436C174.931 61.6436 171.081 58.0123 171.081 58.0123C171.081 58.0123 170.906 60.0248 170.688 60.2873C170.556 60.5498 170.338 60.6373 170.075 60.6373H163.6C163.163 60.6373 162.769 60.2873 162.769 59.8936L162.856 11.2873C162.856 10.8936 163.206 10.5436 163.6 10.5436H172.919C173.312 10.5436 173.663 10.8936 173.663 11.2873V27.7811C173.663 27.7811 177.25 25.4623 182.5 25.4623L182.456 25.3748C187.706 25.3748 195.45 27.3436 195.45 42.3498ZM121.162 10.6311C121.556 10.6311 121.906 10.9811 121.906 11.3748V59.9811C121.906 60.3748 121.556 60.7248 121.162 60.7248H111.844C111.45 60.7248 111.1 60.3748 111.1 59.9811L111.188 39.1998H96.7063V59.9811C96.7063 60.3748 96.3562 60.7248 95.9625 60.7248H86.6438C86.2938 60.7248 85.9 60.3748 85.9 59.9811V11.3748C85.9 10.9811 86.25 10.6311 86.6438 10.6311H95.9625C96.3562 10.6311 96.7063 10.9811 96.7063 11.3748V29.2686H111.188V11.3748C111.188 10.9811 111.537 10.6311 111.931 10.6311H121.162ZM157.3 26.5561C157.781 26.5561 158.131 26.9061 158.131 27.2998L158.044 59.9811C158.044 60.3748 157.781 60.7248 157.3 60.7248H151.438C151.131 60.7248 150.825 60.5498 150.737 60.3311C150.606 60.0686 150.387 58.3623 150.387 58.3623C150.387 58.3623 145.444 61.7311 139.363 61.7311C131.969 61.7311 126.588 59.3248 126.588 49.6998V27.3436C126.588 26.9498 126.938 26.5998 127.331 26.5998H136.694C137.087 26.5998 137.438 26.9498 137.438 27.3436V48.1248C137.438 51.4061 138.4 52.8936 141.681 52.8936C144.962 52.8936 147.369 51.1873 147.369 51.1873V27.3873C147.369 26.9061 147.631 26.5561 148.113 26.5561H157.3ZM81.1488 52.6792H81.1706C81.3492 52.7162 81.509 52.815 81.6218 52.9583C81.7347 53.1016 81.7934 53.28 81.7875 53.4623V60.0248C81.7875 60.3311 81.6562 60.6373 81.3938 60.7248C80.9563 60.9436 78.1562 61.6873 75.8375 61.6873C70.7625 61.6873 63.325 60.5936 63.325 49.9186V35.5686H58.4688C58.075 35.5686 57.725 35.2186 57.725 34.7373V28.7873C57.725 28.4373 57.9438 28.1311 58.2938 28.0436C58.6 27.9998 63.3688 26.8186 63.3688 26.8186V17.3248C63.3688 16.9748 63.5875 16.7561 63.9812 16.7561H73.4313C73.825 16.7561 74.0437 16.9748 74.0437 17.3248V26.5561H81C81.35 26.5561 81.7 26.9061 81.7 27.2998V34.7373C81.7 35.2186 81.3938 35.5686 81 35.5686H74.0437V49.2667C74.0437 51.3229 75.225 52.8979 78.6375 52.8979C79.7181 52.8979 80.7419 52.6836 81.1488 52.6792ZM53.6125 26.5123C54.0062 26.5123 54.3563 26.8623 54.3563 27.2561V59.4998C54.3563 60.2873 54.1375 60.6811 53.2625 60.6811H44.8625C44.1187 60.6811 43.55 60.3748 43.55 59.4998V27.3873C43.55 26.9061 43.9 26.5123 44.2937 26.5123H53.6125ZM184.819 43.0498C184.819 35.1311 181.625 34.0811 178.256 34.4311C175.631 34.6061 173.531 35.9186 173.531 35.9186V51.3186C173.531 51.3186 175.675 52.8061 178.869 52.8936C183.375 53.0248 184.819 51.4061 184.819 43.0498ZM49.0187 11.7248C52.3 11.7248 54.9688 14.3936 54.9688 17.7623C54.9688 21.1311 52.3 23.7998 49.0187 23.7998C45.65 23.7998 42.9813 21.1311 42.9813 17.7623C42.9813 14.3936 45.65 11.7248 49.0187 11.7248ZM81.1313 52.6311L81.175 52.6748H81.1706L81.1488 52.6704V52.6748C81.1094 52.6704 81.0831 52.6267 81.0438 52.6267L81.1313 52.6311Z" fill="black"/>
</g>
<defs>
<clipPath id="clip0_70_651">
<rect width="196.875" height="70" fill="white" transform="translate(0.0625)"/>
</clipPath>
</defs>
</svg>
