<svg width="281" height="70" viewBox="0 0 281 70" fill="none" xmlns="http://www.w3.org/2000/svg">
<g clip-path="url(#clip0_70_690)">
<path d="M110.562 40.9998L126.013 59.9998H113.812L100.062 42.5502V59.9998H90.0623V10.0002H100.062V39.4002L112.763 24.9998H125.512L110.562 40.9998ZM70.5623 24.0002C68.3728 24.0329 66.2239 24.5959 64.2995 25.6408C62.3751 26.6857 60.7326 28.1814 59.5127 29.9999V24.9998H50.0627V59.9998H60.0623V43.6499C59.931 42.4632 60.0454 41.2621 60.3983 40.1215C60.7512 38.9809 61.3351 37.9251 62.1137 37.0199C62.8922 36.1146 63.8488 35.3793 64.9238 34.8598C65.9988 34.3402 67.1692 34.0475 68.3623 33.9998C74.1624 33.9998 75.0626 39.6998 75.0626 43.6499V59.9998H85.0627V41.4498C85.0627 30.45 81.4123 24.0002 70.7625 24.0002H70.5623ZM160.062 43.2999C160.101 44.0327 160.101 44.7672 160.062 45.5H133.812V45.85C134.238 47.935 135.394 49.8 137.07 51.1103C138.747 52.4206 140.836 53.0905 142.963 52.9998C144.649 53.0732 146.333 52.8055 147.914 52.2128C149.495 51.62 150.94 50.7144 152.163 49.5502L158.813 54.5502C156.705 56.701 154.17 58.3862 151.371 59.4972C148.572 60.6081 145.571 61.1201 142.562 61.0001C140.07 61.1576 137.574 60.7784 135.241 59.8883C132.908 58.9982 130.793 57.6179 129.04 55.8405C127.286 54.0631 125.934 51.9301 125.076 49.5856C124.217 47.241 123.872 44.7395 124.063 42.2499C124.011 39.7923 124.467 37.3505 125.401 35.0766C126.335 32.8028 127.727 30.7457 129.491 29.0335C131.255 27.3213 133.352 25.9908 135.653 25.1248C137.953 24.2588 140.407 23.876 142.863 24.0002C152.263 24.0002 160.062 30.6502 160.062 43.2999ZM150.763 38.9998C150.726 38.0095 150.488 37.0369 150.063 36.1415C149.638 35.2461 149.036 34.4466 148.292 33.7917C147.548 33.1367 146.679 32.6401 145.737 32.332C144.795 32.024 143.8 31.911 142.813 31.9998C138.416 31.5246 134.434 34.6216 133.812 38.9998H150.763ZM10.0627 10.0002H0.0625V59.9998H30.0624V50.0008H10.0627V10.0002ZM190.063 10.0002H200.062V59.9998H190.612V56.4998C189.412 57.9783 187.883 59.1553 186.147 59.9367C184.41 60.7182 182.515 61.0823 180.613 61.0001C178.289 60.9404 176.001 60.4061 173.891 59.4299C171.781 58.4537 169.893 57.0563 168.343 55.3235C166.793 53.5908 165.614 51.5593 164.878 49.3541C164.141 47.1488 163.864 44.8162 164.063 42.4998C163.827 40.1802 164.076 37.8368 164.795 35.6187C165.514 33.4007 166.687 31.3566 168.239 29.6164C169.791 27.8763 171.688 26.4784 173.809 25.5114C175.931 24.5445 178.231 24.0298 180.562 24.0002C182.299 23.9241 184.033 24.1944 185.664 24.7952C187.295 25.3961 188.791 26.3156 190.063 27.5002V10.0002ZM190.812 42.4998C190.97 41.3453 190.878 40.1704 190.542 39.0545C190.207 37.9385 189.636 36.9075 188.868 36.0309C188.101 35.1542 187.154 34.4524 186.092 33.9727C185.03 33.493 183.878 33.2465 182.713 33.25C177.929 33.5973 174.305 37.7109 174.563 42.4998C174.305 47.2888 177.929 51.403 182.713 51.7502C183.878 51.7537 185.03 51.5073 186.092 51.0275C187.154 50.5478 188.101 49.8459 188.869 48.9692C189.636 48.0925 190.207 47.0614 190.542 45.9454C190.878 44.8294 190.97 43.6545 190.812 42.4998ZM40.0626 8.99992C38.4545 9.02271 36.915 9.65483 35.7549 10.7686C34.5948 11.8825 33.9006 13.395 33.8123 15.0008C33.8123 18.4521 36.6107 21.2505 40.0626 21.2505C43.5145 21.2505 46.3117 18.4516 46.3117 15.0008C46.2234 13.3952 45.5292 11.8829 44.3692 10.7692C43.2092 9.65549 41.6699 9.02339 40.062 9.00047M35.0625 59.9998H45.0627V24.9998H35.0625V59.9998ZM280.062 5.00008V64.9999C280.062 66.326 279.536 67.5978 278.598 68.5355C277.66 69.4732 276.389 70 275.062 70H215.063C213.736 70 212.465 69.4732 211.527 68.5355C210.589 67.5978 210.062 66.326 210.062 64.9999V5.00008C210.062 3.67397 210.589 2.40219 211.527 1.46449C212.465 0.526792 213.736 0 215.063 0L275.062 0C276.389 0 277.66 0.526792 278.598 1.46449C279.536 2.40219 280.062 3.67397 280.062 5.00008ZM230.062 24.9998H220.063V59.9998H230.062V24.9998ZM231.312 15.0002C231.312 11.5484 228.514 8.75 225.063 8.75C221.611 8.75 218.812 11.5484 218.812 15.0002C218.812 18.4516 221.611 21.2499 225.063 21.2499C228.514 21.2499 231.312 18.4516 231.312 15.0002ZM270.062 41.4498C270.062 30.45 266.413 24.0002 255.763 24.0002C253.539 24.0003 251.35 24.5478 249.388 25.5941C247.426 26.6404 245.751 28.1535 244.512 29.9999V24.9998H235.062V59.9998H245.062V43.6499C244.931 42.4632 245.046 41.2621 245.398 40.1215C245.751 38.9809 246.335 37.9251 247.114 37.0199C247.892 36.1146 248.849 35.3793 249.924 34.8598C250.999 34.3402 252.169 34.0475 253.362 33.9998C259.163 33.9998 260.063 39.6998 260.063 43.6499V59.9998H270.062V41.4498Z" fill="#0A66C2"/>
</g>
<defs>
<clipPath id="clip0_70_690">
<rect width="280" height="70" fill="white" transform="translate(0.0625)"/>
</clipPath>
</defs>
</svg>
