<svg width="71" height="70" viewBox="0 0 71 70" fill="none" xmlns="http://www.w3.org/2000/svg">
<g clip-path="url(#clip0_70_653)">
<path d="M3.31312 66.2512L2.31562 66.1631C1.52977 66.0997 1.22625 65.7825 1.22625 65.2487C1.22625 64.6144 1.70641 64.2206 2.6175 64.2206C3.26336 64.2206 3.8343 64.3737 4.27672 64.7155L4.87117 64.1195C4.31336 63.6634 3.51656 63.4473 2.63117 63.4473C1.30227 63.4473 0.341953 64.1326 0.341953 65.275C0.341953 66.3031 0.987266 66.8473 2.20133 66.9484L3.22727 67.0392C3.94586 67.1027 4.26414 67.4073 4.26414 67.9536C4.26414 68.6902 3.63086 69.0572 2.60492 69.0572C1.83383 69.0572 1.16391 68.8543 0.669531 68.3331L0.0625 68.9429C0.745547 69.6035 1.56805 69.8436 2.6175 69.8436C4.12359 69.8436 5.14734 69.1458 5.14734 67.9405C5.14734 66.7718 4.40195 66.3534 3.31312 66.2512ZM11.1045 63.4479C10.1042 63.4479 9.47641 63.6442 8.9257 64.3437C8.91641 64.3546 9.5218 64.9441 9.5218 64.9441C9.8882 64.4241 10.2945 64.2332 11.0919 64.2332C12.2299 64.2332 12.6855 64.6893 12.6855 65.6031V66.2014H10.8141C9.42281 66.2014 8.66266 66.9123 8.66266 68.0034C8.64856 68.4714 8.81657 68.9266 9.13133 69.2732C9.52398 69.6795 10.0298 69.843 10.8895 69.843C11.7252 69.843 12.1807 69.679 12.6866 69.1715V69.7676H13.5982V65.5277C13.5982 64.1714 12.7752 63.4473 11.105 63.4473L11.1045 63.4479ZM12.686 67.5604C12.686 68.0805 12.5843 68.4354 12.371 68.6388C11.9773 69.02 11.5086 69.0572 10.9776 69.0572C9.98992 69.0572 9.5475 68.7159 9.5475 67.9924C9.5475 67.2689 10.003 66.8883 10.9409 66.8883H12.6855L12.686 67.5604ZM17.166 64.2595C17.7594 64.2595 18.1269 64.4366 18.5934 64.9573C18.5934 64.9573 19.2048 64.3634 19.2004 64.3568C18.5605 63.6727 18.0191 63.4473 17.166 63.4473C15.5954 63.4473 14.4076 64.5148 14.4076 66.6466C14.4076 68.7783 15.5954 69.8458 17.166 69.8458C18.0257 69.8458 18.5698 69.6166 19.2157 68.9188L18.5955 68.3205C18.1269 68.8412 17.7594 69.0315 17.166 69.0315C16.8851 69.0431 16.6058 68.9841 16.3536 68.8599C16.1014 68.7357 15.8843 68.5502 15.7223 68.3205C15.4313 67.9148 15.3187 67.4324 15.3187 66.6471C15.3187 65.8585 15.4313 65.3767 15.7223 64.9704C15.8843 64.7407 16.1014 64.5553 16.3536 64.4311C16.6058 64.3069 16.8851 64.2479 17.166 64.2595ZM24.9683 63.5141H23.8319L21.0084 66.2703L21.0127 60.7305H20.1016V69.7676H21.0127L21.0084 67.4887L22.1141 66.3764L24.201 69.7676H25.3287L22.7452 65.7437L24.9683 63.5141ZM29.1754 63.3609C28.2424 63.3609 27.6113 63.7262 27.2247 64.1386C26.6554 64.7352 26.5077 65.4516 26.5077 66.5968C26.5077 67.7529 26.6548 68.4693 27.2247 69.0659C27.6119 69.4788 28.2419 69.8436 29.1754 69.8436C30.1105 69.8436 30.752 69.4788 31.1409 69.0659C31.7118 68.4698 31.8556 67.7529 31.8556 66.5968C31.8556 65.4522 31.7118 64.7347 31.1409 64.1386C30.7526 63.7262 30.1105 63.3609 29.1754 63.3609ZM29.9164 68.1417C29.7173 68.3331 29.4499 68.4327 29.1754 68.4206C29.0417 68.4274 28.908 68.406 28.783 68.358C28.658 68.31 28.5445 68.2363 28.4497 68.1417C28.1216 67.813 28.0844 67.2536 28.0844 66.5968C28.0844 65.9405 28.121 65.3915 28.4497 65.0634C28.5448 64.9692 28.6584 64.8958 28.7833 64.8478C28.9082 64.7998 29.0417 64.7783 29.1754 64.7845C29.4499 64.7719 29.7173 64.8714 29.9164 65.0634C30.2429 65.3915 30.2795 65.94 30.2795 66.5968C30.2795 67.253 30.2423 67.813 29.9164 68.1417ZM36.0523 63.4326L34.7809 67.3509L33.4957 63.4326H31.8343L34.1629 69.7698H35.3988L37.7137 63.4326H36.0523ZM40.3967 63.3615C38.7594 63.3615 37.6448 64.528 37.6448 66.5968C37.6448 69.1627 39.0749 69.843 40.5673 69.843C41.7059 69.843 42.3256 69.4914 42.967 68.8455L42.0105 67.9104C41.6086 68.3118 41.2695 68.5065 40.5783 68.5065C39.6923 68.5065 39.1958 67.9104 39.1958 67.0934H43.1486V66.3895C43.1486 64.6505 42.1549 63.3615 40.3967 63.3615ZM39.1958 66.0116C39.1978 65.7773 39.2476 65.5457 39.3423 65.3313C39.4393 65.1344 39.5895 64.9685 39.7758 64.8525C39.9621 64.7364 40.1772 64.6748 40.3967 64.6745C40.8435 64.6745 41.2526 64.9294 41.4511 65.3313C41.5462 65.5446 41.596 65.7781 41.5982 66.0116H39.1958ZM45.475 64.0418V63.4326H43.935V69.7698H45.5116V65.9509C45.5116 65.1476 46.0454 64.7823 46.5294 64.7823C46.6873 64.7769 46.8442 64.8078 46.9883 64.8726C47.1324 64.9373 47.2598 65.0342 47.3606 65.1558L48.555 63.957C48.1191 63.5184 47.6822 63.3609 47.062 63.3609C46.7648 63.3573 46.47 63.416 46.1968 63.5332C45.9236 63.6504 45.6779 63.8234 45.4755 64.0412L45.475 64.0418ZM49.0434 62.7714V69.7632H50.62V64.7675H51.7843V63.5644H50.62V62.8704C50.62 62.5056 50.8016 62.2984 51.1778 62.2984H51.7843V60.9585H50.8858C49.6006 60.9585 49.0434 61.8729 49.0434 62.7714ZM58.2735 63.3587C57.34 63.3587 56.7095 63.7241 56.3212 64.1386C55.7524 64.7352 55.6059 65.4516 55.6059 66.5946C55.6059 67.7507 55.7524 68.4671 56.3206 69.0665C56.7095 69.4783 57.34 69.843 58.273 69.843C59.2059 69.843 59.8496 69.4788 60.2384 69.0665C60.8072 68.4693 60.9538 67.7502 60.9538 66.5946C60.9538 65.4516 60.8072 64.7352 60.2384 64.1391C59.8502 63.7246 59.2059 63.3587 58.2735 63.3587ZM59.014 68.1417C58.9158 68.2358 58.7995 68.3089 58.6723 68.3569C58.545 68.4048 58.4094 68.4265 58.2735 68.4206C58.1394 68.4267 58.0056 68.4051 57.8802 68.3571C57.7549 68.3091 57.6408 68.2358 57.5451 68.1417C57.2186 67.8109 57.1825 67.2514 57.1825 66.5946C57.1825 65.9384 57.2191 65.3915 57.5451 65.0634C57.6404 64.9685 57.7543 64.8946 57.8797 64.8462C58.0051 64.7978 58.1392 64.776 58.2735 64.7823C58.5475 64.7697 58.8149 64.8709 59.014 65.0634C59.3405 65.3915 59.3771 65.9384 59.3771 66.5946C59.3771 67.2509 59.3399 67.8109 59.014 68.1417ZM68.4016 63.4326L67.3817 67.3509L66.084 63.4326H64.9328L63.6477 67.3509L62.6305 63.4326H60.9559L62.8957 69.7698H64.194L65.5152 65.794L66.8376 69.7698H68.1337L70.0625 63.4326H68.4016ZM54.1091 67.8606V60.9591H52.5341V67.958C52.5341 68.8587 53.0782 69.7698 54.3765 69.7698H55.2734V68.4327H54.668C54.2687 68.4327 54.1102 68.2385 54.1102 67.8606H54.1091ZM7.67445 64.5055L8.51664 63.6612H6.79344V61.6049H5.88125V68.0909C5.88125 69.0184 6.41172 69.7676 7.47539 69.7676H8.12125V68.9812H7.63945C7.05867 68.9812 6.79344 68.6388 6.79344 68.0679V64.5055H7.67445Z" fill="#1E1B1D"/>
<path d="M48.94 34.1206H53.5923V52.8483H11.7072V34.1206H16.3622V48.1676H48.9395L48.94 34.1206Z" fill="#BBBBBB"/>
<path d="M21.4344 32.7305L44.2915 37.5622L45.2524 32.9652L22.3952 28.1308L21.4344 32.7305ZM24.4575 21.7209L45.6325 31.639L47.6051 27.3799L26.4301 17.4607L24.4575 21.7209ZM30.3178 11.2701L48.2684 26.3059L51.2576 22.6965L33.3087 7.65852L30.3178 11.2701ZM41.9044 0.154297L38.1545 2.95867L52.0949 21.8133L55.8437 19.0095L41.9044 0.154297ZM21.0171 43.4848H44.285V38.8036H21.0171V43.4848Z" fill="#F58025"/>
</g>
<defs>
<clipPath id="clip0_70_653">
<rect width="70" height="70" fill="white" transform="translate(0.0625)"/>
</clipPath>
</defs>
</svg>
