<svg width="500" height="500" viewBox="0 0 500 500" fill="none" xmlns="http://www.w3.org/2000/svg">
<circle cx="250" cy="250" r="250" fill="#675E7D"/>
<g clip-path="url(#clip0_63_204)">
<path d="M329.688 60.1071H170.312C131.48 60.1071 100 91.587 100 130.42V289.795C100 328.627 131.48 360.107 170.312 360.107H329.688C368.52 360.107 400 328.627 400 289.795V130.42C400 91.587 368.52 60.1071 329.688 60.1071Z" fill="url(#paint0_linear_63_204)"/>
<path d="M264.39 145.708L233.146 145.653L189.855 260.364L218.113 260.413L225.179 240.977L267.806 241.049L259.747 219.527L231.685 219.477L249.156 170.117L283.063 260.525L311.323 260.574L264.39 145.708Z" fill="white"/>
<path d="M373.213 176.268C373.134 175.88 373.017 175.5 372.865 175.134C372.821 175.009 372.767 174.889 372.705 174.773C372.169 173.668 371.332 172.737 370.289 172.088C369.243 171.433 368.033 171.084 366.798 171.08C365.105 171.071 363.477 171.734 362.271 172.923C361.434 173.753 360.854 174.806 360.599 175.957C360.344 177.108 360.425 178.307 360.832 179.413L360.814 179.42C363.84 189.448 365.456 199.848 365.616 210.321C366.098 240.695 354.484 269.233 332.921 290.673C311.354 312.115 282.413 323.891 251.431 323.839C220.451 323.785 191.133 311.905 168.887 290.39C146.637 268.873 134.121 240.295 133.64 209.921C133.159 179.546 144.773 151.009 166.339 129.569C187.903 108.127 216.846 96.3508 247.826 96.4047C275.491 96.4515 301.821 105.936 322.982 123.286C322.288 125.088 321.947 127.007 321.979 128.937C322.114 137.467 329.275 144.391 337.977 144.406C346.676 144.421 353.621 137.521 353.485 128.991C353.35 120.461 346.186 113.534 337.487 113.519C335.652 113.512 333.829 113.824 332.1 114.441C309.238 95.3805 279.716 83.8234 247.626 83.7672C176.45 83.6441 119.646 140.114 120.753 209.898C121.859 279.681 180.454 336.352 251.631 336.475C322.809 336.598 379.611 280.129 378.505 210.344C378.323 198.795 376.542 187.328 373.213 176.268Z" fill="white"/>
</g>
<path d="M214.8 397.023H216.03C216.528 397.023 216.997 397.067 217.437 397.155C217.905 397.243 218.14 397.565 218.14 398.122C218.345 399.294 217.656 399.865 216.074 399.836C215.635 399.806 215.225 399.777 214.844 399.748C214.492 399.718 214.199 399.718 213.965 399.748C213.73 399.748 213.628 399.821 213.657 399.967C213.95 400.817 214.258 401.769 214.58 402.824C214.932 403.879 215.312 404.933 215.723 405.988C216.777 408.595 217.773 410.47 218.711 411.613C218.213 412.228 217.627 412.741 216.953 413.151C216.309 413.561 215.957 413.766 215.898 413.766C215.869 413.766 215.84 413.752 215.811 413.722L209.614 400.671L197.617 403.615L197.178 405.461C196.328 408.83 195.376 411.173 194.321 412.492C194.146 412.785 193.779 412.814 193.223 412.58C192.285 412.228 191.816 411.935 191.816 411.701C191.816 411.642 192.124 410.793 192.739 409.152C193.354 407.511 193.97 405.856 194.585 404.186C195.229 402.487 195.889 400.714 196.562 398.869C197.266 397.023 197.925 395.265 198.54 393.595C199.155 391.925 199.712 390.431 200.21 389.113C200.708 387.765 201.06 386.798 201.265 386.213C201.47 385.597 201.602 385.07 201.66 384.63C201.748 384.162 201.865 383.766 202.012 383.444C202.305 382.77 203.037 382.433 204.209 382.433C205.469 383.136 206.436 384.059 207.109 385.202C207.812 386.315 208.398 387.516 208.867 388.805C209.365 390.094 209.849 391.398 210.317 392.716C210.786 394.035 211.416 395.236 212.207 396.32C212.471 396.73 212.866 396.95 213.394 396.979C213.921 397.008 214.39 397.023 214.8 397.023ZM203.813 387.531C203.579 389.318 203.052 391.149 202.231 393.024C201.411 394.899 200.752 396.364 200.254 397.419C199.756 398.444 199.331 399.396 198.979 400.275C200.972 400.275 203.418 399.689 206.318 398.517C207.051 398.195 207.754 397.902 208.428 397.638C207.051 391.75 205.513 388.38 203.813 387.531ZM224.907 395.485C228.892 394.108 232.334 393.42 235.234 393.42C238.926 393.42 241.387 394.386 242.617 396.32C243.174 397.228 243.452 398.21 243.452 399.264C243.452 400.729 242.983 402.238 242.046 403.791C241.138 405.343 239.922 406.75 238.398 408.009C234.854 410.91 230.547 412.712 225.479 413.415C225.479 413.737 225.479 414.25 225.479 414.953C225.508 415.685 225.522 416.491 225.522 417.37C225.552 418.249 225.566 419.186 225.566 420.182C225.596 421.178 225.625 422.13 225.654 423.039C225.742 425.295 225.801 426.584 225.83 426.906C225.889 427.228 225.918 427.492 225.918 427.697C225.918 428.429 225.684 428.971 225.215 429.323C224.746 429.704 224.131 429.894 223.369 429.894C223.223 429.894 223.076 429.894 222.93 429.894L222.227 394.562C222.49 394.181 222.842 394.005 223.281 394.035C223.721 394.064 224.072 394.181 224.336 394.386C224.6 394.591 224.79 394.958 224.907 395.485ZM237.739 397.023C236.772 396.525 235.732 396.276 234.619 396.276C233.535 396.276 232.451 396.379 231.367 396.584C228.906 397.052 227.09 398.092 225.918 399.704C225.391 400.465 225.127 401.403 225.127 402.516C225.127 402.633 225.127 402.751 225.127 402.868V410.47C231.162 409.123 235.439 407.248 237.959 404.845C239.424 403.468 240.156 402.047 240.156 400.583C240.156 399.03 239.351 397.843 237.739 397.023ZM246.836 404.757C246.836 401.3 248.33 398.517 251.318 396.408C253.691 394.738 256.548 393.727 259.888 393.376C260.063 393.376 260.474 393.376 261.118 393.376C261.763 393.376 262.627 393.566 263.711 393.947C266.113 394.767 267.754 396.217 268.633 398.297C268.984 399.118 269.16 399.821 269.16 400.407C269.16 400.964 269.146 401.359 269.116 401.593C269.116 405.255 267.725 408.141 264.941 410.251C262.363 412.184 259.141 413.151 255.273 413.151C252.49 413.151 250.381 412.506 248.945 411.217C247.539 409.928 246.836 407.775 246.836 404.757ZM249.868 405.812C249.868 407.629 250.352 408.859 251.318 409.504C252.051 409.972 253.281 410.207 255.01 410.207C256.738 410.207 258.262 410.075 259.58 409.811C260.898 409.547 262.07 409.093 263.096 408.449C265.293 407.043 266.392 404.86 266.392 401.901C266.392 400.143 265.923 398.708 264.985 397.594C263.96 396.393 262.612 395.793 260.942 395.793C259.8 395.998 258.643 396.217 257.471 396.452C256.328 396.686 255.244 397.14 254.219 397.814C251.992 399.25 250.542 401.916 249.868 405.812ZM271.841 396.056C271.782 394.474 271.724 393.068 271.665 391.838C271.606 390.578 271.562 389.655 271.533 389.069C271.533 388.454 271.299 386.974 270.83 384.63C271.094 384.279 271.343 383.942 271.577 383.62C271.841 383.297 272.207 383.136 272.676 383.136C273.701 383.136 274.492 387.458 275.049 396.1C275.342 401.11 275.488 406.12 275.488 411.13C275.488 412.477 274.551 413.151 272.676 413.151L272.324 413.107C272.324 411.584 272.28 409.635 272.192 407.262C272.104 404.889 272.031 402.824 271.973 401.066C271.943 399.308 271.899 397.638 271.841 396.056ZM278.916 396.056C278.857 394.474 278.799 393.068 278.74 391.838C278.682 390.578 278.638 389.655 278.608 389.069C278.608 388.454 278.374 386.974 277.905 384.63C278.169 384.279 278.418 383.942 278.652 383.62C278.916 383.297 279.282 383.136 279.751 383.136C280.776 383.136 281.567 387.458 282.124 396.1C282.417 401.11 282.563 406.12 282.563 411.13C282.563 412.477 281.626 413.151 279.751 413.151L279.399 413.107C279.399 411.584 279.355 409.635 279.268 407.262C279.18 404.889 279.106 402.824 279.048 401.066C279.019 399.308 278.975 397.638 278.916 396.056ZM286.299 404.757C286.299 401.3 287.793 398.517 290.781 396.408C293.154 394.738 296.011 393.727 299.351 393.376C299.526 393.376 299.937 393.376 300.581 393.376C301.226 393.376 302.09 393.566 303.174 393.947C305.576 394.767 307.217 396.217 308.096 398.297C308.447 399.118 308.623 399.821 308.623 400.407C308.623 400.964 308.608 401.359 308.579 401.593C308.579 405.255 307.188 408.141 304.404 410.251C301.826 412.184 298.604 413.151 294.736 413.151C291.953 413.151 289.844 412.506 288.408 411.217C287.002 409.928 286.299 407.775 286.299 404.757ZM289.331 405.812C289.331 407.629 289.814 408.859 290.781 409.504C291.514 409.972 292.744 410.207 294.473 410.207C296.201 410.207 297.725 410.075 299.043 409.811C300.361 409.547 301.533 409.093 302.559 408.449C304.756 407.043 305.854 404.86 305.854 401.901C305.854 400.143 305.386 398.708 304.448 397.594C303.423 396.393 302.075 395.793 300.405 395.793C299.263 395.998 298.105 396.217 296.934 396.452C295.791 396.686 294.707 397.14 293.682 397.814C291.455 399.25 290.005 401.916 289.331 405.812Z" fill="#FC3F96"/>
<defs>
<linearGradient id="paint0_linear_63_204" x1="100" y1="60.1071" x2="400" y2="360.107" gradientUnits="userSpaceOnUse">
<stop stop-color="#4010AC"/>
<stop offset="1" stop-color="#D540A8"/>
</linearGradient>
<clipPath id="clip0_63_204">
<rect width="300" height="300" fill="white" transform="translate(100 60.1071)"/>
</clipPath>
</defs>
</svg>
