<svg width="500" height="500" viewBox="0 0 500 500" fill="none" xmlns="http://www.w3.org/2000/svg">
<circle cx="250" cy="250" r="250" fill="#675E7D"/>
<path d="M144.095 327.583L120.531 63.2756H379.469L355.881 327.543L249.843 356.94L144.095 327.583Z" fill="#1572B6"/>
<path d="M250.002 334.471L335.687 310.715L355.846 84.885H250.002V334.471Z" fill="#33A9DC"/>
<path d="M250.002 180.644H292.898L295.86 147.449H250.002V115.033H331.288L330.51 123.73L322.541 213.06H250.002V180.644Z" fill="white"/>
<path d="M250.194 264.831L250.052 264.873L213.951 255.126L211.642 229.272H179.106L183.646 280.171L250.047 298.6L250.194 298.558V264.831Z" fill="#EBEBEB"/>
<path d="M290.141 211.689L286.237 255.1L250.082 264.859V298.586L316.537 280.169L317.024 274.691L322.663 211.689H290.141Z" fill="white"/>
<path d="M250.112 115.033V147.449H171.812L171.163 140.165L169.687 123.73L168.911 115.033H250.112ZM250.002 180.648V213.065H214.356L213.707 205.78L212.228 189.346L211.455 180.648H250.002Z" fill="#EBEBEB"/>
<path d="M216.646 388.717C214.741 386.842 212.632 385.905 210.317 385.905C208.12 385.905 206.011 386.74 203.989 388.41C201.44 390.519 199.683 393.244 198.716 396.583C198.364 397.785 198.188 398.781 198.188 399.572C198.188 400.363 198.218 400.978 198.276 401.417C198.276 404.318 199.258 406.544 201.221 408.097C203.066 409.533 205.425 410.25 208.296 410.25C212.222 409.928 215.986 408.419 219.59 405.724C220.586 404.962 221.641 404.23 222.754 403.527C223.164 403.527 223.574 403.585 223.984 403.703C224.424 403.82 224.644 404.157 224.644 404.713C221.743 407.233 219.297 409.049 217.305 410.163C213.613 412.155 210.273 413.151 207.285 413.151C207.08 413.151 206.89 413.151 206.714 413.151C203.462 413.151 200.679 412.14 198.364 410.119C195.903 407.98 194.673 405.314 194.673 402.121C194.673 399.718 195.098 397.418 195.947 395.221C196.826 393.024 198.013 391.09 199.507 389.42C201.03 387.721 202.817 386.374 204.868 385.377C206.948 384.381 209.175 383.883 211.548 383.883C213.569 383.883 214.888 384.162 215.503 384.718C216.265 385.392 216.646 386.725 216.646 388.717ZM226.226 409.284C226.226 408.727 226.445 408.244 226.885 407.833C227.354 407.394 227.705 407.101 227.939 406.955C228.203 406.779 228.379 406.647 228.467 406.559C228.613 409.225 230.415 410.558 233.872 410.558C236.597 410.558 239.775 409.708 243.408 408.009C245.986 406.837 247.715 405.636 248.594 404.406C248.887 404.025 249.033 403.717 249.033 403.483C249.033 403.219 248.989 403.014 248.901 402.868L230.664 398.781C230.137 398.664 229.624 398.415 229.126 398.034C228.218 397.389 227.764 396.803 227.764 396.276C227.764 394.254 229.199 392.423 232.07 390.783C235.234 388.996 239.468 387.648 244.771 386.74C245.972 386.535 246.865 386.417 247.451 386.388C247.627 386.447 247.891 386.505 248.242 386.564C248.623 386.593 249.004 386.652 249.385 386.74C250.293 386.945 250.674 387.326 250.527 387.882C250.527 388.878 248.623 389.669 244.814 390.255C239.893 390.988 236.816 391.603 235.586 392.101C234.385 392.599 233.506 393.112 232.949 393.639C232.422 394.167 232.144 394.796 232.114 395.529C232.114 395.675 232.451 395.836 233.125 396.012C233.799 396.188 234.604 396.408 235.542 396.671C236.479 396.906 237.695 397.228 239.189 397.638C242.822 398.634 247.275 399.894 252.549 401.417C252.842 402.062 252.988 402.663 252.988 403.219C252.988 404.772 252.08 406.266 250.264 407.702C248.213 409.313 245.371 410.675 241.738 411.789C238.721 412.697 236.318 413.151 234.531 413.151C233.037 413.151 231.616 412.887 230.269 412.36C228.921 411.833 227.91 411.32 227.236 410.822C226.562 410.324 226.226 409.811 226.226 409.284ZM255.142 409.284C255.142 408.727 255.361 408.244 255.801 407.833C256.27 407.394 256.621 407.101 256.855 406.955C257.119 406.779 257.295 406.647 257.383 406.559C257.529 409.225 259.331 410.558 262.788 410.558C265.513 410.558 268.691 409.708 272.324 408.009C274.902 406.837 276.631 405.636 277.51 404.406C277.803 404.025 277.949 403.717 277.949 403.483C277.949 403.219 277.905 403.014 277.817 402.868L259.58 398.781C259.053 398.664 258.54 398.415 258.042 398.034C257.134 397.389 256.68 396.803 256.68 396.276C256.68 394.254 258.115 392.423 260.986 390.783C264.15 388.996 268.384 387.648 273.687 386.74C274.888 386.535 275.781 386.417 276.367 386.388C276.543 386.447 276.807 386.505 277.158 386.564C277.539 386.593 277.92 386.652 278.301 386.74C279.209 386.945 279.59 387.326 279.443 387.882C279.443 388.878 277.539 389.669 273.73 390.255C268.809 390.988 265.732 391.603 264.502 392.101C263.301 392.599 262.422 393.112 261.865 393.639C261.338 394.167 261.06 394.796 261.03 395.529C261.03 395.675 261.367 395.836 262.041 396.012C262.715 396.188 263.521 396.408 264.458 396.671C265.396 396.906 266.611 397.228 268.105 397.638C271.738 398.634 276.191 399.894 281.465 401.417C281.758 402.062 281.904 402.663 281.904 403.219C281.904 404.772 280.996 406.266 279.18 407.702C277.129 409.313 274.287 410.675 270.654 411.789C267.637 412.697 265.234 413.151 263.447 413.151C261.953 413.151 260.532 412.887 259.185 412.36C257.837 411.833 256.826 411.32 256.152 410.822C255.479 410.324 255.142 409.811 255.142 409.284ZM304.58 390.827C304.58 392.584 303.174 394.65 300.361 397.023C299.658 397.58 299.058 398.078 298.56 398.517C302.163 398.576 304.316 399.425 305.02 401.066C305.166 401.447 305.239 401.842 305.239 402.252C305.239 402.663 305.122 403.219 304.888 403.922C304.683 404.596 304.229 405.402 303.525 406.339C302.822 407.277 301.973 408.185 300.977 409.064C298.896 410.88 296.699 412.14 294.385 412.843C293.594 413.078 292.949 413.195 292.451 413.195C291.982 413.195 291.602 413.18 291.309 413.151C291.016 413.151 290.708 413.063 290.386 412.887C290.063 412.711 289.902 412.418 289.902 412.008C292.1 411.452 294.033 410.661 295.703 409.635C297.373 408.61 298.691 407.541 299.658 406.427C300.801 405.05 301.372 403.908 301.372 403C301.372 402.091 301.094 401.476 300.537 401.154C299.98 400.832 299.263 400.67 298.384 400.67C296.157 400.67 293.125 401.579 289.287 403.395L287.749 401.417C296.626 397.316 301.064 394.372 301.064 392.584C301.064 391.823 300.229 391.325 298.56 391.09C296.831 391.09 294.854 391.383 292.627 391.969C290.43 392.555 288.73 392.98 287.529 393.244C286.328 393.507 285.098 393.639 283.838 393.639C283.838 392.262 284.175 391.457 284.849 391.222C286.079 390.929 287.383 390.607 288.76 390.255C293.271 389.113 296.875 388.542 299.57 388.542C302.295 388.542 303.965 389.303 304.58 390.827Z" fill="#FC3F96"/>
</svg>
