<svg width="500" height="500" viewBox="0 0 500 500" fill="none" xmlns="http://www.w3.org/2000/svg">
<circle cx="250" cy="250" r="250" fill="#675E7D"/>
<g clip-path="url(#clip0_63_163)">
<path d="M329.688 60.1071H170.312C131.48 60.1071 100 91.587 100 130.42V289.795C100 328.627 131.48 360.107 170.312 360.107H329.688C368.52 360.107 400 328.627 400 289.795V130.42C400 91.587 368.52 60.1071 329.688 60.1071Z" fill="#F4F2ED"/>
<path d="M367.188 274.486C363.776 275.778 360.009 275.776 356.6 274.479C353.19 273.183 350.373 270.682 348.682 267.449C338.062 251.55 326.334 236.369 315.061 220.861L310.173 214.346C296.751 232.329 283.328 249.596 271.079 267.515C269.483 270.604 266.819 273.008 263.582 274.279C260.346 275.55 256.758 275.601 253.486 274.422L303.854 206.853L257.004 145.798C260.377 144.58 264.066 144.563 267.449 145.751C270.833 146.938 273.703 149.256 275.575 152.314C286.456 168.214 298.511 183.395 310.499 199.49C322.554 183.525 334.478 168.278 345.62 152.509C347.225 149.47 349.89 147.127 353.11 145.925C356.33 144.724 359.879 144.748 363.082 145.994L344.903 170.103C336.759 180.854 328.744 191.67 320.274 202.161C319.591 202.771 319.044 203.52 318.67 204.356C318.296 205.193 318.103 206.099 318.103 207.015C318.103 207.931 318.296 208.837 318.67 209.674C319.044 210.51 319.591 211.259 320.274 211.87C335.847 232.525 351.289 253.245 367.188 274.486ZM132.812 206.005C134.181 199.49 135.027 192.387 136.918 185.741C148.19 145.669 194.126 128.988 225.728 153.814C244.233 168.345 248.86 188.935 247.948 212.131H143.695C142 253.572 171.907 278.593 210.155 265.822C216.359 263.602 221.913 259.872 226.316 254.969C230.718 250.066 233.83 244.144 235.371 237.738C237.392 231.222 240.65 230.114 246.839 232.004C245.82 239.936 243.016 247.534 238.637 254.227C234.258 260.919 228.419 266.532 221.559 270.643C210.224 276.842 197.219 279.297 184.404 277.659C171.589 276.021 159.621 270.372 150.21 261.521C140.9 251.053 135.271 237.826 134.181 223.859C134.181 221.644 133.334 219.428 132.878 217.343C132.835 213.564 132.813 209.785 132.812 206.005ZM143.825 203.204H238.109C237.522 173.166 218.561 151.859 193.28 151.664C165.132 151.273 144.998 172.123 143.759 203.073L143.825 203.204Z" fill="#0F0F0F"/>
</g>
<path d="M163.45 385.202C166.379 385.202 168.328 385.392 169.294 385.773V387.926C168.503 388.044 167.419 388.117 166.042 388.146C164.666 388.146 163.201 388.161 161.648 388.19C157.312 388.278 154.353 388.498 152.771 388.849C152.273 391.193 152.039 392.79 152.068 393.639C152.097 394.489 152.126 395.148 152.156 395.617C152.273 396.759 152.332 398.107 152.332 399.66C154.324 399.66 156.594 399.484 159.143 399.132C161.721 398.781 163.713 398.532 165.12 398.385C166.526 398.21 167.976 398.122 169.47 398.122V400.539L152.639 402.648L152.903 409.855C155.803 409.855 158.762 409.723 161.78 409.46C164.827 409.167 167.126 408.962 168.679 408.844C170.261 408.698 171.931 408.625 173.689 408.625C173.689 409.211 173.513 409.767 173.162 410.295C172.458 411.232 171.829 411.51 171.272 411.13C166.116 411.686 161.501 412.126 157.429 412.448C153.386 412.77 150.662 412.99 149.255 413.107L149.431 385.07C150.193 385.304 151.599 385.422 153.65 385.422L163.45 385.202ZM175.71 411.789C177.146 410.353 178.596 408.713 180.061 406.867C181.526 405.021 182.419 403.791 182.742 403.175L179.05 399.132C178.582 398.634 178.127 398.136 177.688 397.638C177.249 397.14 176.853 396.701 176.501 396.32C176.15 395.939 175.872 395.617 175.667 395.353L175.359 395.002L177.908 392.277C179.226 393.888 180.193 395.119 180.808 395.968C181.453 396.789 181.965 397.448 182.346 397.946C182.991 398.766 183.928 399.777 185.159 400.978C185.569 400.392 186.301 399.338 187.356 397.814C189.114 395.207 190.52 393.273 191.575 392.013C192.249 392.013 192.791 392.248 193.201 392.716C193.611 393.185 193.816 393.625 193.816 394.035C193.054 395.675 191.956 397.404 190.52 399.22C189.993 399.865 189.509 400.495 189.07 401.11C188.63 401.696 188.279 402.34 188.015 403.044C189.802 404.303 191.941 406.442 194.431 409.46C194.988 410.133 195.383 410.646 195.618 410.998C195.618 411.203 195.457 411.51 195.134 411.921C194.636 412.624 194.197 413.063 193.816 413.239C193.259 412.975 192.673 412.506 192.058 411.833C191.472 411.13 190.842 410.368 190.168 409.547C189.495 408.727 188.792 407.907 188.059 407.087C187.356 406.266 186.609 405.592 185.818 405.065C185.144 405.827 184.207 406.925 183.005 408.361C180.808 410.998 179.343 412.58 178.611 413.107C178.054 413.224 177.263 412.961 176.238 412.316C175.974 412.17 175.798 411.994 175.71 411.789ZM201.155 395.485C205.139 394.108 208.582 393.42 211.482 393.42C215.173 393.42 217.634 394.386 218.865 396.32C219.421 397.228 219.7 398.21 219.7 399.264C219.7 400.729 219.231 402.238 218.293 403.791C217.385 405.343 216.169 406.75 214.646 408.009C211.101 410.91 206.794 412.712 201.726 413.415C201.726 413.737 201.726 414.25 201.726 414.953C201.755 415.685 201.77 416.491 201.77 417.37C201.799 418.249 201.814 419.186 201.814 420.182C201.843 421.178 201.873 422.13 201.902 423.039C201.99 425.295 202.048 426.584 202.078 426.906C202.136 427.228 202.166 427.492 202.166 427.697C202.166 428.429 201.931 428.971 201.462 429.323C200.994 429.704 200.378 429.894 199.617 429.894C199.47 429.894 199.324 429.894 199.177 429.894L198.474 394.562C198.738 394.181 199.089 394.005 199.529 394.035C199.968 394.064 200.32 394.181 200.583 394.386C200.847 394.591 201.038 394.958 201.155 395.485ZM213.987 397.023C213.02 396.525 211.98 396.276 210.867 396.276C209.783 396.276 208.699 396.379 207.615 396.584C205.154 397.052 203.337 398.092 202.166 399.704C201.638 400.465 201.375 401.403 201.375 402.516C201.375 402.633 201.375 402.751 201.375 402.868V410.47C207.41 409.123 211.687 407.248 214.207 404.845C215.671 403.468 216.404 402.047 216.404 400.583C216.404 399.03 215.598 397.843 213.987 397.023ZM243.562 397.067C242.332 396.188 240.75 395.749 238.816 395.749C237 395.749 235.315 396.086 233.762 396.759C230.833 397.99 228.826 399.572 227.742 401.505C227.273 402.384 227.039 403.322 227.039 404.318C227.039 404.494 227.039 404.992 227.039 405.812C227.039 406.603 227.185 407.687 227.478 409.064C227.771 410.412 227.917 411.789 227.917 413.195C227.302 413.224 226.804 413.297 226.423 413.415C226.042 413.532 225.72 413.59 225.457 413.59C225.193 413.59 224.958 413.473 224.753 413.239C224.578 413.005 224.373 412.55 224.138 411.877C224.109 411.701 224.05 411.203 223.962 410.382C223.875 409.562 223.757 408.566 223.611 407.394C223.494 406.222 223.347 404.948 223.171 403.571C223.025 402.165 222.878 400.788 222.732 399.44C222.41 396.51 222.161 394.357 221.985 392.98C221.985 392.277 222.498 391.925 223.523 391.925C224.138 391.925 224.622 392.189 224.973 392.716C225.325 393.214 225.603 393.8 225.808 394.474C226.013 395.119 226.145 395.763 226.204 396.408C226.292 397.052 226.365 397.506 226.423 397.77C230.291 394.313 235.095 392.585 240.837 392.585C241.482 392.585 242.156 392.599 242.859 392.629C243.035 392.599 243.254 392.585 243.518 392.585C243.782 392.585 244.045 392.76 244.309 393.112C244.631 393.522 244.792 394.02 244.792 394.606C244.792 396.071 244.382 396.891 243.562 397.067ZM255.779 410.031C258.357 410.031 262.239 408.859 267.424 406.515C267.747 406.515 268.01 406.632 268.215 406.867C268.42 407.072 268.523 407.321 268.523 407.614C267.351 409.606 265.11 411.159 261.799 412.272C258.489 413.385 255.398 413.576 252.527 412.843C249.275 411.994 247.297 410.163 246.594 407.35C246.536 406.794 246.506 406.047 246.506 405.109C246.506 404.172 246.741 402.941 247.209 401.418C247.708 399.865 248.542 398.4 249.714 397.023C250.886 395.646 252.263 394.562 253.845 393.771C255.427 392.98 257.112 392.585 258.899 392.585C260.598 392.585 262.502 393.171 264.612 394.342C265.608 394.899 266.399 395.529 266.985 396.232C267.571 396.935 267.864 397.653 267.864 398.385C267.864 398.59 267.849 398.796 267.82 399.001C267.761 400.788 266.897 401.916 265.227 402.384C264.495 402.589 263.645 402.692 262.678 402.692L256.35 402.428C254.241 402.428 252.629 402.882 251.516 403.791C250.872 404.289 250.417 405.036 250.154 406.032C250.886 408.698 252.761 410.031 255.779 410.031ZM263.601 396.452C262.957 395.983 262.283 395.646 261.58 395.441C260.876 395.236 260.291 395.133 259.822 395.133C259.353 395.133 258.591 395.295 257.537 395.617C256.482 395.91 255.544 396.247 254.724 396.628C252.703 397.565 251.692 398.547 251.692 399.572C254.036 399.777 255.793 399.88 256.965 399.88C260.217 399.88 262.415 399.601 263.557 399.045C264.26 398.752 264.612 398.385 264.612 397.946C264.612 397.419 264.275 396.921 263.601 396.452ZM286.189 401.769C289.412 401.769 291.023 402.589 291.023 404.23C291.023 405.461 290.129 406.896 288.342 408.537C285.676 410.968 282.087 412.917 277.576 414.381C277.371 414.381 277.136 414.176 276.873 413.766C276.638 413.356 276.448 413.048 276.301 412.843C276.184 412.609 276.096 412.463 276.038 412.404C279.407 411.291 282.175 409.943 284.343 408.361C285.808 407.306 286.541 406.442 286.541 405.768C286.541 405.094 285.676 404.757 283.948 404.757C282.219 404.757 279.685 405.168 276.345 405.988C274.822 405.929 273.503 405.387 272.39 404.362C271.423 403.454 270.94 402.546 270.94 401.637C270.94 400.7 271.204 399.85 271.731 399.089C272.258 398.297 272.961 397.565 273.84 396.891C274.719 396.217 275.745 395.602 276.917 395.046C279.788 393.669 282.761 392.98 285.837 392.98C286.746 392.98 287.625 393.068 288.474 393.244C289.177 393.244 289.587 393.551 289.705 394.167C289.822 394.782 289.88 395.793 289.88 397.199C288.152 396.408 286.204 396.012 284.036 396.012C281.34 396.012 279.114 396.554 277.356 397.638C275.54 398.693 274.602 400.07 274.543 401.769C274.543 402.589 275.144 403 276.345 403L279.553 402.648C282.307 402.062 284.519 401.769 286.189 401.769ZM308.777 401.769C312 401.769 313.611 402.589 313.611 404.23C313.611 405.461 312.717 406.896 310.93 408.537C308.264 410.968 304.675 412.917 300.164 414.381C299.958 414.381 299.724 414.176 299.46 413.766C299.226 413.356 299.036 413.048 298.889 412.843C298.772 412.609 298.684 412.463 298.625 412.404C301.995 411.291 304.763 409.943 306.931 408.361C308.396 407.306 309.128 406.442 309.128 405.768C309.128 405.094 308.264 404.757 306.536 404.757C304.807 404.757 302.273 405.168 298.933 405.988C297.41 405.929 296.091 405.387 294.978 404.362C294.011 403.454 293.528 402.546 293.528 401.637C293.528 400.7 293.792 399.85 294.319 399.089C294.846 398.297 295.549 397.565 296.428 396.891C297.307 396.217 298.333 395.602 299.504 395.046C302.375 393.669 305.349 392.98 308.425 392.98C309.333 392.98 310.212 393.068 311.062 393.244C311.765 393.244 312.175 393.551 312.292 394.167C312.41 394.782 312.468 395.793 312.468 397.199C310.74 396.408 308.792 396.012 306.624 396.012C303.928 396.012 301.702 396.554 299.944 397.638C298.127 398.693 297.19 400.07 297.131 401.769C297.131 402.589 297.732 403 298.933 403L302.141 402.648C304.895 402.062 307.107 401.769 308.777 401.769ZM317.17 413.151C316.497 413.092 316.16 412.799 316.16 412.272C316.16 411.628 316.526 411.027 317.258 410.47C317.551 410.265 317.771 410.163 317.917 410.163C318.093 410.163 318.225 410.177 318.313 410.207C318.928 410.207 319.338 410.339 319.543 410.602C319.778 410.837 319.895 411.159 319.895 411.569C319.895 411.979 319.807 412.287 319.631 412.492C319.456 412.697 319.236 412.843 318.972 412.931C318.533 413.078 317.932 413.151 317.17 413.151ZM329.08 421.896C329.08 426.789 327.791 429.235 325.212 429.235C324.949 429.235 324.612 429.22 324.202 429.191C323.821 429.191 323.235 429.132 322.444 429.015C321.682 428.927 320.906 428.752 320.115 428.488C318.21 427.843 316.995 426.906 316.467 425.675C316.467 425.588 316.541 425.382 316.687 425.06C316.951 424.474 317.083 424.137 317.083 424.049C318.049 424.782 319.089 425.47 320.203 426.115C321.316 426.759 322.502 427.082 323.762 427.082C324.612 427.082 325.286 426.466 325.784 425.236C326.252 424.181 326.487 423.127 326.487 422.072C326.487 419.23 326.282 415.539 325.872 410.998C325.286 404.172 324.993 399.836 324.993 397.99C324.993 396.115 325.022 394.591 325.081 393.42C324.993 392.716 325.315 392.189 326.047 391.838C326.604 391.574 327.219 391.442 327.893 391.442C327.629 393.258 327.498 394.694 327.498 395.749C327.498 396.803 327.498 397.902 327.498 399.045C327.527 400.158 327.615 401.798 327.761 403.966C327.937 406.134 328.127 408.302 328.333 410.47C328.831 415.187 329.08 418.996 329.08 421.896ZM326.311 382.038C326.78 382.36 327.014 382.873 327.014 383.576C327.014 384.279 326.75 384.704 326.223 384.85C326.194 384.85 326.077 384.85 325.872 384.85C325.696 384.85 325.388 384.66 324.949 384.279C324.949 383.341 325.168 382.668 325.608 382.257C325.784 382.111 326.018 382.038 326.311 382.038ZM345.691 401.769C348.914 401.769 350.525 402.589 350.525 404.23C350.525 405.461 349.631 406.896 347.844 408.537C345.178 410.968 341.589 412.917 337.078 414.381C336.873 414.381 336.638 414.176 336.375 413.766C336.14 413.356 335.95 413.048 335.803 412.843C335.686 412.609 335.598 412.463 335.54 412.404C338.909 411.291 341.677 409.943 343.845 408.361C345.31 407.306 346.042 406.442 346.042 405.768C346.042 405.094 345.178 404.757 343.45 404.757C341.721 404.757 339.187 405.168 335.847 405.988C334.324 405.929 333.005 405.387 331.892 404.362C330.925 403.454 330.442 402.546 330.442 401.637C330.442 400.7 330.706 399.85 331.233 399.089C331.76 398.297 332.463 397.565 333.342 396.891C334.221 396.217 335.247 395.602 336.418 395.046C339.29 393.669 342.263 392.98 345.339 392.98C346.248 392.98 347.126 393.068 347.976 393.244C348.679 393.244 349.089 393.551 349.207 394.167C349.324 394.782 349.382 395.793 349.382 397.199C347.654 396.408 345.706 396.012 343.538 396.012C340.842 396.012 338.616 396.554 336.858 397.638C335.042 398.693 334.104 400.07 334.045 401.769C334.045 402.589 334.646 403 335.847 403L339.055 402.648C341.809 402.062 344.021 401.769 345.691 401.769Z" fill="#FC3F96"/>
<defs>
<clipPath id="clip0_63_163">
<rect width="300" height="300" fill="white" transform="translate(100 60.1071)"/>
</clipPath>
</defs>
</svg>
