<svg width="500" height="500" viewBox="0 0 500 500" fill="none" xmlns="http://www.w3.org/2000/svg">
<circle cx="250" cy="250" r="250" fill="#675E7D"/>
<g clip-path="url(#clip0_70_498)">
<path d="M206.641 362.451C234.531 362.451 257.031 339.951 257.031 312.06V261.669H206.641C178.75 261.669 156.25 284.169 156.25 312.06C156.25 339.951 178.75 362.451 206.641 362.451Z" fill="#0ACF83"/>
<path d="M156.25 211.279C156.25 183.388 178.75 160.888 206.641 160.888H257.031V261.669H206.641C178.75 261.669 156.25 239.169 156.25 211.279Z" fill="#A259FF"/>
<path d="M156.25 110.498C156.25 82.6069 178.75 60.1069 206.641 60.1069H257.031V160.888H206.641C178.75 160.888 156.25 138.388 156.25 110.498Z" fill="#F24E1E"/>
<path d="M257.031 60.1069H307.422C335.312 60.1069 357.812 82.6069 357.812 110.498C357.812 138.388 335.312 160.888 307.422 160.888H257.031V60.1069Z" fill="#FF7262"/>
<path d="M357.812 211.279C357.812 239.169 335.312 261.669 307.422 261.669C279.531 261.669 257.031 239.169 257.031 211.279C257.031 183.388 279.531 160.888 307.422 160.888C335.312 160.888 357.812 183.388 357.812 211.279Z" fill="#1ABCFE"/>
</g>
<path d="M194.585 405.812C192.944 405.578 192.124 405.197 192.124 404.669C192.124 404.289 192.402 403.849 192.959 403.351C193.516 402.853 194.072 402.34 194.629 401.813C194.629 400.055 194.365 398.092 193.838 395.924C193.311 393.727 192.93 392.028 192.695 390.827C192.461 389.625 192.344 388.527 192.344 387.531C192.344 386.535 192.49 385.905 192.783 385.641C193.105 385.377 193.56 385.246 194.146 385.246C194.731 385.246 195.112 385.333 195.288 385.509C195.464 385.656 195.581 385.846 195.64 386.081C195.698 386.315 195.728 386.564 195.728 386.828C195.757 387.091 195.815 387.34 195.903 387.575C196.05 388.131 196.504 388.41 197.266 388.41C199.229 388.38 201.191 388.219 203.154 387.926C205.117 387.604 207.065 387.282 208.999 386.959C212.866 386.315 215.576 385.993 217.129 385.993C218.711 385.993 219.956 386.037 220.864 386.125C220.894 386.681 220.952 387.165 221.04 387.575C221.128 387.985 221.172 388.322 221.172 388.585C221.172 389.083 220.688 389.259 219.722 389.113C204.399 389.669 196.738 390.812 196.738 392.541C196.738 394.445 196.87 396.085 197.134 397.462C197.397 398.81 197.588 399.66 197.705 400.011C197.852 400.363 198.013 400.539 198.188 400.539C199.858 400.539 201.543 400.392 203.242 400.099C204.971 399.806 206.685 399.499 208.384 399.176C210.112 398.825 211.841 398.502 213.569 398.209C215.298 397.917 216.997 397.77 218.667 397.77C218.696 397.77 218.711 397.887 218.711 398.122C218.711 398.327 218.696 398.561 218.667 398.825C218.579 399.528 218.579 399.879 218.667 399.879C217.407 400.583 215.122 401.154 211.812 401.593C210.376 401.798 208.911 401.989 207.417 402.165C205.923 402.34 204.546 402.531 203.286 402.736C200.386 403.146 198.701 403.688 198.232 404.362L197.749 412.975C197.427 413.297 197.061 413.458 196.65 413.458L195.024 413.327C194.878 413.327 194.731 413.327 194.585 413.327V405.812ZM226.753 392.453C227.134 397.931 227.456 404.274 227.72 411.481C227.544 412.389 226.841 412.843 225.61 412.843C225.288 412.843 224.951 412.785 224.6 412.667C224.277 412.521 224.072 412.331 223.984 412.096V392.453H226.753ZM222.666 386.476C222.666 385.451 223.267 384.938 224.468 384.938C225.259 384.938 225.903 385.114 226.401 385.465C226.489 385.788 226.533 386.11 226.533 386.432C226.533 386.725 226.416 387.018 226.182 387.311C225.947 387.604 225.596 387.75 225.127 387.75C224.658 387.75 224.189 387.648 223.721 387.443C223.252 387.208 222.9 386.886 222.666 386.476ZM242.31 431.916L241.694 431.872C240.815 431.872 239.878 431.93 238.882 432.047H237.212C235.454 432.047 234.077 431.71 233.081 431.037C232.554 430.685 232.29 430.158 232.29 429.455L242.397 428.971C245.503 428.883 247.056 427.213 247.056 423.961C247.056 423.844 247.056 423.639 247.056 423.346C247.056 423.083 247.056 422.482 247.056 421.544L247.275 407.394C247.275 406.896 247.261 406.486 247.231 406.164C242.485 410.587 237.915 412.799 233.521 412.799C233.14 412.799 232.759 412.785 232.378 412.755C230.415 412.755 229.434 411.891 229.434 410.163C229.492 408.815 229.888 407.335 230.62 405.724C231.353 404.083 232.29 402.516 233.433 401.022C234.604 399.499 235.923 398.136 237.388 396.935C239.644 395.089 241.826 394.167 243.936 394.167C246.396 394.167 248.418 395.47 250 398.078C250.469 405.05 250.703 410.001 250.703 412.931C250.703 415.861 250.659 418.263 250.571 420.138C250.483 422.013 250.278 423.727 249.956 425.28C249.663 426.833 249.268 428.063 248.77 428.971C248.271 429.879 247.686 430.539 247.012 430.949C245.898 431.593 244.331 431.916 242.31 431.916ZM244.946 397.375C244.595 397.257 244.097 397.199 243.452 397.199C242.837 397.199 242.031 397.462 241.035 397.99C240.039 398.517 239.087 399.206 238.179 400.055C237.271 400.875 236.421 401.798 235.63 402.824C233.696 405.343 232.729 407.35 232.729 408.844C232.729 409.313 232.861 409.665 233.125 409.899C233.33 410.016 233.579 410.075 233.872 410.075C234.194 410.075 234.648 410.031 235.234 409.943C235.82 409.826 236.611 409.562 237.607 409.152C238.633 408.712 239.688 408.156 240.771 407.482C241.855 406.808 242.837 406.061 243.716 405.241C245.767 403.366 246.792 401.535 246.792 399.748C246.792 398.664 246.177 397.873 244.946 397.375ZM256.46 412.404C255.259 412.902 254.453 413.151 254.043 413.151C253.662 413.151 253.398 413.107 253.252 413.019C253.105 412.931 252.944 412.726 252.769 412.404C252.769 411.437 252.798 410.221 252.856 408.756C252.944 407.292 253.018 405.724 253.076 404.054C253.135 402.384 253.164 400.7 253.164 399C253.164 397.301 253.076 395.749 252.9 394.342C252.9 393.405 253.53 392.936 254.79 392.936C255.083 392.936 255.303 393.463 255.449 394.518C255.625 395.573 255.742 396.393 255.801 396.979C255.889 397.565 255.962 397.99 256.021 398.253C256.782 396.876 258.291 395.792 260.547 395.001C261.748 394.621 262.876 394.43 263.931 394.43C264.985 394.43 265.908 394.562 266.699 394.826C267.52 395.06 268.208 395.514 268.765 396.188C269.351 396.833 269.644 397.697 269.644 398.781C270.405 397.345 272.119 396.056 274.785 394.914C277.217 393.83 279.399 393.288 281.333 393.288C284.116 393.288 285.479 394.342 285.42 396.452L286.343 412.799C286.343 412.946 285.918 413.048 285.068 413.107C283.428 413.224 282.607 413.078 282.607 412.667C282.578 412.082 282.563 411.496 282.563 410.91L282.783 403.834C282.783 400.524 282.461 397.902 281.816 395.968C279.883 396.115 278.389 396.437 277.334 396.935C276.309 397.404 275.4 398.004 274.609 398.737C273.818 399.44 273.115 400.392 272.5 401.593C271.123 404.289 270.435 407.863 270.435 412.316C270.259 412.931 269.688 413.239 268.721 413.239C268.076 413.239 267.549 413.136 267.139 412.931C266.729 412.697 266.567 412.492 266.655 412.316C267.212 409.21 267.49 406.793 267.49 405.065C267.49 403.688 267.344 402.384 267.051 401.154C266.787 399.894 266.45 398.458 266.04 396.847C261.821 396.847 258.979 398.532 257.515 401.901C256.87 403.395 256.504 404.801 256.416 406.12C256.357 407.409 256.328 408.522 256.328 409.459C256.328 410.368 256.372 411.349 256.46 412.404ZM305.107 405.812C302.91 409.269 299.98 411.408 296.318 412.228C295.469 412.404 294.692 412.492 293.989 412.492C293.315 412.492 292.744 412.492 292.275 412.492C291.836 412.462 291.338 412.389 290.781 412.272C290.225 412.155 289.712 411.964 289.243 411.701C288.159 411.085 287.617 410.221 287.617 409.108C287.5 408.581 287.441 407.995 287.441 407.35C287.441 406.676 287.588 405.797 287.881 404.713C288.174 403.629 288.701 402.458 289.463 401.198C290.254 399.938 291.206 398.781 292.319 397.726C294.634 395.5 297.139 394.064 299.834 393.419C300.625 393.244 301.343 393.156 301.987 393.156C302.661 393.156 303.262 393.2 303.789 393.288C305.488 393.288 306.631 394.445 307.217 396.759C307.598 398.224 307.817 400.275 307.876 402.912C307.964 405.519 308.037 407.541 308.096 408.976C308.184 410.382 308.374 411.671 308.667 412.843H306.074C305.957 412.052 305.869 411.349 305.811 410.734C305.752 410.119 305.693 409.547 305.635 409.02C305.488 407.79 305.312 406.72 305.107 405.812ZM304.932 399C304.932 397.301 304.097 396.452 302.427 396.452C302.222 396.422 302.017 396.408 301.812 396.408C299.673 396.408 297.417 397.433 295.044 399.484C293.931 400.421 292.979 401.476 292.188 402.648C291.016 404.318 290.43 405.812 290.43 407.13C290.43 408.859 291.426 409.884 293.418 410.207C296.055 410.148 298.574 408.947 300.977 406.603C302.002 405.578 302.852 404.464 303.525 403.263C304.463 401.652 304.932 400.231 304.932 399Z" fill="#FC3F96"/>
<defs>
<clipPath id="clip0_70_498">
<rect width="300" height="300" fill="white" transform="translate(100 60.1069)"/>
</clipPath>
</defs>
</svg>
