<svg width="500" height="500" viewBox="0 0 500 500" fill="none" xmlns="http://www.w3.org/2000/svg">
<circle cx="250" cy="250" r="250" fill="#675E7D"/>
<path d="M250 88.1943C220.318 88.1937 191.604 98.7554 168.997 117.989C146.39 137.223 131.365 163.875 126.611 193.173C121.857 222.472 127.684 252.507 143.049 277.902C158.415 303.298 182.315 322.397 210.475 331.782C216.725 332.882 219.062 329.132 219.062 325.844C219.062 322.882 218.912 313.032 218.912 302.569C187.5 308.344 179.375 294.907 176.875 287.882C174.102 281.041 169.704 274.979 164.062 270.219C159.687 267.882 153.437 262.094 163.9 261.944C167.898 262.377 171.734 263.768 175.08 265.998C178.427 268.228 181.187 271.233 183.125 274.757C184.834 277.828 187.132 280.531 189.888 282.712C192.644 284.894 195.803 286.509 199.185 287.467C202.566 288.425 206.103 288.707 209.594 288.295C213.084 287.884 216.459 286.787 219.525 285.069C220.066 278.711 222.901 272.767 227.5 268.344C199.687 265.219 170.625 254.444 170.625 206.632C170.448 194.207 175.032 182.184 183.437 173.032C179.616 162.235 180.063 150.385 184.687 139.907C184.687 139.907 195.15 136.632 219.062 152.719C239.516 147.094 261.109 147.094 281.562 152.719C305.462 136.469 315.937 139.907 315.937 139.907C320.563 150.385 321.01 162.235 317.187 173.032C325.618 182.169 330.206 194.201 330 206.632C330 254.594 300.775 265.219 272.975 268.344C275.956 271.369 278.251 275 279.705 278.99C281.159 282.98 281.737 287.236 281.4 291.469C281.4 308.194 281.25 321.632 281.25 325.844C281.25 329.132 283.587 333.032 289.837 331.782C317.945 322.318 341.775 303.174 357.073 277.766C372.371 252.358 378.141 222.341 373.355 193.072C368.568 163.803 353.535 137.187 330.94 117.977C308.345 98.766 279.658 88.2105 250 88.1943Z" fill="black"/>
<path d="M136.16 415.26V407.218C133.376 409.123 131.443 410.382 130.359 410.998C127.839 412.375 125.627 413.063 123.723 413.063C121.438 413.063 119.475 412.228 117.834 410.558C116.165 408.83 115.33 406.852 115.33 404.625C115.476 402.282 115.974 399.909 116.824 397.506C118.582 392.409 121.497 388.673 125.569 386.3C127.59 385.099 129.919 384.499 132.556 384.499C132.615 384.499 132.673 384.499 132.732 384.499L133.918 384.455C135.266 384.455 135.881 384.982 135.764 386.037C133.42 386.154 131.223 386.696 129.172 387.663C127.122 388.629 125.334 389.933 123.811 391.574C122.317 393.185 121.13 395.075 120.251 397.243C119.402 399.411 118.977 401.623 118.977 403.878C118.977 406.134 119.563 407.76 120.735 408.756C121.907 409.752 123.416 410.25 125.261 410.25C126.843 410.25 129.041 409.562 131.853 408.185C133.64 407.306 134.973 406.31 135.852 405.197C136.292 404.669 136.511 404.113 136.511 403.527V397.023C135.632 397.023 133.582 397.36 130.359 398.034C127.166 398.708 125.32 399.088 124.822 399.176C124.675 399.088 124.5 399 124.294 398.913C124.089 398.795 123.972 398.634 123.943 398.429C123.884 397.99 124.529 397.316 125.876 396.408C126.199 396.232 128.132 395.895 131.677 395.397C135.222 394.87 137.478 394.533 138.445 394.386C139.412 394.24 140.217 394.123 140.862 394.035C141.155 394.093 141.521 394.093 141.96 394.035C142.4 393.947 142.81 393.917 143.191 393.947C144.128 393.976 144.568 394.489 144.509 395.485L140.862 396.979C140.305 398.766 140.027 402.135 140.027 407.086L140.115 413.634C140.115 414.22 140.115 414.762 140.115 415.26C139.236 415.7 138.386 415.919 137.566 415.919C136.746 415.919 136.277 415.7 136.16 415.26ZM150.662 392.453C151.042 397.931 151.365 404.274 151.628 411.481C151.453 412.389 150.75 412.843 149.519 412.843C149.197 412.843 148.86 412.785 148.508 412.667C148.186 412.521 147.981 412.331 147.893 412.096V392.453H150.662ZM146.575 386.476C146.575 385.451 147.175 384.938 148.376 384.938C149.167 384.938 149.812 385.114 150.31 385.465C150.398 385.788 150.442 386.11 150.442 386.432C150.442 386.725 150.325 387.018 150.09 387.311C149.856 387.604 149.504 387.75 149.036 387.75C148.567 387.75 148.098 387.648 147.629 387.443C147.161 387.208 146.809 386.886 146.575 386.476ZM160.154 408.888L160.242 401.857C160.242 400.744 160.139 399.792 159.934 399H153.123L153.035 395.968H159.626V384.63C159.714 384.367 159.89 384.103 160.154 383.839C160.564 383.429 160.901 383.224 161.165 383.224C161.458 383.224 161.707 383.253 161.912 383.312C162.117 383.371 162.336 383.576 162.571 383.927C163.04 385.861 163.274 388.776 163.274 392.672C163.274 393.639 163.318 394.591 163.406 395.529C164.343 395.412 165.281 395.353 166.218 395.353C166.218 395.353 166.98 395.353 168.503 395.353C169.06 395.353 169.573 395.324 170.042 395.265L169.91 398.429L163.494 398.253L163.713 413.415C163.186 413.649 162.732 413.766 162.351 413.766C160.886 413.766 160.154 412.14 160.154 408.888ZM177.336 400.714C177.249 401.71 177.205 403.131 177.205 404.977C177.205 406.793 177.483 409.005 178.04 411.613L174.568 413.371L172.986 401.417C171.96 401.271 171.448 400.919 171.448 400.363C171.448 399.953 171.682 399.469 172.151 398.913C172.649 398.356 173.015 397.902 173.25 397.55C173.484 397.169 173.616 396.759 173.645 396.32C173.704 395.851 173.777 395.031 173.865 393.859C173.953 392.687 174.026 391.442 174.084 390.124C174.172 388.805 174.246 387.56 174.304 386.388C174.392 385.216 174.436 384.396 174.436 383.927C175.081 383.283 175.549 382.887 175.842 382.741C176.575 382.36 177.073 382.506 177.336 383.18L177.073 397.023C184.309 397.023 188.66 396.554 190.125 395.617V381.73C190.3 381.232 191.121 380.983 192.585 380.983C192.908 380.983 193.171 380.998 193.376 381.027C193.376 381.583 193.391 382.433 193.42 383.576C193.479 384.689 193.523 385.963 193.552 387.399C193.611 388.834 193.669 390.358 193.728 391.969C193.787 393.551 193.845 395.06 193.904 396.496C193.992 399.484 194.065 401.681 194.124 403.087C194.329 406.603 195.046 409.445 196.277 411.613C194.958 412.14 193.508 412.404 191.926 412.404C190.579 409.064 189.861 404.684 189.773 399.264C187.839 399.206 186.521 399.176 185.818 399.176C185.115 399.176 184.324 399.22 183.445 399.308C181.628 399.425 179.592 399.894 177.336 400.714ZM198.738 407.262C198.738 406.793 198.694 406.149 198.606 405.329C198.547 404.479 198.489 403.556 198.43 402.56C198.372 401.564 198.342 400.553 198.342 399.528C198.342 398.502 198.43 397.565 198.606 396.715C198.987 394.811 199.778 393.859 200.979 393.859C201.799 394.093 202.341 394.386 202.605 394.738C202.898 395.089 203.044 395.529 203.044 396.056C203.044 396.554 202.913 397.184 202.649 397.946C201.682 400.495 201.199 402.794 201.199 404.845C201.199 405.519 201.243 406.237 201.331 406.999C201.799 408.961 203.411 409.943 206.165 409.943C207.6 409.943 208.962 409.694 210.251 409.196C212.712 408.288 214.382 407.218 215.261 405.988C215.525 404.64 215.657 403.468 215.657 402.472C215.657 401.447 215.613 400.539 215.525 399.748C215.466 398.957 215.378 398.092 215.261 397.155C215.173 396.188 215.115 395.133 215.085 393.991C215.466 393.815 215.833 393.727 216.184 393.727C216.565 393.727 216.946 393.917 217.327 394.298C217.737 394.679 218.074 395.397 218.337 396.452C218.63 397.506 218.821 398.751 218.909 400.187C218.997 401.593 219.041 403.058 219.041 404.582C219.07 406.105 219.084 407.584 219.084 409.02C219.084 410.426 219.143 411.642 219.26 412.667C218.909 412.99 218.572 413.151 218.25 413.151C217.078 413.151 216.213 411.979 215.657 409.635C215.276 409.958 214.631 410.353 213.723 410.822C211.79 411.876 209.504 412.58 206.868 412.931C206.37 412.99 205.813 413.019 205.198 413.019C204.583 413.019 203.806 412.902 202.869 412.667C201.96 412.433 201.096 411.891 200.276 411.042C199.456 410.192 198.943 408.932 198.738 407.262ZM222.073 387.619L221.941 381.95C221.941 381.481 222.102 381.115 222.424 380.851C222.747 380.587 223.142 380.456 223.611 380.456C224.08 380.456 224.504 380.587 224.885 380.851C225.266 381.085 225.413 381.422 225.325 381.862L225.632 400.846C227.478 398.385 229.968 396.32 233.103 394.65C235.71 393.244 237.996 392.541 239.958 392.541C241.687 392.541 243.02 393.097 243.958 394.21C244.661 395.089 245.012 396.261 245.012 397.726C245.012 399.162 244.734 400.421 244.177 401.505C243.65 402.56 242.947 403.585 242.068 404.582C241.189 405.548 240.178 406.457 239.036 407.306C237.893 408.156 236.736 408.917 235.564 409.591C233.337 410.88 231.14 411.95 228.972 412.799C228.796 412.741 228.503 412.726 228.093 412.755C227.683 412.785 227.185 412.799 226.599 412.799C225.017 412.799 223.625 412.609 222.424 412.228C222.131 409.445 221.985 405.211 221.985 399.528L222.073 387.619ZM225.764 409.196C225.764 409.518 226.057 409.679 226.643 409.679C227.258 409.679 228.005 409.562 228.884 409.328C229.763 409.093 230.818 408.698 232.048 408.141C233.308 407.555 234.568 406.808 235.828 405.9C238.757 403.82 240.969 401.374 242.463 398.561C242.083 396.891 240.94 396.056 239.036 396.056C237.307 396.056 235.359 396.701 233.191 397.99C230.115 399.835 227.917 402.121 226.599 404.845C226.042 405.929 225.764 407.028 225.764 408.141C225.764 408.434 225.764 408.668 225.764 408.844C225.764 409.02 225.764 409.137 225.764 409.196ZM267.556 413.195L265.579 413.107V402.868C265.725 400.67 265.842 398.722 265.93 397.023C266.018 395.324 266.179 393.859 266.414 392.628C266.648 391.398 267.029 390.373 267.556 389.552C268.083 388.703 268.875 388.029 269.929 387.531C271.833 386.593 275.334 386.125 280.432 386.125C282.629 386.125 284.49 386.344 286.013 386.784C287.537 387.194 288.665 387.589 289.397 387.97C291.067 388.791 291.902 389.933 291.902 391.398C291.902 392.863 291.477 394.196 290.627 395.397C289.807 396.569 288.723 397.594 287.375 398.473C286.057 399.323 284.563 400.026 282.893 400.583C281.223 401.139 279.553 401.593 277.883 401.945C274.895 402.531 272.024 402.824 269.27 402.824L269.094 412.667C269.094 413.019 268.582 413.195 267.556 413.195ZM269.226 397.858C269.226 399.323 269.856 400.055 271.116 400.055C271.292 400.055 271.599 400.055 272.039 400.055C272.478 400.026 273.24 399.982 274.324 399.923C275.437 399.835 276.609 399.689 277.839 399.484C279.07 399.25 280.3 398.957 281.531 398.605C282.791 398.253 283.918 397.814 284.915 397.287C287.17 396.056 288.298 394.489 288.298 392.584C287.859 390.68 286.116 389.464 283.069 388.937C282.161 388.761 281.34 388.673 280.608 388.673C279.905 388.673 279.055 388.717 278.059 388.805C277.092 388.864 275.964 389.083 274.675 389.464C273.386 389.845 272.302 390.358 271.423 391.002C270.544 391.647 270.061 392.394 269.973 393.244C269.944 393.595 269.871 394.005 269.753 394.474C269.402 395.968 269.226 397.096 269.226 397.858ZM311.062 405.812C308.865 409.269 305.935 411.408 302.273 412.228C301.423 412.404 300.647 412.492 299.944 412.492C299.27 412.492 298.699 412.492 298.23 412.492C297.791 412.462 297.292 412.389 296.736 412.272C296.179 412.155 295.667 411.964 295.198 411.701C294.114 411.085 293.572 410.221 293.572 409.108C293.455 408.581 293.396 407.995 293.396 407.35C293.396 406.676 293.542 405.797 293.835 404.713C294.128 403.629 294.656 402.458 295.417 401.198C296.208 399.938 297.161 398.781 298.274 397.726C300.588 395.5 303.093 394.064 305.789 393.419C306.58 393.244 307.297 393.156 307.942 393.156C308.616 393.156 309.216 393.2 309.744 393.288C311.443 393.288 312.585 394.445 313.171 396.759C313.552 398.224 313.772 400.275 313.831 402.912C313.918 405.519 313.992 407.541 314.05 408.976C314.138 410.382 314.329 411.671 314.622 412.843H312.029C311.912 412.052 311.824 411.349 311.765 410.734C311.707 410.119 311.648 409.547 311.589 409.02C311.443 407.79 311.267 406.72 311.062 405.812ZM310.886 399C310.886 397.301 310.051 396.452 308.381 396.452C308.176 396.422 307.971 396.408 307.766 396.408C305.627 396.408 303.372 397.433 300.999 399.484C299.885 400.421 298.933 401.476 298.142 402.648C296.97 404.318 296.384 405.812 296.384 407.13C296.384 408.859 297.38 409.884 299.373 410.207C302.009 410.148 304.529 408.947 306.931 406.603C307.957 405.578 308.806 404.464 309.48 403.263C310.417 401.652 310.886 400.231 310.886 399ZM329.387 431.916L328.772 431.872C327.893 431.872 326.956 431.93 325.959 432.047H324.29C322.532 432.047 321.155 431.71 320.159 431.037C319.631 430.685 319.368 430.158 319.368 429.455L329.475 428.971C332.581 428.883 334.133 427.213 334.133 423.961C334.133 423.844 334.133 423.639 334.133 423.346C334.133 423.083 334.133 422.482 334.133 421.544L334.353 407.394C334.353 406.896 334.338 406.486 334.309 406.164C329.563 410.587 324.993 412.799 320.598 412.799C320.217 412.799 319.836 412.785 319.456 412.755C317.493 412.755 316.511 411.891 316.511 410.163C316.57 408.815 316.965 407.335 317.698 405.724C318.43 404.083 319.368 402.516 320.51 401.022C321.682 399.499 323 398.136 324.465 396.935C326.721 395.089 328.904 394.167 331.013 394.167C333.474 394.167 335.496 395.47 337.078 398.078C337.546 405.05 337.781 410.001 337.781 412.931C337.781 415.861 337.737 418.263 337.649 420.138C337.561 422.013 337.356 423.727 337.034 425.28C336.741 426.833 336.345 428.063 335.847 428.971C335.349 429.879 334.763 430.539 334.089 430.949C332.976 431.593 331.409 431.916 329.387 431.916ZM332.024 397.375C331.672 397.257 331.174 397.199 330.53 397.199C329.915 397.199 329.109 397.462 328.113 397.99C327.117 398.517 326.165 399.206 325.256 400.055C324.348 400.875 323.499 401.798 322.708 402.824C320.774 405.343 319.807 407.35 319.807 408.844C319.807 409.313 319.939 409.665 320.203 409.899C320.408 410.016 320.657 410.075 320.95 410.075C321.272 410.075 321.726 410.031 322.312 409.943C322.898 409.826 323.689 409.562 324.685 409.152C325.71 408.712 326.765 408.156 327.849 407.482C328.933 406.808 329.915 406.061 330.793 405.241C332.844 403.366 333.87 401.535 333.87 399.748C333.87 398.664 333.254 397.873 332.024 397.375ZM348.855 410.031C351.433 410.031 355.315 408.859 360.5 406.515C360.823 406.515 361.086 406.632 361.292 406.867C361.497 407.072 361.599 407.321 361.599 407.614C360.427 409.606 358.186 411.159 354.875 412.272C351.565 413.385 348.474 413.576 345.603 412.843C342.351 411.994 340.374 410.163 339.67 407.35C339.612 406.793 339.583 406.046 339.583 405.109C339.583 404.171 339.817 402.941 340.286 401.417C340.784 399.865 341.619 398.4 342.791 397.023C343.962 395.646 345.339 394.562 346.921 393.771C348.503 392.98 350.188 392.584 351.975 392.584C353.674 392.584 355.579 393.17 357.688 394.342C358.684 394.899 359.475 395.529 360.061 396.232C360.647 396.935 360.94 397.653 360.94 398.385C360.94 398.59 360.925 398.795 360.896 399C360.837 400.788 359.973 401.916 358.303 402.384C357.571 402.589 356.721 402.692 355.754 402.692L349.426 402.428C347.317 402.428 345.706 402.882 344.592 403.791C343.948 404.289 343.494 405.036 343.23 406.032C343.962 408.698 345.837 410.031 348.855 410.031ZM356.677 396.452C356.033 395.983 355.359 395.646 354.656 395.441C353.953 395.236 353.367 395.133 352.898 395.133C352.429 395.133 351.667 395.294 350.613 395.617C349.558 395.91 348.621 396.247 347.8 396.627C345.779 397.565 344.768 398.546 344.768 399.572C347.112 399.777 348.87 399.879 350.042 399.879C353.293 399.879 355.491 399.601 356.633 399.044C357.336 398.751 357.688 398.385 357.688 397.946C357.688 397.418 357.351 396.92 356.677 396.452ZM379.265 401.769C382.488 401.769 384.099 402.589 384.099 404.23C384.099 405.46 383.206 406.896 381.418 408.537C378.752 410.968 375.164 412.917 370.652 414.381C370.447 414.381 370.212 414.176 369.949 413.766C369.714 413.356 369.524 413.048 369.377 412.843C369.26 412.609 369.172 412.462 369.114 412.404C372.483 411.291 375.251 409.943 377.419 408.361C378.884 407.306 379.617 406.442 379.617 405.768C379.617 405.094 378.752 404.757 377.024 404.757C375.295 404.757 372.761 405.167 369.421 405.988C367.898 405.929 366.58 405.387 365.466 404.362C364.5 403.454 364.016 402.545 364.016 401.637C364.016 400.7 364.28 399.85 364.807 399.088C365.334 398.297 366.038 397.565 366.917 396.891C367.795 396.217 368.821 395.602 369.993 395.045C372.864 393.668 375.837 392.98 378.914 392.98C379.822 392.98 380.701 393.068 381.55 393.244C382.253 393.244 382.664 393.551 382.781 394.167C382.898 394.782 382.957 395.792 382.957 397.199C381.228 396.408 379.28 396.012 377.112 396.012C374.417 396.012 372.19 396.554 370.432 397.638C368.616 398.693 367.678 400.07 367.62 401.769C367.62 402.589 368.22 403 369.421 403L372.629 402.648C375.383 402.062 377.595 401.769 379.265 401.769Z" fill="#FC3F96"/>
</svg>
