<svg width="500" height="500" viewBox="0 0 500 500" fill="none" xmlns="http://www.w3.org/2000/svg">
<circle cx="250" cy="250" r="250" fill="#675E7D"/>
<g clip-path="url(#clip0_70_527)">
<path d="M329.688 60.1071H170.312C131.48 60.1071 100 91.587 100 130.42V289.795C100 328.627 131.48 360.107 170.312 360.107H329.688C368.52 360.107 400 328.627 400 289.795V130.42C400 91.587 368.52 60.1071 329.688 60.1071Z" fill="#242938"/>
<path d="M156.088 266.582L164.692 271.55L260.543 105.536L251.94 100.568L156.088 266.582Z" fill="#E535AB"/>
<path d="M345.82 253.32H154.118V263.255H345.82V253.32Z" fill="#E535AB"/>
<path d="M157.912 258.9L253.798 314.262L258.766 305.658L162.879 250.297L157.912 258.9ZM241.208 114.613L337.095 169.975L342.062 161.371L246.176 106.009L241.208 114.613Z" fill="#E535AB"/>
<path d="M157.938 161.334L162.906 169.938L258.793 114.576L253.825 105.972L157.938 161.334Z" fill="#E535AB"/>
<path d="M239.477 105.538L335.327 271.551L343.931 266.583L248.081 100.571L239.477 105.538ZM171.654 154.745H161.719V265.469H171.654V154.745Z" fill="#E535AB"/>
<path d="M338.278 154.745H328.343V265.469H338.278V154.745Z" fill="#E535AB"/>
<path d="M247.768 302.541L252.107 310.057L335.502 261.907L331.163 254.392L247.768 302.541Z" fill="#E535AB"/>
<path d="M351.446 268.701C345.7 278.696 332.891 282.107 322.897 276.361C312.902 270.616 309.49 257.808 315.236 247.813C320.982 237.817 333.79 234.406 343.785 240.152C353.84 245.957 357.251 258.706 351.446 268.701ZM184.702 172.401C178.956 182.396 166.148 185.808 156.153 180.063C146.158 174.317 142.747 161.508 148.492 151.513C154.238 141.517 167.045 138.107 177.041 143.853C187.036 149.658 190.448 162.406 184.702 172.401ZM148.552 268.701C142.806 258.706 146.218 245.957 156.213 240.152C166.209 234.406 178.956 237.817 184.762 247.813C190.508 257.808 187.096 270.556 177.101 276.361C167.047 282.107 154.298 278.696 148.552 268.701ZM315.296 172.401C309.55 162.406 312.961 149.658 322.956 143.853C332.952 138.107 345.7 141.518 351.506 151.513C357.251 161.509 353.84 174.257 343.845 180.063C333.85 185.808 321.041 182.396 315.296 172.401ZM249.999 327.295C238.448 327.295 229.111 317.958 229.111 306.407C229.111 294.856 238.448 285.518 249.999 285.518C261.55 285.518 270.886 294.856 270.886 306.407C270.886 317.898 261.55 327.295 249.999 327.295ZM249.999 134.696C238.448 134.696 229.111 125.358 229.111 113.807C229.111 102.256 238.448 92.9196 249.999 92.9196C261.55 92.9196 270.886 102.256 270.886 113.807C270.886 125.358 261.55 134.696 249.999 134.696Z" fill="#E535AB"/>
</g>
<path d="M177.073 415.26V407.218C174.29 409.123 172.356 410.382 171.272 410.998C168.752 412.375 166.541 413.063 164.636 413.063C162.351 413.063 160.388 412.228 158.748 410.558C157.078 408.83 156.243 406.852 156.243 404.626C156.389 402.282 156.887 399.909 157.737 397.506C159.495 392.409 162.41 388.673 166.482 386.3C168.503 385.099 170.833 384.499 173.469 384.499C173.528 384.499 173.586 384.499 173.645 384.499L174.832 384.455C176.179 384.455 176.794 384.982 176.677 386.037C174.333 386.154 172.136 386.696 170.085 387.663C168.035 388.63 166.248 389.933 164.724 391.574C163.23 393.185 162.043 395.075 161.165 397.243C160.315 399.411 159.89 401.623 159.89 403.879C159.89 406.134 160.476 407.76 161.648 408.756C162.82 409.753 164.329 410.251 166.174 410.251C167.756 410.251 169.954 409.562 172.766 408.185C174.553 407.306 175.886 406.31 176.765 405.197C177.205 404.67 177.424 404.113 177.424 403.527V397.023C176.545 397.023 174.495 397.36 171.272 398.034C168.079 398.708 166.233 399.089 165.735 399.176C165.588 399.089 165.413 399.001 165.208 398.913C165.002 398.796 164.885 398.634 164.856 398.429C164.797 397.99 165.442 397.316 166.79 396.408C167.112 396.232 169.045 395.895 172.59 395.397C176.135 394.87 178.391 394.533 179.358 394.386C180.325 394.24 181.13 394.123 181.775 394.035C182.068 394.093 182.434 394.093 182.874 394.035C183.313 393.947 183.723 393.918 184.104 393.947C185.042 393.976 185.481 394.489 185.422 395.485L181.775 396.979C181.218 398.766 180.94 402.135 180.94 407.087L181.028 413.634C181.028 414.22 181.028 414.762 181.028 415.26C180.149 415.7 179.299 415.92 178.479 415.92C177.659 415.92 177.19 415.7 177.073 415.26ZM209.197 397.067C207.966 396.188 206.384 395.749 204.451 395.749C202.634 395.749 200.95 396.086 199.397 396.759C196.467 397.99 194.46 399.572 193.376 401.505C192.908 402.384 192.673 403.322 192.673 404.318C192.673 404.494 192.673 404.992 192.673 405.812C192.673 406.603 192.82 407.687 193.113 409.064C193.406 410.412 193.552 411.789 193.552 413.195C192.937 413.224 192.439 413.297 192.058 413.415C191.677 413.532 191.355 413.59 191.091 413.59C190.828 413.59 190.593 413.473 190.388 413.239C190.212 413.005 190.007 412.55 189.773 411.877C189.744 411.701 189.685 411.203 189.597 410.382C189.509 409.562 189.392 408.566 189.246 407.394C189.128 406.222 188.982 404.948 188.806 403.571C188.66 402.165 188.513 400.788 188.367 399.44C188.044 396.51 187.795 394.357 187.62 392.98C187.62 392.277 188.132 391.925 189.158 391.925C189.773 391.925 190.256 392.189 190.608 392.716C190.959 393.214 191.238 393.8 191.443 394.474C191.648 395.119 191.78 395.763 191.838 396.408C191.926 397.052 192 397.506 192.058 397.77C195.925 394.313 200.73 392.585 206.472 392.585C207.117 392.585 207.791 392.599 208.494 392.629C208.669 392.599 208.889 392.585 209.153 392.585C209.417 392.585 209.68 392.76 209.944 393.112C210.266 393.522 210.427 394.02 210.427 394.606C210.427 396.071 210.017 396.891 209.197 397.067ZM229.719 405.812C227.522 409.269 224.592 411.408 220.93 412.228C220.081 412.404 219.304 412.492 218.601 412.492C217.927 412.492 217.356 412.492 216.887 412.492C216.448 412.463 215.95 412.389 215.393 412.272C214.836 412.155 214.324 411.964 213.855 411.701C212.771 411.086 212.229 410.221 212.229 409.108C212.112 408.581 212.053 407.995 212.053 407.35C212.053 406.676 212.2 405.797 212.493 404.714C212.786 403.63 213.313 402.458 214.075 401.198C214.866 399.938 215.818 398.781 216.931 397.726C219.246 395.5 221.75 394.064 224.446 393.42C225.237 393.244 225.955 393.156 226.599 393.156C227.273 393.156 227.874 393.2 228.401 393.288C230.1 393.288 231.243 394.445 231.829 396.759C232.209 398.224 232.429 400.275 232.488 402.912C232.576 405.519 232.649 407.541 232.708 408.976C232.795 410.382 232.986 411.672 233.279 412.843H230.686C230.569 412.052 230.481 411.349 230.422 410.734C230.364 410.119 230.305 409.547 230.247 409.02C230.1 407.79 229.924 406.72 229.719 405.812ZM229.543 399.001C229.543 397.301 228.708 396.452 227.039 396.452C226.833 396.422 226.628 396.408 226.423 396.408C224.285 396.408 222.029 397.433 219.656 399.484C218.542 400.422 217.59 401.476 216.799 402.648C215.627 404.318 215.042 405.812 215.042 407.13C215.042 408.859 216.038 409.884 218.03 410.207C220.667 410.148 223.186 408.947 225.588 406.603C226.614 405.578 227.463 404.464 228.137 403.263C229.075 401.652 229.543 400.231 229.543 399.001ZM239.563 395.485C243.547 394.108 246.99 393.42 249.89 393.42C253.582 393.42 256.042 394.386 257.273 396.32C257.83 397.228 258.108 398.21 258.108 399.264C258.108 400.729 257.639 402.238 256.702 403.791C255.793 405.343 254.578 406.75 253.054 408.009C249.509 410.91 245.203 412.712 240.134 413.415C240.134 413.737 240.134 414.25 240.134 414.953C240.164 415.685 240.178 416.491 240.178 417.37C240.208 418.249 240.222 419.186 240.222 420.182C240.251 421.178 240.281 422.13 240.31 423.039C240.398 425.295 240.457 426.584 240.486 426.906C240.544 427.228 240.574 427.492 240.574 427.697C240.574 428.429 240.339 428.971 239.871 429.323C239.402 429.704 238.787 429.894 238.025 429.894C237.878 429.894 237.732 429.894 237.585 429.894L236.882 394.562C237.146 394.181 237.498 394.005 237.937 394.035C238.376 394.064 238.728 394.181 238.992 394.386C239.255 394.591 239.446 394.958 239.563 395.485ZM252.395 397.023C251.428 396.525 250.388 396.276 249.275 396.276C248.191 396.276 247.107 396.379 246.023 396.584C243.562 397.052 241.746 398.092 240.574 399.704C240.046 400.465 239.783 401.403 239.783 402.516C239.783 402.633 239.783 402.751 239.783 402.868V410.47C245.818 409.123 250.095 407.248 252.615 404.845C254.08 403.468 254.812 402.047 254.812 400.583C254.812 399.03 254.006 397.843 252.395 397.023ZM281.047 412.492C280.784 412.99 280.095 413.239 278.982 413.239C277.898 413.239 277.356 412.843 277.356 412.052C277.356 408.595 277.283 406.222 277.136 404.933C276.873 402.091 276.316 400.568 275.466 400.363C273.357 399.953 271.628 399.748 270.281 399.748C268.962 399.748 267.864 400.158 266.985 400.978C266.135 401.769 265.476 403.102 265.007 404.977C264.568 406.823 264.246 409.43 264.041 412.799H260.657C260.715 411.13 260.745 409.577 260.745 408.141C260.745 406.706 260.715 405.006 260.657 403.044C260.598 401.051 260.525 398.883 260.437 396.54C260.291 393.844 260.217 391.574 260.217 389.728C260.217 387.853 260.334 386.139 260.569 384.587C260.862 384.03 261.287 383.752 261.843 383.752C262.517 383.752 263.044 384.001 263.425 384.499C263.806 384.967 264.011 385.392 264.041 385.773L263.821 393.024C263.821 395.749 263.953 397.785 264.216 399.132C266.853 397.375 269.578 396.496 272.39 396.496C273.298 396.496 274.265 396.569 275.291 396.715C277.488 397.858 278.923 399.074 279.597 400.363C279.919 401.037 280.125 401.755 280.212 402.516C280.3 403.278 280.359 404.142 280.388 405.109C280.564 408.449 280.784 410.91 281.047 412.492ZM282.673 402.384C282.673 400.509 282.996 398.517 283.64 396.408C284.285 394.269 285.237 392.38 286.497 390.739C287.756 389.098 289.309 387.78 291.155 386.784C293 385.788 295.125 385.29 297.527 385.29C297.878 385.26 298.23 385.246 298.582 385.246C302.39 385.246 305.378 386.388 307.546 388.673C309.509 390.754 310.491 393.493 310.491 396.891C310.491 400.231 309.495 403.322 307.502 406.164C307.473 406.31 307.458 406.545 307.458 406.867C307.458 407.16 307.664 407.467 308.074 407.79C308.513 408.112 309.041 408.405 309.656 408.669C310.3 408.932 310.842 409.211 311.282 409.504C311.721 409.797 311.941 410.075 311.941 410.339C311.941 410.573 311.926 410.763 311.897 410.91C311.575 411.144 311.135 411.335 310.579 411.481C310.022 411.598 309.641 411.642 309.436 411.613C309.26 411.554 309.011 411.422 308.689 411.217C308.367 410.983 308.059 410.734 307.766 410.47C306.975 409.855 306.287 409.504 305.701 409.416C304.587 410.47 302.874 411.379 300.559 412.14C294.7 413.986 289.924 413.356 286.233 410.251C283.86 408.229 282.673 405.607 282.673 402.384ZM296.121 410.251C297.878 410.251 299.124 410.177 299.856 410.031C301.438 409.709 302.537 409.035 303.152 408.009L295.11 400.714C295.081 400.685 295.066 400.641 295.066 400.583V400.363C295.066 399.836 295.271 399.513 295.681 399.396C296.091 399.25 296.589 399.176 297.175 399.176C297.791 399.176 298.45 399.411 299.153 399.88C299.885 400.348 300.588 400.905 301.262 401.549C301.936 402.165 302.595 402.809 303.24 403.483C303.914 404.157 304.602 404.699 305.305 405.109C306.799 402.824 307.561 400.334 307.59 397.638C307.62 396.818 307.634 395.895 307.634 394.87C307.488 393.815 307.239 392.863 306.887 392.013C306.184 390.226 304.412 389.054 301.57 388.498C300.193 388.205 298.889 388.058 297.659 388.058C296.428 388.058 295.696 388.058 295.461 388.058C293.645 388.058 291.975 388.908 290.452 390.607C289.25 391.984 288.225 393.888 287.375 396.32C286.643 398.283 286.277 400.099 286.277 401.769C286.277 404.816 287.141 406.999 288.87 408.317C290.598 409.606 293.015 410.251 296.121 410.251ZM317.083 393.903L316.995 382.961L320.51 383.092L320.115 408.844L343.274 409.504C343.743 409.65 343.977 409.899 343.977 410.251C343.977 410.602 343.757 410.968 343.318 411.349C342.468 412.111 341.501 412.492 340.417 412.492C340.154 412.492 339.875 412.463 339.583 412.404L315.984 412.184C316.716 409.46 317.083 403.366 317.083 393.903Z" fill="#FC3F96"/>
<defs>
<clipPath id="clip0_70_527">
<rect width="300" height="300" fill="white" transform="translate(100 60.1071)"/>
</clipPath>
</defs>
</svg>
