<svg width="500" height="500" viewBox="0 0 500 500" fill="none" xmlns="http://www.w3.org/2000/svg">
<circle cx="250" cy="250" r="250" fill="#675E7D"/>
<path d="M144.618 327.004L121.169 64H378.831L355.356 326.964L249.843 356.214L144.618 327.004Z" fill="#E44D26"/>
<path d="M250 333.945L335.165 310.289L355.203 85.415H250V333.945Z" fill="#F16529"/>
<path d="M250 183.029H207.364L204.418 149.973H250V117.695H169.206L169.978 126.354L177.896 215.309H250V183.029ZM250 266.862L249.857 266.901L213.975 257.191L211.683 231.45H179.336L183.849 282.133L249.852 300.488L250 300.448V266.862Z" fill="#EBEBEB"/>
<path d="M249.888 183.029V215.309H289.562L285.824 257.173L249.888 266.89V300.474L315.942 282.133L316.427 276.68L323.998 191.698L324.782 183.029H316.101H249.888ZM249.888 117.695V149.973H327.716L328.362 142.721L329.832 126.354L330.602 117.695H249.888Z" fill="white"/>
<path d="M179.05 400.822C178.962 401.818 178.918 403.239 178.918 405.084C178.918 406.901 179.197 409.113 179.753 411.72L176.282 413.478L174.7 401.525C173.674 401.378 173.162 401.027 173.162 400.47C173.162 400.06 173.396 399.576 173.865 399.02C174.363 398.463 174.729 398.009 174.963 397.657C175.198 397.277 175.33 396.866 175.359 396.427C175.417 395.958 175.491 395.138 175.579 393.966C175.667 392.794 175.74 391.549 175.798 390.231C175.886 388.912 175.959 387.667 176.018 386.495C176.106 385.323 176.15 384.503 176.15 384.034C176.794 383.39 177.263 382.994 177.556 382.848C178.289 382.467 178.787 382.614 179.05 383.287L178.787 397.13C186.023 397.13 190.374 396.661 191.838 395.724V381.837C192.014 381.339 192.834 381.09 194.299 381.09C194.622 381.09 194.885 381.105 195.09 381.134C195.09 381.691 195.105 382.54 195.134 383.683C195.193 384.796 195.237 386.071 195.266 387.506C195.325 388.942 195.383 390.465 195.442 392.076C195.5 393.658 195.559 395.167 195.618 396.603C195.706 399.591 195.779 401.788 195.837 403.195C196.042 406.71 196.76 409.552 197.991 411.72C196.672 412.247 195.222 412.511 193.64 412.511C192.292 409.171 191.575 404.791 191.487 399.371C189.553 399.313 188.235 399.283 187.532 399.283C186.829 399.283 186.038 399.327 185.159 399.415C183.342 399.532 181.306 400.001 179.05 400.822ZM221.018 391.637L217.107 391.549C216.082 391.549 214.895 391.652 213.547 391.857C213.489 392.999 213.372 394.479 213.196 396.295C212.581 402.74 212.273 406.93 212.273 408.864C212.273 410.768 212.302 412.115 212.361 412.906L208.23 413.214L209.592 391.505L200.232 390.978C199.998 390.978 199.807 390.787 199.661 390.406C199.543 390.026 199.485 389.674 199.485 389.352C199.485 389.03 199.617 388.678 199.88 388.297C200.144 387.916 200.452 387.726 200.803 387.726C202.942 387.814 205.095 387.96 207.263 388.165C211.277 388.517 214.69 388.693 217.502 388.693L220.227 388.605C222.366 388.546 224.49 388.312 226.599 387.902C227.068 387.99 227.361 388.722 227.478 390.099C227.507 390.392 227.522 390.626 227.522 390.802C225.588 391.359 223.42 391.637 221.018 391.637ZM232.927 405.875L233.103 409.083C233.103 409.259 233.088 409.581 233.059 410.05C233.059 410.519 232.883 410.944 232.532 411.324C232.209 411.676 231.799 411.852 231.301 411.852C230.833 411.852 230.466 411.837 230.203 411.808C229.236 411.808 228.752 411.383 228.752 410.533C228.752 409.83 229.075 407.003 229.719 402.052C230.364 397.072 230.774 393.864 230.95 392.428C231.125 390.992 231.272 389.791 231.389 388.824C231.536 387.828 231.638 387.096 231.697 386.627C231.755 386.158 231.843 385.69 231.96 385.221C232.078 384.752 232.253 384.371 232.488 384.078C232.927 383.522 233.777 383.243 235.037 383.243C237.146 384.298 239.314 387.286 241.541 392.208C243.123 395.724 244.177 397.95 244.705 398.888C245.232 399.825 245.745 400.47 246.243 400.822L255.032 385.529C255.647 385.089 256.116 384.869 256.438 384.869C257.375 384.869 258.093 385.294 258.591 386.144C259.089 386.993 259.5 388.033 259.822 389.264C260.173 390.465 260.466 391.798 260.701 393.263C260.964 394.728 261.184 396.266 261.36 397.877C261.565 399.459 261.755 401.012 261.931 402.535C262.341 406.198 262.649 408.497 262.854 409.435C263.088 410.372 263.206 411.046 263.206 411.456C263.206 411.837 263.074 412.218 262.81 412.599C262.546 412.95 262.18 413.126 261.711 413.126C261.243 413.126 260.774 412.95 260.305 412.599C259.836 412.218 259.543 411.764 259.426 411.237C259.338 410.68 259.236 409.962 259.119 409.083C259.031 408.204 258.914 407.223 258.767 406.139C258.621 405.026 258.474 403.868 258.328 402.667C258.181 401.437 258.035 400.265 257.888 399.152C257.742 398.038 257.61 397.057 257.493 396.207C257.375 395.328 257.288 394.669 257.229 394.23C257.229 393.644 257.214 393.102 257.185 392.604C257.156 392.106 257.039 391.798 256.833 391.681C256.628 391.564 256.306 391.71 255.867 392.12C255.457 392.501 254.871 393.292 254.109 394.493C252.468 397.042 250.095 401.334 246.99 407.369C246.58 408.102 246.038 408.263 245.364 407.853C244.573 407.413 243.899 406.285 243.342 404.469L235.256 387.286C234.553 388.693 233.909 393.351 233.323 401.261C233.235 402.228 233.176 403.048 233.147 403.722C233 404.454 232.927 405.172 232.927 405.875ZM268.259 394.01L268.171 383.068L271.687 383.199L271.292 408.951L294.451 409.611C294.919 409.757 295.154 410.006 295.154 410.358C295.154 410.709 294.934 411.075 294.495 411.456C293.645 412.218 292.678 412.599 291.594 412.599C291.331 412.599 291.052 412.57 290.759 412.511L267.161 412.291C267.893 409.567 268.259 403.473 268.259 394.01ZM297.087 400.514L297.395 397.482C297.6 395.782 297.834 393.732 298.098 391.329L298.625 386.935C298.743 386.554 298.918 386.334 299.153 386.276C299.417 386.217 299.768 386.188 300.208 386.188C300.647 386.188 300.969 386.305 301.174 386.539C301.379 386.744 301.482 387.008 301.482 387.33C301.511 387.653 301.482 388.019 301.394 388.429C301.306 388.839 301.262 389.235 301.262 389.615C303.313 389.615 305.349 389.396 307.371 388.956C309.421 388.517 311.458 388.033 313.479 387.506C315.5 386.979 317.522 386.495 319.543 386.056C321.565 385.616 323.601 385.397 325.652 385.397C325.945 385.397 326.208 385.441 326.443 385.529C326.707 385.587 326.912 385.822 327.058 386.232C326.941 386.583 326.736 386.876 326.443 387.111C326.15 387.345 325.652 387.579 324.949 387.814C324.275 388.048 323.352 388.297 322.18 388.561C321.008 388.795 319.5 389.117 317.654 389.528C315.808 389.908 313.552 390.377 310.886 390.934C308.25 391.49 305.129 392.179 301.526 392.999V398.624C302.463 398.536 303.533 398.39 304.734 398.185C306.96 397.804 308.66 397.614 309.832 397.614C311.003 397.614 311.97 397.628 312.732 397.657C313.523 397.687 314.417 397.892 315.413 398.273C317.551 399.093 318.752 400.778 319.016 403.326C319.016 405.172 318.503 406.74 317.478 408.029C316.482 409.288 315.222 410.299 313.699 411.061C310.828 412.496 307.488 413.214 303.679 413.214C302.859 413.214 302.273 413.126 301.921 412.95C301.57 412.775 301.394 412.394 301.394 411.808C301.394 411.222 301.628 410.665 302.097 410.138C302.566 409.611 303.093 409.347 303.679 409.347V410.138C307.136 410.138 309.626 409.904 311.15 409.435C312.673 408.937 313.875 408.263 314.753 407.413C315.662 406.534 316.116 405.45 316.116 404.161C316.116 402.872 315.852 401.935 315.325 401.349C314.797 400.763 314.153 400.323 313.391 400.031C312.219 399.562 310.886 399.327 309.392 399.327C307.898 399.327 306.77 399.445 306.008 399.679C305.247 399.913 304.5 400.177 303.767 400.47C301.804 401.202 300.31 401.569 299.285 401.569H298.582C297.585 401.569 297.087 401.217 297.087 400.514Z" fill="#FC3F96"/>
</svg>
