<svg width="500" height="500" viewBox="0 0 500 500" fill="none" xmlns="http://www.w3.org/2000/svg">
<circle cx="250" cy="250" r="250" fill="#675E7D"/>
<g clip-path="url(#clip0_70_339)">
<path d="M329.688 60.1069H170.312C131.48 60.1069 100 91.5869 100 130.419V289.794C100 328.627 131.48 360.107 170.312 360.107H329.688C368.52 360.107 400 328.627 400 289.794V130.419C400 91.5869 368.52 60.1069 329.688 60.1069Z" fill="#F0DB4F"/>
<path d="M178.881 310.808L201.838 296.915C206.268 304.767 210.297 311.412 219.961 311.412C229.225 311.412 235.066 307.788 235.066 293.693V197.836H263.259V294.092C263.259 323.291 246.142 336.583 221.17 336.583C198.617 336.583 185.526 324.903 178.88 310.806M278.572 307.787L301.526 294.497C307.57 304.365 315.424 311.615 329.317 311.615C341 311.615 348.448 305.774 348.448 297.719C348.448 288.053 340.796 284.629 327.907 278.992L320.861 275.97C300.521 267.312 287.028 256.437 287.028 233.48C287.028 212.335 303.139 196.224 328.312 196.224C346.234 196.224 359.123 202.467 368.385 218.779L346.435 232.875C341.601 224.216 336.367 220.793 328.312 220.793C320.055 220.793 314.819 226.029 314.819 232.875C314.819 241.333 320.055 244.757 332.137 249.994L339.184 253.014C363.148 263.285 376.641 273.755 376.641 297.315C376.641 322.691 356.705 336.585 329.922 336.585C303.743 336.585 286.827 324.1 278.572 307.787Z" fill="#323330"/>
</g>
<path d="M156.243 398.737L156.111 390.431C156.111 389.113 156.14 387.956 156.199 386.959C156.287 385.934 156.506 385.421 156.858 385.421H159.802C159.802 385.89 159.846 386.798 159.934 388.146C160.022 389.494 160.081 390.856 160.11 392.233C160.139 393.581 160.154 394.738 160.154 395.705C160.154 396.671 160.139 397.931 160.11 399.484C160.081 401.007 159.934 402.692 159.67 404.538C159.055 408.786 157.883 411.408 156.155 412.404C154.836 413.136 152.742 413.312 149.871 412.931C146.97 412.521 144.421 411.671 142.224 410.382C139.646 408.888 138.167 407.13 137.786 405.109C137.786 404.435 138.005 403.849 138.445 403.351C139.236 402.414 139.954 401.945 140.598 401.945C140.627 403.615 141.082 404.992 141.96 406.076C144.011 408.537 147.307 409.767 151.848 409.767C152.61 409.767 153.357 409.723 154.089 409.635C155.525 408.874 156.243 405.241 156.243 398.737ZM179.666 405.812C177.468 409.269 174.539 411.408 170.876 412.228C170.027 412.404 169.25 412.492 168.547 412.492C167.874 412.492 167.302 412.492 166.833 412.492C166.394 412.462 165.896 412.389 165.339 412.272C164.783 412.155 164.27 411.964 163.801 411.701C162.717 411.085 162.175 410.221 162.175 409.108C162.058 408.581 162 407.995 162 407.35C162 406.676 162.146 405.797 162.439 404.713C162.732 403.629 163.259 402.458 164.021 401.198C164.812 399.938 165.764 398.781 166.877 397.726C169.192 395.5 171.697 394.064 174.392 393.419C175.183 393.244 175.901 393.156 176.545 393.156C177.219 393.156 177.82 393.2 178.347 393.288C180.046 393.288 181.189 394.445 181.775 396.759C182.156 398.224 182.375 400.275 182.434 402.912C182.522 405.519 182.595 407.541 182.654 408.976C182.742 410.382 182.932 411.671 183.225 412.843H180.632C180.515 412.052 180.427 411.349 180.369 410.734C180.31 410.119 180.251 409.547 180.193 409.02C180.046 407.79 179.871 406.72 179.666 405.812ZM179.49 399C179.49 397.301 178.655 396.452 176.985 396.452C176.78 396.422 176.575 396.408 176.37 396.408C174.231 396.408 171.975 397.433 169.602 399.484C168.489 400.421 167.537 401.476 166.746 402.648C165.574 404.318 164.988 405.812 164.988 407.13C164.988 408.859 165.984 409.884 167.976 410.207C170.613 410.148 173.132 408.947 175.535 406.603C176.56 405.578 177.41 404.464 178.083 403.263C179.021 401.652 179.49 400.231 179.49 399ZM185.686 396.1C185.627 395.954 185.598 395.792 185.598 395.617C185.598 395.412 185.671 395.148 185.818 394.826C185.964 394.503 186.169 394.225 186.433 393.991C186.726 393.756 187.034 393.654 187.356 393.683C187.708 393.683 187.986 393.888 188.191 394.298L195.574 408.009C195.808 407.658 196.174 407.013 196.672 406.076C197.2 405.109 197.786 404.025 198.43 402.824C199.104 401.623 199.792 400.377 200.496 399.088C201.228 397.77 201.902 396.569 202.517 395.485C203.923 392.995 204.758 391.75 205.022 391.75C205.637 391.75 206.077 391.984 206.34 392.453C206.633 392.892 206.78 393.229 206.78 393.463C206.78 393.698 206.78 393.859 206.78 393.947C205.139 397.521 203.616 400.817 202.209 403.834C200.833 406.852 199.91 408.815 199.441 409.723C199.001 410.602 198.606 411.305 198.254 411.833C197.639 412.741 197.039 413.195 196.453 413.195C195.867 413.195 195.193 412.741 194.431 411.833C193.669 410.895 192.805 409.65 191.838 408.097C190.139 405.285 188.088 401.286 185.686 396.1ZM225.896 405.812C223.699 409.269 220.769 411.408 217.107 412.228C216.257 412.404 215.481 412.492 214.778 412.492C214.104 412.492 213.533 412.492 213.064 412.492C212.625 412.462 212.126 412.389 211.57 412.272C211.013 412.155 210.5 411.964 210.032 411.701C208.948 411.085 208.406 410.221 208.406 409.108C208.289 408.581 208.23 407.995 208.23 407.35C208.23 406.676 208.376 405.797 208.669 404.713C208.962 403.629 209.49 402.458 210.251 401.198C211.042 399.938 211.995 398.781 213.108 397.726C215.422 395.5 217.927 394.064 220.623 393.419C221.414 393.244 222.131 393.156 222.776 393.156C223.45 393.156 224.05 393.2 224.578 393.288C226.277 393.288 227.419 394.445 228.005 396.759C228.386 398.224 228.606 400.275 228.665 402.912C228.752 405.519 228.826 407.541 228.884 408.976C228.972 410.382 229.163 411.671 229.456 412.843H226.863C226.746 412.052 226.658 411.349 226.599 410.734C226.541 410.119 226.482 409.547 226.423 409.02C226.277 407.79 226.101 406.72 225.896 405.812ZM225.72 399C225.72 397.301 224.885 396.452 223.215 396.452C223.01 396.422 222.805 396.408 222.6 396.408C220.461 396.408 218.206 397.433 215.833 399.484C214.719 400.421 213.767 401.476 212.976 402.648C211.804 404.318 211.218 405.812 211.218 407.13C211.218 408.859 212.214 409.884 214.207 410.207C216.843 410.148 219.363 408.947 221.765 406.603C222.791 405.578 223.64 404.464 224.314 403.263C225.251 401.652 225.72 400.231 225.72 399ZM230.994 409.284C230.994 408.727 231.213 408.244 231.653 407.833C232.122 407.394 232.473 407.101 232.708 406.955C232.971 406.779 233.147 406.647 233.235 406.559C233.381 409.225 235.183 410.558 238.64 410.558C241.365 410.558 244.543 409.708 248.176 408.009C250.754 406.837 252.483 405.636 253.362 404.406C253.655 404.025 253.801 403.717 253.801 403.483C253.801 403.219 253.757 403.014 253.669 402.868L235.432 398.781C234.905 398.664 234.392 398.415 233.894 398.034C232.986 397.389 232.532 396.803 232.532 396.276C232.532 394.254 233.967 392.423 236.838 390.783C240.002 388.996 244.236 387.648 249.539 386.74C250.74 386.535 251.633 386.417 252.219 386.388C252.395 386.447 252.659 386.505 253.01 386.564C253.391 386.593 253.772 386.652 254.153 386.74C255.061 386.945 255.442 387.326 255.295 387.882C255.295 388.878 253.391 389.669 249.583 390.255C244.661 390.988 241.584 391.603 240.354 392.101C239.153 392.599 238.274 393.112 237.717 393.639C237.19 394.167 236.912 394.796 236.882 395.529C236.882 395.675 237.219 395.836 237.893 396.012C238.567 396.188 239.373 396.408 240.31 396.671C241.248 396.906 242.463 397.228 243.958 397.638C247.59 398.634 252.043 399.894 257.317 401.417C257.61 402.062 257.756 402.663 257.756 403.219C257.756 404.772 256.848 406.266 255.032 407.702C252.981 409.313 250.139 410.675 246.506 411.789C243.489 412.697 241.086 413.151 239.299 413.151C237.805 413.151 236.384 412.887 235.037 412.36C233.689 411.833 232.678 411.32 232.004 410.822C231.331 410.324 230.994 409.811 230.994 409.284ZM278.191 408.493C279.392 407.995 280.564 407.541 281.707 407.13C282.849 406.72 283.933 406.515 284.958 406.515C286.013 406.515 286.541 406.837 286.541 407.482C286.541 407.628 286.497 407.863 286.409 408.185C286.35 408.478 285.955 408.844 285.222 409.284C284.519 409.694 283.64 410.089 282.585 410.47C281.56 410.851 280.432 411.203 279.202 411.525C277.971 411.847 276.77 412.125 275.598 412.36C273.167 412.858 271.438 413.107 270.413 413.107C269.387 413.107 268.274 412.99 267.073 412.755C265.901 412.521 264.802 412.14 263.777 411.613C261.404 410.382 260.217 408.566 260.217 406.164C260.217 405.988 260.217 405.636 260.217 405.109C260.217 404.582 260.437 403.834 260.876 402.868C261.316 401.872 261.975 400.89 262.854 399.923C263.733 398.927 264.758 398.019 265.93 397.199C268.391 395.441 270.969 394.298 273.665 393.771C274.602 393.566 275.378 393.463 275.994 393.463C276.638 393.463 277.166 393.478 277.576 393.507C277.986 393.507 278.411 393.537 278.85 393.595C279.29 393.625 279.67 393.727 279.993 393.903C280.754 394.284 281.135 395.031 281.135 396.144C281.135 396.847 280.637 397.536 279.641 398.209C279.377 398.385 279.143 398.546 278.938 398.693C278.792 398.019 278.601 397.448 278.367 396.979C278.132 396.51 277.62 396.276 276.829 396.276C273.372 397.008 270.398 398.107 267.908 399.572C265.095 401.242 263.689 403 263.689 404.845C263.689 405.05 263.704 405.27 263.733 405.504C263.733 407.379 264.451 408.712 265.886 409.503C266.97 410.089 268.362 410.382 270.061 410.382C271.79 410.382 273.284 410.192 274.543 409.811C275.803 409.401 277.019 408.961 278.191 408.493ZM310.491 397.067C309.26 396.188 307.678 395.749 305.745 395.749C303.928 395.749 302.244 396.085 300.691 396.759C297.761 397.99 295.754 399.572 294.67 401.505C294.202 402.384 293.967 403.322 293.967 404.318C293.967 404.494 293.967 404.992 293.967 405.812C293.967 406.603 294.114 407.687 294.407 409.064C294.7 410.412 294.846 411.789 294.846 413.195C294.231 413.224 293.733 413.297 293.352 413.415C292.971 413.532 292.649 413.59 292.385 413.59C292.122 413.59 291.887 413.473 291.682 413.239C291.506 413.004 291.301 412.55 291.067 411.876C291.038 411.701 290.979 411.203 290.891 410.382C290.803 409.562 290.686 408.566 290.54 407.394C290.422 406.222 290.276 404.948 290.1 403.571C289.954 402.165 289.807 400.788 289.661 399.44C289.338 396.51 289.089 394.357 288.914 392.98C288.914 392.277 289.426 391.925 290.452 391.925C291.067 391.925 291.55 392.189 291.902 392.716C292.253 393.214 292.532 393.8 292.737 394.474C292.942 395.119 293.074 395.763 293.132 396.408C293.22 397.052 293.293 397.506 293.352 397.77C297.219 394.313 302.024 392.584 307.766 392.584C308.411 392.584 309.084 392.599 309.788 392.628C309.963 392.599 310.183 392.584 310.447 392.584C310.71 392.584 310.974 392.76 311.238 393.112C311.56 393.522 311.721 394.02 311.721 394.606C311.721 396.071 311.311 396.891 310.491 397.067ZM317.698 392.453C318.079 397.931 318.401 404.274 318.665 411.481C318.489 412.389 317.786 412.843 316.555 412.843C316.233 412.843 315.896 412.785 315.544 412.667C315.222 412.521 315.017 412.331 314.929 412.096V392.453H317.698ZM313.611 386.476C313.611 385.451 314.211 384.938 315.413 384.938C316.204 384.938 316.848 385.114 317.346 385.465C317.434 385.788 317.478 386.11 317.478 386.432C317.478 386.725 317.361 387.018 317.126 387.311C316.892 387.604 316.541 387.75 316.072 387.75C315.603 387.75 315.134 387.648 314.666 387.443C314.197 387.208 313.845 386.886 313.611 386.476ZM324.773 395.485C328.757 394.108 332.2 393.419 335.1 393.419C338.792 393.419 341.252 394.386 342.483 396.32C343.04 397.228 343.318 398.209 343.318 399.264C343.318 400.729 342.849 402.238 341.912 403.791C341.003 405.343 339.788 406.75 338.264 408.009C334.719 410.91 330.413 412.711 325.344 413.415C325.344 413.737 325.344 414.25 325.344 414.953C325.374 415.685 325.388 416.491 325.388 417.37C325.417 418.249 325.432 419.186 325.432 420.182C325.461 421.178 325.491 422.13 325.52 423.039C325.608 425.294 325.667 426.583 325.696 426.906C325.754 427.228 325.784 427.492 325.784 427.697C325.784 428.429 325.549 428.971 325.081 429.323C324.612 429.704 323.997 429.894 323.235 429.894C323.088 429.894 322.942 429.894 322.795 429.894L322.092 394.562C322.356 394.181 322.708 394.005 323.147 394.035C323.586 394.064 323.938 394.181 324.202 394.386C324.465 394.591 324.656 394.958 324.773 395.485ZM337.605 397.023C336.638 396.525 335.598 396.276 334.485 396.276C333.401 396.276 332.317 396.378 331.233 396.583C328.772 397.052 326.956 398.092 325.784 399.704C325.256 400.465 324.993 401.403 324.993 402.516C324.993 402.633 324.993 402.75 324.993 402.868V410.47C331.028 409.123 335.305 407.248 337.825 404.845C339.29 403.468 340.022 402.047 340.022 400.583C340.022 399.03 339.216 397.843 337.605 397.023ZM352.239 408.888L352.327 401.857C352.327 400.744 352.224 399.792 352.019 399H345.208L345.12 395.968H351.711V384.63C351.799 384.367 351.975 384.103 352.239 383.839C352.649 383.429 352.986 383.224 353.25 383.224C353.542 383.224 353.792 383.253 353.997 383.312C354.202 383.371 354.421 383.576 354.656 383.927C355.125 385.861 355.359 388.776 355.359 392.672C355.359 393.639 355.403 394.591 355.491 395.529C356.428 395.412 357.366 395.353 358.303 395.353C358.303 395.353 359.065 395.353 360.588 395.353C361.145 395.353 361.658 395.324 362.126 395.265L361.995 398.429L355.579 398.253L355.798 413.415C355.271 413.649 354.817 413.766 354.436 413.766C352.971 413.766 352.239 412.14 352.239 408.888Z" fill="#FC3F96"/>
<defs>
<clipPath id="clip0_70_339">
<rect width="300" height="300" fill="white" transform="translate(100 60.1069)"/>
</clipPath>
</defs>
</svg>
