<svg width="500" height="500" viewBox="0 0 500 500" fill="none" xmlns="http://www.w3.org/2000/svg">
<circle cx="250" cy="250" r="250" fill="#675E7D"/>
<path d="M122.559 135.531C96.7094 172.682 99.9274 221.022 119.673 260.5C120.142 261.447 120.634 262.377 121.12 263.308L122.043 265.087L122.62 266.111L123.648 267.953C124.263 269.033 124.891 270.109 125.533 271.185L126.609 272.957C127.321 274.108 128.05 275.244 128.795 276.379L129.728 277.818C130.757 279.353 131.809 280.886 132.897 282.39L132.988 282.508L133.523 283.23C134.463 284.526 135.431 285.805 136.41 287.071L137.498 288.454C138.372 289.553 139.26 290.645 140.165 291.733L141.184 292.951C142.401 294.387 143.64 295.803 144.902 297.198L144.979 297.276L145.122 297.435C146.362 298.781 147.621 300.108 148.9 301.417L150.112 302.638C151.103 303.637 152.111 304.619 153.128 305.596L154.363 306.768C155.723 308.05 157.096 309.306 158.498 310.534L158.563 310.586L159.283 311.2C160.518 312.269 161.774 313.33 163.04 314.371L164.596 315.611C165.63 316.44 166.675 317.256 167.727 318.058L169.401 319.33C170.563 320.186 171.733 321.027 172.914 321.85L174.194 322.757L174.545 323.008C175.666 323.779 176.812 324.522 177.958 325.265L179.434 326.249C181.192 327.36 182.973 328.459 184.776 329.521L186.252 330.353C187.577 331.117 188.91 331.867 190.26 332.601C190.991 332.994 191.741 333.367 192.477 333.744C193.431 334.244 194.378 334.75 195.348 335.235L196.012 335.556L197.186 336.123C198.688 336.84 200.202 337.546 201.733 338.226L202.694 338.657C204.448 339.424 206.216 340.16 207.998 340.862L209.289 341.371C210.939 342.006 212.613 342.634 214.293 343.225L214.921 343.443C216.766 344.087 218.627 344.685 220.502 345.269L221.849 345.672C223.757 346.246 225.644 346.933 227.61 347.296C352.623 370.094 388.938 272.172 388.938 272.172C358.438 311.905 304.302 322.387 253.009 310.717C251.066 310.279 249.182 309.672 247.286 309.112L245.859 308.678C244.011 308.112 242.173 307.514 240.346 306.885L239.589 306.611C237.96 306.035 236.339 305.434 234.728 304.808L233.364 304.272C231.602 303.576 229.848 302.849 228.116 302.09L227.069 301.626C225.585 300.955 224.109 300.269 222.641 299.565L221.362 298.951C220.211 298.391 219.072 297.796 217.938 297.21C217.178 296.809 216.405 296.432 215.652 296.015C214.271 295.271 212.903 294.504 211.548 293.713L210.163 292.94C208.364 291.878 206.583 290.786 204.82 289.665L203.378 288.705C202.096 287.882 200.828 287.039 199.574 286.176L198.351 285.315C197.143 284.462 195.945 283.595 194.756 282.716L193.164 281.512C192.071 280.681 190.99 279.836 189.92 278.976L188.474 277.815C187.112 276.699 185.765 275.563 184.434 274.41L183.991 274.037C182.556 272.771 181.14 271.485 179.744 270.177L178.546 269.026C177.513 268.042 176.495 267.051 175.495 266.033L174.299 264.84C173.029 263.541 171.781 262.22 170.554 260.88L170.369 260.683C169.076 259.265 167.81 257.824 166.57 256.361L165.576 255.18C164.649 254.065 163.738 252.938 162.841 251.8L161.84 250.553C160.768 249.167 159.715 247.765 158.683 246.348C130.206 207.503 119.973 153.93 142.734 109.933M202.802 104.228C184.105 131.13 185.123 167.144 199.705 195.594C202.146 200.377 204.909 204.989 207.974 209.397C210.775 213.412 213.881 218.188 217.598 221.413C218.957 222.902 220.356 224.354 221.793 225.768L222.899 226.858C224.295 228.219 225.724 229.545 227.184 230.837L227.357 230.987L227.399 231.03C229.032 232.452 230.701 233.833 232.403 235.171L233.54 236.057C235.252 237.376 236.997 238.65 238.773 239.88L238.926 239.994C239.713 240.538 240.515 241.044 241.314 241.569L242.446 242.317C243.721 243.135 245.013 243.932 246.325 244.696L246.876 245.015C248.008 245.666 249.154 246.308 250.305 246.932L251.526 247.567C252.32 247.982 253.115 248.406 253.923 248.809L254.287 248.973C255.934 249.784 257.596 250.567 259.293 251.305L260.399 251.76C261.756 252.337 263.127 252.899 264.501 253.424L266.259 254.069C267.508 254.533 268.762 254.955 270.025 255.379L271.729 255.925C273.527 256.483 275.303 257.188 277.176 257.5C373.698 273.491 395.983 199.173 395.983 199.173C375.897 228.102 336.995 241.907 295.485 231.13C293.65 230.648 291.827 230.121 290.017 229.551L288.374 229.019C287.092 228.604 285.817 228.165 284.552 227.701L282.827 227.059C281.446 226.529 280.073 225.976 278.711 225.4L277.602 224.931C275.905 224.192 274.227 223.412 272.568 222.59C271.717 222.175 270.881 221.737 270.041 221.305L268.584 220.555C267.508 219.973 266.443 219.371 265.389 218.751L264.625 218.317C263.319 217.556 262.029 216.768 260.756 215.955L259.588 215.176C258.747 214.633 257.912 214.08 257.083 213.519C255.314 212.289 253.574 211.017 251.866 209.704L250.691 208.778C232.523 194.434 218.118 174.826 211.272 152.596C204.095 129.543 205.642 103.663 218.076 82.6584M270.29 80.842C259.27 97.0608 258.187 117.203 265.834 135.114C273.899 154.129 290.423 169.042 309.709 176.118C310.504 176.411 311.301 176.673 312.105 176.948L313.162 177.283C314.298 177.639 315.426 178.054 316.6 178.276C369.897 188.575 384.353 150.927 388.199 145.384C375.538 163.616 354.257 167.992 328.145 161.655C326.083 161.155 323.816 160.41 321.829 159.705C319.276 158.797 316.772 157.758 314.327 156.59C309.688 154.356 305.282 151.668 301.173 148.565C277.809 130.834 263.294 97.0163 278.54 69.4749" fill="#0868AC"/>
<path d="M189.202 421.896C189.202 426.789 187.913 429.235 185.334 429.235C185.071 429.235 184.734 429.22 184.324 429.191C183.943 429.191 183.357 429.132 182.566 429.015C181.804 428.927 181.028 428.751 180.237 428.488C178.333 427.843 177.117 426.906 176.589 425.675C176.589 425.587 176.663 425.382 176.809 425.06C177.073 424.474 177.205 424.137 177.205 424.049C178.171 424.782 179.211 425.47 180.325 426.115C181.438 426.759 182.625 427.082 183.884 427.082C184.734 427.082 185.408 426.466 185.906 425.236C186.375 424.181 186.609 423.126 186.609 422.072C186.609 419.23 186.404 415.539 185.994 410.998C185.408 404.171 185.115 399.835 185.115 397.99C185.115 396.115 185.144 394.591 185.203 393.419C185.115 392.716 185.437 392.189 186.169 391.837C186.726 391.574 187.341 391.442 188.015 391.442C187.751 393.258 187.62 394.694 187.62 395.749C187.62 396.803 187.62 397.902 187.62 399.044C187.649 400.158 187.737 401.798 187.883 403.966C188.059 406.134 188.25 408.302 188.455 410.47C188.953 415.187 189.202 418.996 189.202 421.896ZM186.433 382.038C186.902 382.36 187.136 382.873 187.136 383.576C187.136 384.279 186.873 384.704 186.345 384.85C186.316 384.85 186.199 384.85 185.994 384.85C185.818 384.85 185.51 384.66 185.071 384.279C185.071 383.341 185.291 382.667 185.73 382.257C185.906 382.111 186.14 382.038 186.433 382.038ZM190.784 402.384C190.784 400.509 191.106 398.517 191.75 396.408C192.395 394.269 193.347 392.379 194.607 390.739C195.867 389.098 197.419 387.78 199.265 386.784C201.111 385.788 203.235 385.29 205.637 385.29C205.989 385.26 206.34 385.246 206.692 385.246C210.5 385.246 213.489 386.388 215.657 388.673C217.62 390.753 218.601 393.493 218.601 396.891C218.601 400.231 217.605 403.322 215.613 406.164C215.583 406.31 215.569 406.544 215.569 406.867C215.569 407.16 215.774 407.467 216.184 407.79C216.624 408.112 217.151 408.405 217.766 408.668C218.411 408.932 218.953 409.21 219.392 409.503C219.832 409.796 220.051 410.075 220.051 410.338C220.051 410.573 220.037 410.763 220.007 410.91C219.685 411.144 219.246 411.334 218.689 411.481C218.132 411.598 217.751 411.642 217.546 411.613C217.371 411.554 217.122 411.422 216.799 411.217C216.477 410.983 216.169 410.734 215.876 410.47C215.085 409.855 214.397 409.503 213.811 409.416C212.698 410.47 210.984 411.378 208.669 412.14C202.81 413.986 198.035 413.356 194.343 410.25C191.97 408.229 190.784 405.607 190.784 402.384ZM204.231 410.25C205.989 410.25 207.234 410.177 207.966 410.031C209.548 409.708 210.647 409.035 211.262 408.009L203.22 400.714C203.191 400.685 203.176 400.641 203.176 400.583V400.363C203.176 399.835 203.381 399.513 203.792 399.396C204.202 399.25 204.7 399.176 205.286 399.176C205.901 399.176 206.56 399.411 207.263 399.879C207.996 400.348 208.699 400.905 209.373 401.549C210.046 402.165 210.706 402.809 211.35 403.483C212.024 404.157 212.712 404.699 213.416 405.109C214.91 402.824 215.671 400.333 215.701 397.638C215.73 396.818 215.745 395.895 215.745 394.87C215.598 393.815 215.349 392.863 214.998 392.013C214.294 390.226 212.522 389.054 209.68 388.498C208.303 388.205 207 388.058 205.769 388.058C204.539 388.058 203.806 388.058 203.572 388.058C201.755 388.058 200.085 388.908 198.562 390.607C197.361 391.984 196.335 393.888 195.486 396.32C194.753 398.283 194.387 400.099 194.387 401.769C194.387 404.816 195.251 406.999 196.98 408.317C198.708 409.606 201.125 410.25 204.231 410.25ZM222.644 407.262C222.644 406.793 222.6 406.149 222.512 405.329C222.454 404.479 222.395 403.556 222.336 402.56C222.278 401.564 222.249 400.553 222.249 399.528C222.249 398.502 222.336 397.565 222.512 396.715C222.893 394.811 223.684 393.859 224.885 393.859C225.706 394.093 226.248 394.386 226.511 394.738C226.804 395.089 226.951 395.529 226.951 396.056C226.951 396.554 226.819 397.184 226.555 397.946C225.588 400.495 225.105 402.794 225.105 404.845C225.105 405.519 225.149 406.237 225.237 406.999C225.706 408.961 227.317 409.943 230.071 409.943C231.506 409.943 232.869 409.694 234.158 409.196C236.619 408.288 238.289 407.218 239.167 405.988C239.431 404.64 239.563 403.468 239.563 402.472C239.563 401.447 239.519 400.539 239.431 399.748C239.373 398.957 239.285 398.092 239.167 397.155C239.08 396.188 239.021 395.133 238.992 393.991C239.373 393.815 239.739 393.727 240.09 393.727C240.471 393.727 240.852 393.917 241.233 394.298C241.643 394.679 241.98 395.397 242.244 396.452C242.537 397.506 242.727 398.751 242.815 400.187C242.903 401.593 242.947 403.058 242.947 404.582C242.976 406.105 242.991 407.584 242.991 409.02C242.991 410.426 243.049 411.642 243.167 412.667C242.815 412.99 242.478 413.151 242.156 413.151C240.984 413.151 240.12 411.979 239.563 409.635C239.182 409.958 238.538 410.353 237.629 410.822C235.696 411.876 233.411 412.58 230.774 412.931C230.276 412.99 229.719 413.019 229.104 413.019C228.489 413.019 227.712 412.902 226.775 412.667C225.867 412.433 225.002 411.891 224.182 411.042C223.362 410.192 222.849 408.932 222.644 407.262ZM254.68 410.031C257.258 410.031 261.14 408.859 266.326 406.515C266.648 406.515 266.912 406.632 267.117 406.867C267.322 407.072 267.424 407.321 267.424 407.614C266.252 409.606 264.011 411.159 260.701 412.272C257.39 413.385 254.299 413.576 251.428 412.843C248.176 411.994 246.199 410.163 245.496 407.35C245.437 406.793 245.408 406.046 245.408 405.109C245.408 404.171 245.642 402.941 246.111 401.417C246.609 399.865 247.444 398.4 248.616 397.023C249.788 395.646 251.165 394.562 252.747 393.771C254.329 392.98 256.013 392.584 257.8 392.584C259.5 392.584 261.404 393.17 263.513 394.342C264.509 394.899 265.3 395.529 265.886 396.232C266.472 396.935 266.765 397.653 266.765 398.385C266.765 398.59 266.75 398.795 266.721 399C266.663 400.788 265.798 401.916 264.128 402.384C263.396 402.589 262.546 402.692 261.58 402.692L255.251 402.428C253.142 402.428 251.531 402.882 250.417 403.791C249.773 404.289 249.319 405.036 249.055 406.032C249.788 408.698 251.663 410.031 254.68 410.031ZM262.502 396.452C261.858 395.983 261.184 395.646 260.481 395.441C259.778 395.236 259.192 395.133 258.723 395.133C258.254 395.133 257.493 395.294 256.438 395.617C255.383 395.91 254.446 396.247 253.625 396.627C251.604 397.565 250.593 398.546 250.593 399.572C252.937 399.777 254.695 399.879 255.867 399.879C259.119 399.879 261.316 399.601 262.458 399.044C263.162 398.751 263.513 398.385 263.513 397.946C263.513 397.418 263.176 396.92 262.502 396.452ZM291.638 397.067C290.408 396.188 288.826 395.749 286.892 395.749C285.076 395.749 283.391 396.085 281.838 396.759C278.909 397.99 276.902 399.572 275.818 401.505C275.349 402.384 275.115 403.322 275.115 404.318C275.115 404.494 275.115 404.992 275.115 405.812C275.115 406.603 275.261 407.687 275.554 409.064C275.847 410.412 275.994 411.789 275.994 413.195C275.378 413.224 274.88 413.297 274.5 413.415C274.119 413.532 273.796 413.59 273.533 413.59C273.269 413.59 273.035 413.473 272.83 413.239C272.654 413.004 272.449 412.55 272.214 411.876C272.185 411.701 272.126 411.203 272.039 410.382C271.951 409.562 271.833 408.566 271.687 407.394C271.57 406.222 271.423 404.948 271.248 403.571C271.101 402.165 270.955 400.788 270.808 399.44C270.486 396.51 270.237 394.357 270.061 392.98C270.061 392.277 270.574 391.925 271.599 391.925C272.214 391.925 272.698 392.189 273.049 392.716C273.401 393.214 273.679 393.8 273.884 394.474C274.089 395.119 274.221 395.763 274.28 396.408C274.368 397.052 274.441 397.506 274.5 397.77C278.367 394.313 283.171 392.584 288.914 392.584C289.558 392.584 290.232 392.599 290.935 392.628C291.111 392.599 291.331 392.584 291.594 392.584C291.858 392.584 292.122 392.76 292.385 393.112C292.708 393.522 292.869 394.02 292.869 394.606C292.869 396.071 292.458 396.891 291.638 397.067ZM304.163 429.674C303.547 431.051 302.815 431.74 301.965 431.74C301.555 431.74 301.248 431.549 301.042 431.168C300.867 430.817 300.867 430.392 301.042 429.894C301.687 427.169 302.61 424.064 303.811 420.578C305.042 417.091 305.862 414.748 306.272 413.546C305.247 412.521 303.635 410.47 301.438 407.394C296.926 401.066 294.67 397.594 294.67 396.979C294.67 396.95 294.685 396.92 294.714 396.891L296.384 395.221C298.699 397.36 301.716 400.993 305.437 406.12C306.375 407.409 307.122 408.493 307.678 409.372C308.293 408.141 308.777 407.086 309.128 406.208C309.48 405.299 309.758 404.582 309.963 404.054C310.198 403.498 310.505 402.765 310.886 401.857C311.882 399.425 313.259 396.334 315.017 392.584C315.281 392.467 315.559 392.409 315.852 392.409C316.584 392.409 317.112 392.599 317.434 392.98C317.551 393.126 317.61 393.302 317.61 393.507C317.61 393.683 317.581 393.859 317.522 394.035L304.163 429.674Z" fill="#FC3F96"/>
</svg>
