<svg width="500" height="500" viewBox="0 0 500 500" fill="none" xmlns="http://www.w3.org/2000/svg">
<circle cx="250" cy="250" r="250" fill="#675E7D"/>
<path fill-rule="evenodd" clip-rule="evenodd" d="M306.339 160.448C310.101 171.33 312.81 182.439 313.701 193.954C314.807 208.239 314.301 222.423 311.289 236.474C311.207 236.861 311.034 237.224 310.905 237.599C309.96 237.602 308.997 237.484 308.073 237.627C300.271 238.853 292.476 240.123 284.68 241.387C276.623 242.692 268.553 243.946 260.509 245.341C257.659 245.833 254.132 245.245 252.981 249.187C252.948 249.295 252.62 249.313 252.43 249.374L252.82 225.817L252.423 168.977L256.178 168.332C262.319 167.327 268.459 166.307 274.605 165.33C281.938 164.165 289.279 163.033 296.617 161.896C299.854 161.392 303.095 160.93 306.339 160.448Z" fill="#439934"/>
<path fill-rule="evenodd" clip-rule="evenodd" d="M244.677 318.046C240.716 314.641 236.617 311.385 232.82 307.804C212.39 288.534 197.446 265.853 190.087 238.509C188.059 230.983 186.707 223.335 186.273 215.559C185.969 210.116 185.528 204.625 185.913 199.211C186.937 184.811 189.018 170.549 193.241 156.679L193.473 156.355C193.884 156.902 194.474 157.384 194.683 158.001C198.805 170.141 202.898 182.291 206.969 194.448C219.761 232.652 232.537 270.864 245.35 309.058C245.601 309.803 246.25 310.415 246.716 311.087L244.677 318.046Z" fill="#45A538"/>
<path fill-rule="evenodd" clip-rule="evenodd" d="M306.339 160.448C303.095 160.931 299.852 161.392 296.615 161.891C289.277 163.028 281.936 164.16 274.602 165.325C268.457 166.302 262.316 167.322 256.176 168.327L252.421 168.972L252.393 166.523C252.269 164.509 252.055 162.498 252.032 160.485C251.87 147.646 251.77 134.807 251.61 121.968C251.512 113.931 251.364 105.897 251.2 97.8625C251.099 92.8704 250.991 87.8758 250.766 82.8907C250.645 80.2118 250.213 77.5469 250.037 74.868C249.939 73.3282 250.075 71.7766 250.105 70.2297C252.02 73.9399 253.893 77.6782 255.862 81.3602C258.972 87.1821 263.927 91.4711 268.387 96.1516C286.019 114.648 298.537 136.155 306.339 160.448Z" fill="#46A037"/>
<path fill-rule="evenodd" clip-rule="evenodd" d="M252.428 249.372C252.618 249.311 252.948 249.292 252.979 249.184C254.13 245.242 257.657 245.83 260.507 245.338C268.551 243.946 276.62 242.69 284.678 241.384C292.473 240.121 300.269 238.851 308.071 237.625C308.995 237.48 309.958 237.599 310.902 237.597C309.445 242.8 308.296 248.116 306.447 253.176C304.347 258.916 301.806 264.517 299.109 270.009C295.07 278.199 290.072 285.881 284.219 292.891C279.721 298.3 274.708 303.299 269.683 308.238C266.905 310.968 263.631 313.192 260.584 315.646L259.795 315.107L256.949 312.674L254.005 306.222C251.995 298.695 250.898 290.953 250.738 283.164L250.792 281.849L251.193 276.163C251.327 274.223 251.505 272.284 251.587 270.339C251.889 263.35 252.152 256.361 252.428 249.372Z" fill="#409433"/>
<path fill-rule="evenodd" clip-rule="evenodd" d="M252.428 249.372C252.152 256.361 251.889 263.35 251.591 270.341C251.509 272.287 251.331 274.225 251.198 276.166L249.405 276.843C245.423 265.12 241.438 253.52 237.541 241.891C231.095 222.651 224.727 203.381 218.291 184.136C213.093 168.603 207.859 153.082 202.588 137.573C202.342 136.846 201.634 136.279 201.142 135.637L212.617 114.538C213.011 115.223 213.531 115.863 213.78 116.598C219.094 132.307 224.382 148.024 229.642 163.75C236.477 184.211 243.269 204.688 250.098 225.152C250.37 225.97 250.82 226.724 251.249 227.641L252.82 225.813L252.428 249.372Z" fill="#4FAA41"/>
<path fill-rule="evenodd" clip-rule="evenodd" d="M201.145 135.639C201.637 136.281 202.342 136.848 202.591 137.575C207.861 153.084 213.096 168.605 218.294 184.138C224.73 203.383 231.098 222.653 237.543 241.893C241.438 253.52 245.423 265.122 249.407 276.845L251.2 276.168L250.799 281.854L250.436 283.164C249.812 289.389 249.287 295.628 248.528 301.839C248.146 304.952 247.335 308.008 246.719 311.09C246.255 310.417 245.603 309.805 245.352 309.06C232.539 270.864 219.763 232.654 206.971 194.451C202.901 182.293 198.806 170.144 194.685 158.003C194.477 157.387 193.888 156.904 193.476 156.358L201.145 135.639Z" fill="#4AA73C"/>
<path fill-rule="evenodd" clip-rule="evenodd" d="M252.817 225.815L251.247 227.643C250.818 226.727 250.368 225.97 250.096 225.154C243.269 204.691 236.474 184.213 229.64 163.752C224.379 148.026 219.092 132.309 213.777 116.601C213.531 115.865 213.011 115.223 212.615 114.541L226.806 95.8727C227.254 96.4703 227.891 97.0024 228.123 97.675C232.063 109.209 235.968 120.756 239.849 132.311C243.475 143.102 247.047 153.909 250.715 164.685C250.961 165.407 251.816 165.918 252.388 166.527L252.416 168.977C252.552 187.919 252.686 206.868 252.817 225.815Z" fill="#57AE47"/>
<path fill-rule="evenodd" clip-rule="evenodd" d="M252.393 166.523C251.821 165.913 250.966 165.402 250.72 164.68C247.052 153.904 243.48 143.097 239.854 132.306C235.973 120.752 232.068 109.206 228.128 97.6703C227.896 96.9976 227.259 96.4656 226.811 95.8679C231.426 91.3492 235.898 86.6687 240.698 82.3586C244.966 78.5289 248.397 74.4226 248.554 68.3711C248.561 68.1203 248.692 67.8695 248.894 67.1664L250.11 70.2273C250.08 71.7765 249.941 73.3258 250.042 74.8656C250.218 77.5445 250.649 80.2094 250.771 82.8883C250.996 87.8734 251.104 92.8679 251.205 97.8601C251.366 105.895 251.514 113.929 251.615 121.966C251.772 134.805 251.875 147.644 252.037 160.483C252.055 162.501 252.266 164.509 252.393 166.523Z" fill="#60B24F"/>
<path fill-rule="evenodd" clip-rule="evenodd" d="M246.714 311.088C247.33 308.005 248.141 304.947 248.523 301.837C249.285 295.628 249.808 289.387 250.431 283.162L250.586 283.138L250.741 283.164C250.9 290.953 251.997 298.695 254.008 306.222C253.595 306.766 253.012 307.251 252.794 307.865C251.09 312.67 249.484 317.512 247.771 322.316C247.537 322.973 246.885 323.484 246.426 324.06L244.675 318.046L246.714 311.088Z" fill="#A9AA88"/>
<path fill-rule="evenodd" clip-rule="evenodd" d="M246.428 324.063C246.888 323.486 247.541 322.975 247.773 322.319C249.487 317.514 251.095 312.674 252.796 307.867C253.014 307.253 253.595 306.768 254.01 306.224L256.952 312.679C256.37 313.504 255.569 314.247 255.245 315.166L249.611 331.71C249.379 332.373 248.587 332.842 248.057 333.402L246.428 324.063Z" fill="#B6B598"/>
<path fill-rule="evenodd" clip-rule="evenodd" d="M248.057 333.4C248.589 332.842 249.379 332.371 249.611 331.708L255.245 315.163C255.566 314.247 256.37 313.502 256.952 312.677L259.799 315.107C258.423 316.466 257.659 318.037 258.119 320.022L257.254 322.853C256.86 323.338 256.291 323.76 256.096 324.316C254.13 329.948 252.252 335.61 250.272 341.242C250.021 341.957 249.325 342.517 248.833 343.145C248.577 339.895 248.317 336.651 248.057 333.4Z" fill="#C2C1A7"/>
<path fill-rule="evenodd" clip-rule="evenodd" d="M248.835 343.145C249.325 342.515 250.021 341.955 250.274 341.242C252.255 335.613 254.132 329.95 256.098 324.316C256.293 323.763 256.86 323.338 257.256 322.853L256.063 335.849C255.745 336.217 255.283 336.538 255.13 336.967C253.783 340.75 252.513 344.561 251.16 348.344C250.881 349.124 250.347 349.813 249.93 350.542C249.559 350.057 248.896 349.588 248.866 349.082C248.746 347.111 248.828 345.126 248.835 343.145Z" fill="#CECDB7"/>
<path fill-rule="evenodd" clip-rule="evenodd" d="M249.927 350.542C250.345 349.811 250.879 349.122 251.158 348.344C252.513 344.563 253.78 340.752 255.128 336.967C255.28 336.538 255.745 336.22 256.061 335.849L256.089 344.38L253.234 351.702L249.927 350.542Z" fill="#DBDAC7"/>
<path fill-rule="evenodd" clip-rule="evenodd" d="M253.234 351.705L256.089 344.383L256.677 353.045L253.234 351.705Z" fill="#EBE9DC"/>
<path fill-rule="evenodd" clip-rule="evenodd" d="M258.119 320.024C257.659 318.039 258.421 316.466 259.799 315.109L260.589 315.648L258.119 320.024Z" fill="#CECDB7"/>
<path fill-rule="evenodd" clip-rule="evenodd" d="M250.741 283.166L250.586 283.141L250.431 283.164L250.795 281.854L250.741 283.166Z" fill="#4FAA41"/>
<path d="M158.044 405.768L158.22 408.976C158.22 409.152 158.206 409.474 158.176 409.943C158.176 410.412 158 410.837 157.649 411.217C157.327 411.569 156.917 411.745 156.418 411.745C155.95 411.745 155.583 411.73 155.32 411.701C154.353 411.701 153.87 411.276 153.87 410.426C153.87 409.723 154.192 406.896 154.836 401.945C155.481 396.964 155.891 393.756 156.067 392.321C156.243 390.885 156.389 389.684 156.506 388.717C156.653 387.721 156.755 386.989 156.814 386.52C156.873 386.051 156.96 385.583 157.078 385.114C157.195 384.645 157.371 384.264 157.605 383.971C158.044 383.415 158.894 383.136 160.154 383.136C162.263 384.191 164.431 387.179 166.658 392.101C168.24 395.617 169.294 397.843 169.822 398.781C170.349 399.718 170.862 400.363 171.36 400.714L180.149 385.422C180.764 384.982 181.233 384.762 181.555 384.762C182.493 384.762 183.21 385.187 183.708 386.037C184.207 386.886 184.617 387.926 184.939 389.157C185.291 390.358 185.583 391.691 185.818 393.156C186.082 394.621 186.301 396.159 186.477 397.77C186.682 399.352 186.873 400.905 187.048 402.428C187.458 406.09 187.766 408.39 187.971 409.328C188.206 410.265 188.323 410.939 188.323 411.349C188.323 411.73 188.191 412.111 187.927 412.492C187.664 412.843 187.297 413.019 186.829 413.019C186.36 413.019 185.891 412.843 185.422 412.492C184.954 412.111 184.661 411.657 184.543 411.13C184.456 410.573 184.353 409.855 184.236 408.976C184.148 408.097 184.031 407.116 183.884 406.032C183.738 404.919 183.591 403.761 183.445 402.56C183.298 401.33 183.152 400.158 183.005 399.045C182.859 397.931 182.727 396.95 182.61 396.1C182.493 395.221 182.405 394.562 182.346 394.123C182.346 393.537 182.332 392.995 182.302 392.497C182.273 391.999 182.156 391.691 181.951 391.574C181.746 391.457 181.423 391.603 180.984 392.013C180.574 392.394 179.988 393.185 179.226 394.386C177.585 396.935 175.212 401.227 172.107 407.262C171.697 407.995 171.155 408.156 170.481 407.746C169.69 407.306 169.016 406.178 168.459 404.362L160.374 387.179C159.67 388.586 159.026 393.244 158.44 401.154C158.352 402.121 158.293 402.941 158.264 403.615C158.118 404.347 158.044 405.065 158.044 405.768ZM192.146 404.757C192.146 401.3 193.64 398.517 196.628 396.408C199.001 394.738 201.858 393.727 205.198 393.376C205.374 393.376 205.784 393.376 206.428 393.376C207.073 393.376 207.937 393.566 209.021 393.947C211.423 394.767 213.064 396.217 213.943 398.297C214.294 399.118 214.47 399.821 214.47 400.407C214.47 400.964 214.456 401.359 214.426 401.593C214.426 405.255 213.035 408.141 210.251 410.251C207.673 412.184 204.451 413.151 200.583 413.151C197.8 413.151 195.691 412.506 194.255 411.217C192.849 409.928 192.146 407.775 192.146 404.757ZM195.178 405.812C195.178 407.629 195.662 408.859 196.628 409.504C197.361 409.972 198.591 410.207 200.32 410.207C202.048 410.207 203.572 410.075 204.89 409.811C206.208 409.547 207.38 409.093 208.406 408.449C210.603 407.043 211.702 404.86 211.702 401.901C211.702 400.143 211.233 398.708 210.295 397.594C209.27 396.393 207.922 395.793 206.252 395.793C205.11 395.998 203.953 396.217 202.781 396.452C201.638 396.686 200.554 397.14 199.529 397.814C197.302 399.25 195.852 401.916 195.178 405.812ZM233.499 403.483C233.499 399.997 233.308 397.433 232.927 395.793C233.162 395.353 232.81 395.133 231.873 395.133C230.876 395.133 229.587 395.382 228.005 395.88C226.423 396.379 225.134 396.877 224.138 397.375C221.765 398.517 220.447 399.63 220.183 400.714V412.668H217.239C216.858 411.672 216.667 408.874 216.667 404.274C216.667 400.172 216.741 397.155 216.887 395.221C217.063 393.288 217.195 392.189 217.283 391.925C218.044 391.427 218.66 391.178 219.128 391.178C219.861 391.178 220.227 392.043 220.227 393.771C220.227 394.445 220.183 395.104 220.095 395.749C220.037 396.364 220.007 396.789 220.007 397.023C224.753 393.537 228.43 391.794 231.038 391.794C233.997 391.794 235.681 394.181 236.091 398.957C236.267 400.627 236.355 402.941 236.355 405.9L236.311 409.372C236.311 410.661 236.34 411.906 236.399 413.107C236.106 413.283 235.872 413.371 235.696 413.371C235.608 413.341 235.417 413.297 235.125 413.239C234.832 413.18 234.451 413.136 233.982 413.107C233.689 411.935 233.528 410.749 233.499 409.547C233.469 408.317 233.455 407.189 233.455 406.164L233.499 403.483ZM251.56 431.916L250.945 431.872C250.066 431.872 249.128 431.93 248.132 432.047H246.462C244.705 432.047 243.328 431.711 242.332 431.037C241.804 430.685 241.541 430.158 241.541 429.455L251.648 428.971C254.753 428.883 256.306 427.214 256.306 423.962C256.306 423.844 256.306 423.639 256.306 423.346C256.306 423.083 256.306 422.482 256.306 421.545L256.526 407.394C256.526 406.896 256.511 406.486 256.482 406.164C251.736 410.588 247.166 412.799 242.771 412.799C242.39 412.799 242.009 412.785 241.628 412.755C239.666 412.755 238.684 411.891 238.684 410.163C238.743 408.815 239.138 407.336 239.871 405.724C240.603 404.084 241.541 402.516 242.683 401.022C243.855 399.499 245.173 398.136 246.638 396.935C248.894 395.089 251.077 394.167 253.186 394.167C255.647 394.167 257.668 395.47 259.25 398.078C259.719 405.05 259.954 410.002 259.954 412.931C259.954 415.861 259.91 418.263 259.822 420.138C259.734 422.013 259.529 423.727 259.207 425.28C258.914 426.833 258.518 428.063 258.02 428.971C257.522 429.88 256.936 430.539 256.262 430.949C255.149 431.593 253.582 431.916 251.56 431.916ZM254.197 397.375C253.845 397.257 253.347 397.199 252.703 397.199C252.087 397.199 251.282 397.463 250.286 397.99C249.29 398.517 248.337 399.206 247.429 400.055C246.521 400.876 245.671 401.798 244.88 402.824C242.947 405.343 241.98 407.35 241.98 408.844C241.98 409.313 242.112 409.665 242.375 409.899C242.581 410.016 242.83 410.075 243.123 410.075C243.445 410.075 243.899 410.031 244.485 409.943C245.071 409.826 245.862 409.562 246.858 409.152C247.883 408.713 248.938 408.156 250.022 407.482C251.106 406.808 252.087 406.061 252.966 405.241C255.017 403.366 256.042 401.535 256.042 399.748C256.042 398.664 255.427 397.873 254.197 397.375ZM263.162 404.757C263.162 401.3 264.656 398.517 267.644 396.408C270.017 394.738 272.874 393.727 276.213 393.376C276.389 393.376 276.799 393.376 277.444 393.376C278.088 393.376 278.953 393.566 280.037 393.947C282.439 394.767 284.08 396.217 284.958 398.297C285.31 399.118 285.486 399.821 285.486 400.407C285.486 400.964 285.471 401.359 285.442 401.593C285.442 405.255 284.05 408.141 281.267 410.251C278.689 412.184 275.466 413.151 271.599 413.151C268.816 413.151 266.707 412.506 265.271 411.217C263.865 409.928 263.162 407.775 263.162 404.757ZM266.194 405.812C266.194 407.629 266.677 408.859 267.644 409.504C268.376 409.972 269.607 410.207 271.335 410.207C273.064 410.207 274.587 410.075 275.906 409.811C277.224 409.547 278.396 409.093 279.421 408.449C281.619 407.043 282.717 404.86 282.717 401.901C282.717 400.143 282.249 398.708 281.311 397.594C280.286 396.393 278.938 395.793 277.268 395.793C276.125 395.998 274.968 396.217 273.796 396.452C272.654 396.686 271.57 397.14 270.544 397.814C268.318 399.25 266.868 401.916 266.194 405.812ZM290.803 386.125C292.971 385.363 295.842 384.982 299.417 384.982C305.95 384.982 310.417 386.593 312.82 389.816C313.757 391.047 314.226 392.614 314.226 394.518C314.255 394.782 314.27 395.046 314.27 395.309C314.27 398.239 312.556 401.213 309.128 404.23C305.994 407.072 302.126 409.357 297.527 411.086C294.48 412.257 291.96 412.843 289.968 412.843C289.148 412.843 288.445 412.726 287.859 412.492V385.07H288.474C289.148 385.07 289.69 385.187 290.1 385.422C290.51 385.627 290.745 385.861 290.803 386.125ZM311.282 394.87C311.018 392.262 309.568 390.329 306.931 389.069C304.968 388.131 302.507 387.663 299.548 387.663L298.757 387.707C295.974 387.765 293.572 388.205 291.55 389.025V409.987C293.601 409.987 296.165 409.24 299.241 407.746C304.573 405.109 308.235 402.047 310.227 398.561C310.93 397.331 311.282 396.1 311.282 394.87ZM318.225 383.927C320.393 383.459 322.444 383.224 324.377 383.224C326.311 383.224 328.025 383.297 329.519 383.444C331.042 383.59 332.566 383.869 334.089 384.279C337.312 385.187 339.304 386.418 340.066 387.97C340.271 388.293 340.374 388.673 340.374 389.113C340.374 390.402 339.246 391.794 336.99 393.288C335.496 394.284 333.357 395.295 330.574 396.32C337.4 396.701 342.029 397.697 344.46 399.308C345.808 400.158 346.482 401.154 346.482 402.297C346.482 403.879 345.369 405.519 343.142 407.218C340.71 409.035 337.605 410.544 333.826 411.745C330.339 412.858 327.102 413.415 324.114 413.415C321.829 413.415 319.866 413.078 318.225 412.404C318.167 410.529 318.093 408.595 318.005 406.603C317.771 402.179 317.654 398.459 317.654 395.441C317.654 392.394 317.756 389.23 317.961 385.949C317.639 385.949 317.346 385.92 317.083 385.861C316.819 385.773 316.687 385.48 316.687 384.982C316.687 384.279 317.2 383.927 318.225 383.927ZM322.18 410.207C326.897 409.943 330.764 409.386 333.782 408.537C336.799 407.658 338.967 406.72 340.286 405.724C341.633 404.699 342.307 403.717 342.307 402.78C342.307 401.549 341.428 400.568 339.67 399.836C337.766 399.074 335.232 398.693 332.068 398.693C328.933 398.693 325.286 399.118 321.125 399.967L322.18 410.207ZM326.267 386.081H325.168C322.766 386.081 321.418 386.33 321.125 386.828L320.686 395.661C323.323 395.661 326.531 395.031 330.31 393.771C332.771 392.922 334.573 391.984 335.715 390.959C336.301 390.431 336.594 389.889 336.594 389.333C336.594 388.776 336.375 388.322 335.935 387.97C335.525 387.589 334.983 387.282 334.309 387.047C333.665 386.813 332.932 386.637 332.112 386.52C331.321 386.374 330.544 386.271 329.783 386.213C328.611 386.125 327.439 386.081 326.267 386.081Z" fill="#FC3F96"/>
</svg>
