<svg width="500" height="500" viewBox="0 0 500 500" fill="none" xmlns="http://www.w3.org/2000/svg">
<circle cx="250" cy="250" r="250" fill="#675E7D"/>
<g clip-path="url(#clip0_70_476)">
<path d="M329.688 60.1069H170.312C131.48 60.1069 100 91.5869 100 130.419V289.794C100 328.627 131.48 360.107 170.312 360.107H329.688C368.52 360.107 400 328.627 400 289.794V130.419C400 91.5869 368.52 60.1069 329.688 60.1069Z" fill="#F4F2ED"/>
<mask id="mask0_70_476" style="mask-type:luminance" maskUnits="userSpaceOnUse" x="144" y="104" width="212" height="212">
<path d="M144.531 104.638H355.469V315.576H144.531V104.638Z" fill="white"/>
</mask>
<g mask="url(#mask0_70_476)">
<path fill-rule="evenodd" clip-rule="evenodd" d="M338.829 268.947C327.357 268.628 318.456 269.803 310.997 272.942C308.849 273.804 305.403 273.804 305.119 276.508C306.268 277.642 306.406 279.498 307.413 281.071C309.132 283.924 312.148 287.768 314.871 289.763L324.052 296.323C329.646 299.741 335.958 301.739 341.409 305.161C344.566 307.158 347.72 309.724 350.877 311.865C352.485 313.006 353.459 314.863 355.469 315.572V315.141C354.466 313.862 354.176 312.01 353.177 310.578L348.868 306.446C344.711 300.886 339.543 296.035 333.948 292.047C329.357 288.91 319.319 284.633 317.453 279.361L317.171 279.041C320.322 278.723 324.052 277.613 327.067 276.757C331.948 275.479 336.392 275.76 341.409 274.478L348.299 272.481V271.203C345.716 268.637 343.852 265.214 341.129 262.793C333.814 256.52 325.775 250.388 317.453 245.256C313.007 242.406 307.267 240.549 302.534 238.13C300.808 237.273 297.943 236.846 296.939 235.421C294.351 232.289 292.92 228.15 291.055 224.441L279.293 199.635C276.712 194.074 275.13 188.514 271.979 183.382C257.2 159.144 241.13 144.462 216.455 130.06C211.15 127.065 204.838 125.778 198.127 124.212L187.369 123.638C185.07 122.64 182.777 119.93 180.768 118.646C172.591 113.513 151.502 102.394 145.471 117.048C141.598 126.314 151.212 135.437 154.476 140.145C156.919 143.424 160.07 147.129 161.796 150.837C162.761 153.259 163.083 155.828 164.09 158.394C166.382 164.666 168.536 171.655 171.549 177.503C173.157 180.497 174.845 183.638 176.854 186.345C178.002 187.942 180.012 188.626 180.44 191.192C178.43 194.045 178.292 198.318 177.143 201.887C171.977 217.998 173.986 237.958 181.301 249.819C183.6 253.382 189.018 261.226 196.369 258.23C202.825 255.664 201.385 247.538 203.249 240.408C203.683 238.699 203.395 237.558 204.252 236.414V236.734L210.136 248.567C214.584 255.552 222.333 262.825 228.786 267.675C232.226 270.242 234.953 274.664 239.255 276.23V275.799H238.973C238.11 274.52 236.818 273.945 235.67 272.947C233.089 270.382 230.22 267.244 228.21 264.394C222.188 256.411 216.883 247.569 212.146 238.446C209.848 234.027 207.838 229.179 205.98 224.76C205.111 223.048 205.111 220.478 203.68 219.628C201.525 222.76 198.375 225.476 196.79 229.323C194.063 235.452 193.78 243.01 192.777 250.852C192.198 250.995 192.455 250.852 192.198 251.171C187.613 250.034 186.031 245.323 184.312 241.335C180.009 231.212 179.288 214.96 183.018 203.268C184.021 200.274 188.33 190.864 186.61 188.012C185.743 185.303 182.88 183.737 181.298 181.596C179.433 178.887 177.43 175.467 176.138 172.473C172.697 164.485 170.977 155.649 167.243 147.665C165.517 143.957 162.508 140.106 160.067 136.688C157.34 132.837 154.334 130.126 152.18 125.567C151.463 123.969 150.46 121.432 151.607 119.719C151.891 118.579 152.468 118.122 153.611 117.866C155.474 116.268 160.788 118.294 162.652 119.144C167.957 121.285 172.404 123.279 176.852 126.27C178.861 127.695 181.015 130.405 183.597 131.121H186.613C191.205 132.117 196.366 131.44 200.664 132.719C208.27 135.147 215.153 138.707 221.327 142.56C240.118 154.394 255.616 171.217 266.084 191.323C267.804 194.602 268.521 197.596 270.104 201.018C273.12 208.007 276.85 215.133 279.856 221.98C282.872 228.681 285.74 235.53 290.043 241.089C292.197 244.083 300.801 245.649 304.673 247.218C307.544 248.496 311.988 249.647 314.576 251.213C319.45 254.207 324.329 257.629 328.916 260.908C331.209 262.614 338.386 266.18 338.813 269.024L338.829 268.947ZM192.529 145.053C190.547 145.035 188.572 145.275 186.652 145.765V146.085H186.934C188.083 148.367 190.093 149.936 191.526 151.933L194.828 158.776L195.112 158.458C197.12 157.033 198.127 154.751 198.127 151.333C197.266 150.335 197.124 149.335 196.407 148.337C195.545 146.912 193.681 146.196 192.529 145.06V145.053Z" fill="#00678C"/>
</g>
</g>
<path d="M178.896 412.404C177.695 412.902 176.89 413.151 176.479 413.151C176.099 413.151 175.835 413.107 175.688 413.019C175.542 412.931 175.381 412.726 175.205 412.404C175.205 411.437 175.234 410.221 175.293 408.756C175.381 407.292 175.454 405.724 175.513 404.054C175.571 402.384 175.601 400.7 175.601 399C175.601 397.301 175.513 395.749 175.337 394.342C175.337 393.405 175.967 392.936 177.227 392.936C177.52 392.936 177.739 393.463 177.886 394.518C178.062 395.573 178.179 396.393 178.237 396.979C178.325 397.565 178.398 397.99 178.457 398.253C179.219 396.876 180.728 395.792 182.983 395.001C184.185 394.621 185.312 394.43 186.367 394.43C187.422 394.43 188.345 394.562 189.136 394.826C189.956 395.06 190.645 395.514 191.201 396.188C191.787 396.833 192.08 397.697 192.08 398.781C192.842 397.345 194.556 396.056 197.222 394.914C199.653 393.83 201.836 393.288 203.77 393.288C206.553 393.288 207.915 394.342 207.856 396.452L208.779 412.799C208.779 412.946 208.354 413.048 207.505 413.107C205.864 413.224 205.044 413.078 205.044 412.667C205.015 412.082 205 411.496 205 410.91L205.22 403.834C205.22 400.524 204.897 397.902 204.253 395.968C202.319 396.115 200.825 396.437 199.771 396.935C198.745 397.404 197.837 398.004 197.046 398.737C196.255 399.44 195.552 400.392 194.937 401.593C193.56 404.289 192.871 407.863 192.871 412.316C192.695 412.931 192.124 413.239 191.157 413.239C190.513 413.239 189.985 413.136 189.575 412.931C189.165 412.697 189.004 412.492 189.092 412.316C189.648 409.21 189.927 406.793 189.927 405.065C189.927 403.688 189.78 402.384 189.487 401.154C189.224 399.894 188.887 398.458 188.477 396.847C184.258 396.847 181.416 398.532 179.951 401.901C179.307 403.395 178.94 404.801 178.853 406.12C178.794 407.409 178.765 408.522 178.765 409.459C178.765 410.368 178.809 411.349 178.896 412.404ZM219.546 429.674C218.931 431.051 218.198 431.74 217.349 431.74C216.938 431.74 216.631 431.549 216.426 431.168C216.25 430.817 216.25 430.392 216.426 429.894C217.07 427.169 217.993 424.064 219.194 420.578C220.425 417.091 221.245 414.748 221.655 413.546C220.63 412.521 219.019 410.47 216.821 407.394C212.31 401.066 210.054 397.594 210.054 396.979C210.054 396.95 210.068 396.92 210.098 396.891L211.768 395.221C214.082 397.36 217.1 400.993 220.82 406.12C221.758 407.409 222.505 408.493 223.062 409.372C223.677 408.141 224.16 407.086 224.512 406.208C224.863 405.299 225.142 404.582 225.347 404.054C225.581 403.498 225.889 402.765 226.27 401.857C227.266 399.425 228.643 396.334 230.4 392.584C230.664 392.467 230.942 392.409 231.235 392.409C231.968 392.409 232.495 392.599 232.817 392.98C232.935 393.126 232.993 393.302 232.993 393.507C232.993 393.683 232.964 393.859 232.905 394.035L219.546 429.674ZM234.443 409.284C234.443 408.727 234.663 408.244 235.103 407.833C235.571 407.394 235.923 407.101 236.157 406.955C236.421 406.779 236.597 406.647 236.685 406.559C236.831 409.225 238.633 410.558 242.09 410.558C244.814 410.558 247.993 409.708 251.626 408.009C254.204 406.837 255.933 405.636 256.812 404.406C257.104 404.025 257.251 403.717 257.251 403.483C257.251 403.219 257.207 403.014 257.119 402.868L238.882 398.781C238.354 398.664 237.842 398.415 237.344 398.034C236.436 397.389 235.981 396.803 235.981 396.276C235.981 394.254 237.417 392.423 240.288 390.783C243.452 388.996 247.686 387.648 252.988 386.74C254.189 386.535 255.083 386.417 255.669 386.388C255.845 386.447 256.108 386.505 256.46 386.564C256.841 386.593 257.222 386.652 257.603 386.74C258.511 386.945 258.892 387.326 258.745 387.882C258.745 388.878 256.841 389.669 253.032 390.255C248.11 390.988 245.034 391.603 243.804 392.101C242.603 392.599 241.724 393.112 241.167 393.639C240.64 394.167 240.361 394.796 240.332 395.529C240.332 395.675 240.669 395.836 241.343 396.012C242.017 396.188 242.822 396.408 243.76 396.671C244.697 396.906 245.913 397.228 247.407 397.638C251.04 398.634 255.493 399.894 260.767 401.417C261.06 402.062 261.206 402.663 261.206 403.219C261.206 404.772 260.298 406.266 258.481 407.702C256.431 409.313 253.589 410.675 249.956 411.789C246.938 412.697 244.536 413.151 242.749 413.151C241.255 413.151 239.834 412.887 238.486 412.36C237.139 411.833 236.128 411.32 235.454 410.822C234.78 410.324 234.443 409.811 234.443 409.284ZM263.887 402.384C263.887 400.509 264.209 398.517 264.854 396.408C265.498 394.269 266.45 392.379 267.71 390.739C268.97 389.098 270.522 387.78 272.368 386.784C274.214 385.788 276.338 385.29 278.74 385.29C279.092 385.26 279.443 385.246 279.795 385.246C283.604 385.246 286.592 386.388 288.76 388.673C290.723 390.753 291.704 393.493 291.704 396.891C291.704 400.231 290.708 403.322 288.716 406.164C288.687 406.31 288.672 406.544 288.672 406.867C288.672 407.16 288.877 407.467 289.287 407.79C289.727 408.112 290.254 408.405 290.869 408.668C291.514 408.932 292.056 409.21 292.495 409.503C292.935 409.796 293.154 410.075 293.154 410.338C293.154 410.573 293.14 410.763 293.11 410.91C292.788 411.144 292.349 411.334 291.792 411.481C291.235 411.598 290.854 411.642 290.649 411.613C290.474 411.554 290.225 411.422 289.902 411.217C289.58 410.983 289.272 410.734 288.979 410.47C288.188 409.855 287.5 409.503 286.914 409.416C285.801 410.47 284.087 411.378 281.772 412.14C275.913 413.986 271.138 413.356 267.446 410.25C265.073 408.229 263.887 405.607 263.887 402.384ZM277.334 410.25C279.092 410.25 280.337 410.177 281.069 410.031C282.651 409.708 283.75 409.035 284.365 408.009L276.323 400.714C276.294 400.685 276.279 400.641 276.279 400.583V400.363C276.279 399.835 276.484 399.513 276.895 399.396C277.305 399.25 277.803 399.176 278.389 399.176C279.004 399.176 279.663 399.411 280.366 399.879C281.099 400.348 281.802 400.905 282.476 401.549C283.149 402.165 283.809 402.809 284.453 403.483C285.127 404.157 285.815 404.699 286.519 405.109C288.013 402.824 288.774 400.333 288.804 397.638C288.833 396.818 288.848 395.895 288.848 394.87C288.701 393.815 288.452 392.863 288.101 392.013C287.397 390.226 285.625 389.054 282.783 388.498C281.406 388.205 280.103 388.058 278.872 388.058C277.642 388.058 276.909 388.058 276.675 388.058C274.858 388.058 273.188 388.908 271.665 390.607C270.464 391.984 269.438 393.888 268.589 396.32C267.856 398.283 267.49 400.099 267.49 401.769C267.49 404.816 268.354 406.999 270.083 408.317C271.812 409.606 274.229 410.25 277.334 410.25ZM298.296 393.903L298.208 382.96L301.724 383.092L301.328 408.844L324.487 409.503C324.956 409.65 325.19 409.899 325.19 410.25C325.19 410.602 324.971 410.968 324.531 411.349C323.682 412.111 322.715 412.492 321.631 412.492C321.367 412.492 321.089 412.462 320.796 412.404L297.197 412.184C297.93 409.459 298.296 403.366 298.296 393.903Z" fill="#FC3F96"/>
<defs>
<clipPath id="clip0_70_476">
<rect width="300" height="300" fill="white" transform="translate(100 60.1069)"/>
</clipPath>
</defs>
</svg>
