<svg width="500" height="500" viewBox="0 0 500 500" fill="none" xmlns="http://www.w3.org/2000/svg">
<circle cx="250" cy="250" r="250" fill="#675E7D"/>
<g clip-path="url(#clip0_63_192)">
<path d="M256.933 62.0406C254.78 60.8071 252.342 60.1582 249.861 60.1582C247.379 60.1582 244.941 60.8071 242.788 62.0406L126.023 129.857C121.581 132.37 119.085 137.111 119.085 142.138V278.048C119.085 283.07 121.858 287.814 126.018 290.329L242.784 358.143C244.937 359.377 247.375 360.026 249.857 360.026C252.339 360.026 254.777 359.377 256.931 358.143L373.696 290.327C378.135 287.814 380.629 283.07 380.629 278.045V142.138C380.629 137.113 377.856 132.372 373.696 129.857L256.933 62.0406Z" fill="url(#paint0_linear_63_192)"/>
<path d="M373.977 129.857L256.659 62.0406C255.506 61.4551 254.298 60.9879 253.052 60.6461L121.586 286.977C122.673 288.314 123.988 289.449 125.47 290.329L242.791 358.143C246.119 360.095 250 360.655 253.607 359.538L377.029 132.37C376.219 131.308 375.174 130.449 373.977 129.857Z" fill="url(#paint1_linear_63_192)"/>
<path d="M373.98 290.322C377.308 288.37 379.804 285.02 380.913 281.392L252.498 60.3602C249.17 59.8024 245.563 60.0813 242.514 62.036L126.025 129.573L251.664 360.093C253.328 359.812 255.273 359.254 256.938 358.417L373.98 290.322Z" fill="url(#paint2_linear_63_192)"/>
</g>
<path d="M207.791 397.594C207.791 406.501 207.424 411.715 206.692 413.239L203.484 412.975C201.873 410.192 199.163 406.281 195.354 401.242C193.86 399.25 192.366 397.272 190.872 395.309C189.407 393.346 188.059 391.398 186.829 389.464C186.243 392.072 185.95 397.287 185.95 405.109C185.95 408.097 185.891 410.617 185.774 412.668C185.217 413.195 184.602 413.459 183.928 413.459C183.284 413.459 182.83 413.385 182.566 413.239C182.302 413.122 182.17 412.917 182.17 412.624C182.17 412.301 182.2 411.818 182.258 411.173C182.346 410.5 182.434 409.386 182.522 407.834C182.639 406.281 182.742 404.64 182.83 402.912C183.064 398.4 183.181 394.518 183.181 391.266C183.181 387.985 183.152 385.29 183.093 383.18C183.738 382.594 184.236 382.17 184.587 381.906C184.939 381.642 185.334 381.657 185.774 381.95C186.213 382.214 186.77 382.814 187.444 383.752C188.147 384.66 189.128 386.022 190.388 387.839C194.695 393.962 198.928 399.704 203.088 405.065L203.923 383.18C204.246 382.594 204.568 382.199 204.89 381.994C205.212 381.759 205.637 381.642 206.165 381.642C207.19 381.642 207.703 382.58 207.703 384.455L207.659 386.081L207.791 397.594ZM211.57 404.757C211.57 401.3 213.064 398.517 216.052 396.408C218.425 394.738 221.282 393.727 224.622 393.376C224.797 393.376 225.208 393.376 225.852 393.376C226.497 393.376 227.361 393.566 228.445 393.947C230.847 394.767 232.488 396.217 233.367 398.297C233.718 399.118 233.894 399.821 233.894 400.407C233.894 400.964 233.879 401.359 233.85 401.593C233.85 405.255 232.458 408.141 229.675 410.251C227.097 412.184 223.875 413.151 220.007 413.151C217.224 413.151 215.115 412.506 213.679 411.217C212.273 409.928 211.57 407.775 211.57 404.757ZM214.602 405.812C214.602 407.629 215.085 408.859 216.052 409.504C216.785 409.972 218.015 410.207 219.744 410.207C221.472 410.207 222.996 410.075 224.314 409.811C225.632 409.547 226.804 409.093 227.83 408.449C230.027 407.043 231.125 404.86 231.125 401.901C231.125 400.143 230.657 398.708 229.719 397.594C228.694 396.393 227.346 395.793 225.676 395.793C224.534 395.998 223.376 396.217 222.205 396.452C221.062 396.686 219.978 397.14 218.953 397.814C216.726 399.25 215.276 401.916 214.602 405.812ZM256.57 377.819C256.57 380.631 256.482 383.385 256.306 386.081C256.16 388.747 256.013 391.369 255.867 393.947C255.75 396.496 255.691 399.22 255.691 402.121C255.691 404.992 255.896 408.039 256.306 411.261C256.306 411.935 256.174 412.419 255.911 412.712C255.676 413.005 255.266 413.151 254.68 413.151C253.303 413.151 252.615 412.008 252.615 409.723V408.273C248.455 411.379 244.939 412.931 242.068 412.931C240.925 412.931 239.753 412.653 238.552 412.096C237.38 411.54 236.267 410.412 235.212 408.713C235.066 408.009 234.993 407.292 234.993 406.559C234.993 405.827 235.125 404.948 235.388 403.922C235.681 402.868 236.252 401.784 237.102 400.671C237.981 399.557 239.036 398.576 240.266 397.726C242.961 395.91 245.876 395.002 249.011 395.002C250.359 395.002 251.648 395.207 252.878 395.617C252.878 395.089 252.908 394.167 252.966 392.848C253.054 391.53 253.142 390.138 253.23 388.673C253.406 384.865 253.523 382.624 253.582 381.95C253.64 381.247 253.713 380.661 253.801 380.192C253.918 379.694 254.08 379.269 254.285 378.918C254.724 378.185 255.486 377.819 256.57 377.819ZM238.201 406.208C238.201 408.522 239.036 409.679 240.706 409.679C240.969 409.679 241.262 409.65 241.584 409.591C242.786 409.591 244.265 409.24 246.023 408.537C249.363 407.218 251.399 406.076 252.131 405.109V399.264C252.131 398.239 251.296 397.726 249.626 397.726C249.421 397.697 249.143 397.682 248.792 397.682C248.469 397.682 247.957 397.755 247.253 397.902C246.55 398.048 245.759 398.312 244.88 398.693C244.001 399.074 243.137 399.543 242.288 400.099C240.5 401.3 239.27 402.707 238.596 404.318C238.333 404.933 238.201 405.563 238.201 406.208ZM267.82 410.031C270.398 410.031 274.28 408.859 279.465 406.515C279.788 406.515 280.051 406.632 280.256 406.867C280.461 407.072 280.564 407.321 280.564 407.614C279.392 409.606 277.151 411.159 273.84 412.272C270.53 413.385 267.439 413.576 264.568 412.843C261.316 411.994 259.338 410.163 258.635 407.35C258.577 406.794 258.547 406.047 258.547 405.109C258.547 404.172 258.782 402.941 259.25 401.418C259.749 399.865 260.583 398.4 261.755 397.023C262.927 395.646 264.304 394.562 265.886 393.771C267.468 392.98 269.153 392.585 270.94 392.585C272.639 392.585 274.543 393.171 276.653 394.342C277.649 394.899 278.44 395.529 279.026 396.232C279.612 396.935 279.905 397.653 279.905 398.385C279.905 398.59 279.89 398.796 279.861 399.001C279.802 400.788 278.938 401.916 277.268 402.384C276.536 402.589 275.686 402.692 274.719 402.692L268.391 402.428C266.282 402.428 264.67 402.882 263.557 403.791C262.913 404.289 262.458 405.036 262.195 406.032C262.927 408.698 264.802 410.031 267.82 410.031ZM275.642 396.452C274.998 395.983 274.324 395.646 273.621 395.441C272.917 395.236 272.332 395.133 271.863 395.133C271.394 395.133 270.632 395.295 269.578 395.617C268.523 395.91 267.585 396.247 266.765 396.628C264.744 397.565 263.733 398.547 263.733 399.572C266.077 399.777 267.834 399.88 269.006 399.88C272.258 399.88 274.456 399.601 275.598 399.045C276.301 398.752 276.653 398.385 276.653 397.946C276.653 397.419 276.316 396.921 275.642 396.452ZM284.036 413.151C283.362 413.092 283.025 412.799 283.025 412.272C283.025 411.628 283.391 411.027 284.124 410.47C284.417 410.265 284.636 410.163 284.783 410.163C284.958 410.163 285.09 410.177 285.178 410.207C285.793 410.207 286.204 410.339 286.409 410.602C286.643 410.837 286.76 411.159 286.76 411.569C286.76 411.979 286.672 412.287 286.497 412.492C286.321 412.697 286.101 412.843 285.837 412.931C285.398 413.078 284.797 413.151 284.036 413.151ZM295.945 421.896C295.945 426.789 294.656 429.235 292.078 429.235C291.814 429.235 291.477 429.22 291.067 429.191C290.686 429.191 290.1 429.132 289.309 429.015C288.547 428.927 287.771 428.752 286.98 428.488C285.076 427.843 283.86 426.906 283.333 425.675C283.333 425.588 283.406 425.382 283.552 425.06C283.816 424.474 283.948 424.137 283.948 424.049C284.915 424.782 285.955 425.47 287.068 426.115C288.181 426.759 289.368 427.082 290.627 427.082C291.477 427.082 292.151 426.466 292.649 425.236C293.118 424.181 293.352 423.127 293.352 422.072C293.352 419.23 293.147 415.539 292.737 410.998C292.151 404.172 291.858 399.836 291.858 397.99C291.858 396.115 291.887 394.591 291.946 393.42C291.858 392.716 292.18 392.189 292.913 391.838C293.469 391.574 294.084 391.442 294.758 391.442C294.495 393.258 294.363 394.694 294.363 395.749C294.363 396.803 294.363 397.902 294.363 399.045C294.392 400.158 294.48 401.798 294.626 403.966C294.802 406.134 294.993 408.302 295.198 410.47C295.696 415.187 295.945 418.996 295.945 421.896ZM293.176 382.038C293.645 382.36 293.879 382.873 293.879 383.576C293.879 384.279 293.616 384.704 293.088 384.85C293.059 384.85 292.942 384.85 292.737 384.85C292.561 384.85 292.253 384.66 291.814 384.279C291.814 383.341 292.034 382.668 292.473 382.257C292.649 382.111 292.883 382.038 293.176 382.038ZM312.556 401.769C315.779 401.769 317.39 402.589 317.39 404.23C317.39 405.461 316.497 406.896 314.709 408.537C312.043 410.968 308.455 412.917 303.943 414.381C303.738 414.381 303.503 414.176 303.24 413.766C303.005 413.356 302.815 413.048 302.668 412.843C302.551 412.609 302.463 412.463 302.405 412.404C305.774 411.291 308.542 409.943 310.71 408.361C312.175 407.306 312.908 406.442 312.908 405.768C312.908 405.094 312.043 404.757 310.315 404.757C308.586 404.757 306.052 405.168 302.712 405.988C301.189 405.929 299.871 405.387 298.757 404.362C297.791 403.454 297.307 402.546 297.307 401.637C297.307 400.7 297.571 399.85 298.098 399.089C298.625 398.297 299.329 397.565 300.208 396.891C301.086 396.217 302.112 395.602 303.284 395.046C306.155 393.669 309.128 392.98 312.205 392.98C313.113 392.98 313.992 393.068 314.841 393.244C315.544 393.244 315.955 393.551 316.072 394.167C316.189 394.782 316.248 395.793 316.248 397.199C314.519 396.408 312.571 396.012 310.403 396.012C307.708 396.012 305.481 396.554 303.723 397.638C301.907 398.693 300.969 400.07 300.911 401.769C300.911 402.589 301.511 403 302.712 403L305.92 402.648C308.674 402.062 310.886 401.769 312.556 401.769Z" fill="#FC3F96"/>
<defs>
<linearGradient id="paint0_linear_63_192" x1="297.411" y1="112.543" x2="190.774" y2="328.731" gradientUnits="userSpaceOnUse">
<stop stop-color="#3F873F"/>
<stop offset="0.33" stop-color="#3F8B3D"/>
<stop offset="0.637" stop-color="#3E9638"/>
<stop offset="0.934" stop-color="#3DA92E"/>
<stop offset="1" stop-color="#3DAE2B"/>
</linearGradient>
<linearGradient id="paint1_linear_63_192" x1="232.119" y1="225.964" x2="529.647" y2="7.48564" gradientUnits="userSpaceOnUse">
<stop offset="0.138" stop-color="#3F873F"/>
<stop offset="0.402" stop-color="#52A044"/>
<stop offset="0.713" stop-color="#64B749"/>
<stop offset="0.908" stop-color="#6ABF4B"/>
</linearGradient>
<linearGradient id="paint2_linear_63_192" x1="114.812" y1="210.047" x2="385" y2="210.047" gradientUnits="userSpaceOnUse">
<stop offset="0.092" stop-color="#6ABF4B"/>
<stop offset="0.287" stop-color="#64B749"/>
<stop offset="0.598" stop-color="#52A044"/>
<stop offset="0.862" stop-color="#3F873F"/>
</linearGradient>
<clipPath id="clip0_63_192">
<rect width="300" height="300" fill="white" transform="translate(100 60.1071)"/>
</clipPath>
</defs>
</svg>
