<svg width="500" height="500" viewBox="0 0 500 500" fill="none" xmlns="http://www.w3.org/2000/svg">
<g clip-path="url(#clip0_63_180)">
<circle cx="250" cy="250" r="250" fill="#675E7D"/>
<path d="M250 233.301C262.944 233.301 273.438 222.807 273.438 209.863C273.438 196.919 262.944 186.426 250 186.426C237.056 186.426 226.562 196.919 226.562 209.863C226.562 222.807 237.056 233.301 250 233.301Z" fill="#00D8FF"/>
<path d="M250 263.601C221.829 264.282 193.729 260.485 166.75 252.351C154.287 248.4 142.663 242.176 132.466 233.995C128.574 231.199 125.334 227.596 122.966 223.43C120.599 219.265 119.161 214.637 118.75 209.863C118.75 194.366 135.775 179.179 164.294 169.241C191.994 160.436 220.937 156.168 250 156.604C278.675 156.203 307.23 160.394 334.581 169.016C346.584 172.843 357.814 178.766 367.75 186.51C371.575 189.175 374.767 192.648 377.1 196.684C379.433 200.72 380.85 205.219 381.25 209.863C381.25 225.969 362.219 242.291 331.562 252.435C305.106 260.304 277.598 264.07 250 263.601ZM250 167.816C222.195 167.445 194.508 171.502 167.978 179.835C141.728 188.995 129.963 201.519 129.963 209.835C129.963 218.535 142.609 232.213 170.378 241.71C196.188 249.453 223.062 253.057 250 252.388C276.404 252.86 302.724 249.288 328.047 241.794C356.875 232.241 370 218.544 370 209.863C369.527 206.884 368.441 204.035 366.812 201.497C365.182 198.959 363.043 196.786 360.531 195.116C351.641 188.246 341.61 182.997 330.897 179.61C304.732 171.395 277.422 167.414 250 167.816Z" fill="#00D8FF"/>
<path d="M196.75 326.76C192.377 326.861 188.055 325.8 184.225 323.685C170.8 315.941 166.15 293.61 171.784 263.938C177.997 235.542 188.761 208.338 203.659 183.379C217.635 158.339 235.527 135.697 256.656 116.31C265.967 107.823 276.708 101.053 288.381 96.3134C292.603 94.3347 297.209 93.309 301.872 93.309C306.535 93.309 311.14 94.3347 315.363 96.3134C329.322 104.357 333.944 128.995 327.428 160.616C321.024 187.472 310.54 213.186 296.341 236.863C282.857 261.607 265.528 284.053 245.003 303.36C235.354 312.18 224.156 319.138 211.975 323.882C207.098 325.692 201.951 326.665 196.75 326.76ZM213.372 188.948C199.16 212.848 188.844 238.857 182.809 266.001C177.625 293.329 182.603 309.763 189.841 313.945C197.341 318.285 215.547 314.17 237.653 294.857C257.247 276.36 273.787 254.875 286.656 231.201C300.259 208.565 310.316 183.98 316.478 158.301C322.609 128.535 317.313 110.31 309.794 105.979C306.976 104.899 303.964 104.416 300.95 104.56C297.936 104.703 294.984 105.471 292.281 106.813C281.891 111.101 272.338 117.188 264.063 124.795C243.875 143.364 226.785 165.041 213.438 189.004L213.372 188.948Z" fill="#00D8FF"/>
<path d="M303.222 326.882C290.519 326.882 274.384 319.195 257.584 304.748C236.085 285.185 217.89 262.273 203.706 236.901C188.994 212.285 178.316 185.475 172.075 157.485C169.369 145.171 168.867 132.475 170.594 119.985C170.993 115.352 172.404 110.863 174.727 106.835C177.049 102.806 180.228 99.3362 184.038 96.6696C197.978 88.5977 221.631 96.8946 245.772 118.326C265.84 137.284 282.882 159.207 296.303 183.332C311.006 207.373 321.797 233.596 328.272 261.023C331.095 273.789 331.53 286.967 329.556 299.891C329.087 304.658 327.592 309.266 325.174 313.401C322.757 317.535 319.474 321.098 315.55 323.845C311.783 325.933 307.528 326.981 303.222 326.882ZM213.409 231.257C227.017 255.505 244.397 277.432 264.897 296.216C285.981 314.357 302.706 318.257 309.897 314.029C317.397 309.67 322.928 291.876 317.228 263.085C310.983 236.9 300.633 211.869 286.563 188.92C273.755 165.83 257.488 144.837 238.328 126.67C215.603 106.495 197.172 101.985 189.663 106.335C187.322 108.237 185.401 110.604 184.022 113.286C182.642 115.968 181.833 118.906 181.647 121.916C180.156 133.055 180.642 144.369 183.081 155.338C189.084 182.105 199.326 207.741 213.419 231.276L213.409 231.257Z" fill="#00D8FF"/>
<path d="M165.823 387.004C167.434 385.451 170.349 384.674 174.568 384.674C177.205 384.674 179.417 384.938 181.204 385.465C182.991 385.993 184.324 386.549 185.203 387.135C186.111 387.721 186.565 388.366 186.565 389.069C186.565 390.68 184.69 392.277 180.94 393.859C180.383 394.123 178.918 394.665 176.545 395.485C174.202 396.276 172.62 396.818 171.799 397.111C170.012 397.785 168.826 398.312 168.24 398.693C168.24 398.839 168.298 398.971 168.416 399.089C168.533 399.176 168.811 399.352 169.25 399.616C169.69 399.85 170.349 400.202 171.228 400.671C172.107 401.11 173.323 401.755 174.875 402.604C179.504 405.124 184.265 407.819 189.158 410.69C189.392 410.866 189.7 411.115 190.081 411.437C190.461 411.73 190.652 412.067 190.652 412.448C190.652 412.799 190.535 413.048 190.3 413.195C190.066 413.341 189.788 413.444 189.465 413.503C189.143 413.59 188.806 413.634 188.455 413.634H187.576C186.99 413.634 185.759 413.005 183.884 411.745C182.039 410.485 180.427 409.386 179.05 408.449C177.703 407.511 176.326 406.603 174.919 405.724C171.609 403.586 168.987 402.194 167.053 401.549V411.613C167.053 412.199 166.555 412.492 165.559 412.492H165.076C164.46 412.492 164.006 412.184 163.713 411.569C163.303 410.631 163.098 408.903 163.098 406.383L163.23 397.55C163.23 393.214 163.04 389.406 162.659 386.125C163.362 384.923 164.226 384.967 165.251 386.256C165.486 386.549 165.676 386.798 165.823 387.004ZM180.676 387.531L177.82 387.487C171.199 387.487 167.39 388.249 166.394 389.772C166.101 390.182 165.955 390.71 165.955 391.354C165.955 391.969 165.984 392.511 166.042 392.98C166.189 394.181 166.526 395.046 167.053 395.573C167.141 395.602 167.288 395.617 167.493 395.617C167.727 395.617 168.137 395.558 168.723 395.441C169.338 395.324 170.144 395.119 171.14 394.826C172.166 394.504 173.25 394.123 174.392 393.683C175.535 393.244 176.633 392.79 177.688 392.321C180.999 390.827 182.654 389.611 182.654 388.673C182.654 388.146 181.995 387.765 180.676 387.531ZM202.869 410.031C205.447 410.031 209.329 408.859 214.514 406.515C214.836 406.515 215.1 406.632 215.305 406.867C215.51 407.072 215.613 407.321 215.613 407.614C214.441 409.606 212.2 411.159 208.889 412.272C205.579 413.385 202.488 413.576 199.617 412.843C196.365 411.994 194.387 410.163 193.684 407.35C193.625 406.794 193.596 406.047 193.596 405.109C193.596 404.172 193.831 402.941 194.299 401.418C194.797 399.865 195.632 398.4 196.804 397.023C197.976 395.646 199.353 394.562 200.935 393.771C202.517 392.98 204.202 392.585 205.989 392.585C207.688 392.585 209.592 393.171 211.702 394.342C212.698 394.899 213.489 395.529 214.075 396.232C214.661 396.935 214.954 397.653 214.954 398.385C214.954 398.59 214.939 398.796 214.91 399.001C214.851 400.788 213.987 401.916 212.317 402.384C211.584 402.589 210.735 402.692 209.768 402.692L203.44 402.428C201.331 402.428 199.719 402.882 198.606 403.791C197.961 404.289 197.507 405.036 197.244 406.032C197.976 408.698 199.851 410.031 202.869 410.031ZM210.691 396.452C210.046 395.983 209.373 395.646 208.669 395.441C207.966 395.236 207.38 395.133 206.912 395.133C206.443 395.133 205.681 395.295 204.626 395.617C203.572 395.91 202.634 396.247 201.814 396.628C199.792 397.565 198.782 398.547 198.782 399.572C201.125 399.777 202.883 399.88 204.055 399.88C207.307 399.88 209.504 399.601 210.647 399.045C211.35 398.752 211.702 398.385 211.702 397.946C211.702 397.419 211.365 396.921 210.691 396.452ZM235.52 405.812C233.323 409.269 230.393 411.408 226.731 412.228C225.881 412.404 225.105 412.492 224.402 412.492C223.728 412.492 223.157 412.492 222.688 412.492C222.249 412.463 221.75 412.389 221.194 412.272C220.637 412.155 220.125 411.964 219.656 411.701C218.572 411.086 218.03 410.221 218.03 409.108C217.913 408.581 217.854 407.995 217.854 407.35C217.854 406.676 218 405.797 218.293 404.714C218.586 403.63 219.114 402.458 219.875 401.198C220.667 399.938 221.619 398.781 222.732 397.726C225.046 395.5 227.551 394.064 230.247 393.42C231.038 393.244 231.755 393.156 232.4 393.156C233.074 393.156 233.674 393.2 234.202 393.288C235.901 393.288 237.043 394.445 237.629 396.759C238.01 398.224 238.23 400.275 238.289 402.912C238.376 405.519 238.45 407.541 238.508 408.976C238.596 410.382 238.787 411.672 239.08 412.843H236.487C236.37 412.052 236.282 411.349 236.223 410.734C236.165 410.119 236.106 409.547 236.047 409.02C235.901 407.79 235.725 406.72 235.52 405.812ZM235.344 399.001C235.344 397.301 234.509 396.452 232.839 396.452C232.634 396.422 232.429 396.408 232.224 396.408C230.085 396.408 227.83 397.433 225.457 399.484C224.343 400.422 223.391 401.476 222.6 402.648C221.428 404.318 220.842 405.812 220.842 407.13C220.842 408.859 221.838 409.884 223.831 410.207C226.467 410.148 228.987 408.947 231.389 406.603C232.415 405.578 233.264 404.464 233.938 403.263C234.875 401.652 235.344 400.231 235.344 399.001ZM258.899 408.493C260.1 407.995 261.272 407.541 262.415 407.13C263.557 406.72 264.641 406.515 265.667 406.515C266.721 406.515 267.249 406.838 267.249 407.482C267.249 407.629 267.205 407.863 267.117 408.185C267.058 408.478 266.663 408.844 265.93 409.284C265.227 409.694 264.348 410.089 263.293 410.47C262.268 410.851 261.14 411.203 259.91 411.525C258.679 411.847 257.478 412.126 256.306 412.36C253.875 412.858 252.146 413.107 251.121 413.107C250.095 413.107 248.982 412.99 247.781 412.755C246.609 412.521 245.51 412.14 244.485 411.613C242.112 410.382 240.925 408.566 240.925 406.164C240.925 405.988 240.925 405.636 240.925 405.109C240.925 404.582 241.145 403.835 241.584 402.868C242.024 401.872 242.683 400.89 243.562 399.923C244.441 398.927 245.466 398.019 246.638 397.199C249.099 395.441 251.677 394.298 254.373 393.771C255.31 393.566 256.086 393.464 256.702 393.464C257.346 393.464 257.874 393.478 258.284 393.507C258.694 393.507 259.119 393.537 259.558 393.595C259.998 393.625 260.378 393.727 260.701 393.903C261.462 394.284 261.843 395.031 261.843 396.144C261.843 396.847 261.345 397.536 260.349 398.21C260.085 398.385 259.851 398.547 259.646 398.693C259.5 398.019 259.309 397.448 259.075 396.979C258.84 396.51 258.328 396.276 257.537 396.276C254.08 397.008 251.106 398.107 248.616 399.572C245.803 401.242 244.397 403 244.397 404.845C244.397 405.05 244.412 405.27 244.441 405.505C244.441 407.38 245.159 408.713 246.594 409.504C247.678 410.089 249.07 410.382 250.769 410.382C252.498 410.382 253.992 410.192 255.251 409.811C256.511 409.401 257.727 408.962 258.899 408.493ZM276.257 408.888L276.345 401.857C276.345 400.744 276.243 399.792 276.038 399.001H269.226L269.138 395.968H275.73V384.63C275.818 384.367 275.994 384.103 276.257 383.839C276.667 383.429 277.004 383.224 277.268 383.224C277.561 383.224 277.81 383.254 278.015 383.312C278.22 383.371 278.44 383.576 278.674 383.927C279.143 385.861 279.377 388.776 279.377 392.672C279.377 393.639 279.421 394.591 279.509 395.529C280.447 395.412 281.384 395.353 282.322 395.353C282.322 395.353 283.083 395.353 284.607 395.353C285.164 395.353 285.676 395.324 286.145 395.265L286.013 398.429L279.597 398.254L279.817 413.415C279.29 413.649 278.835 413.766 278.455 413.766C276.99 413.766 276.257 412.14 276.257 408.888ZM305.481 398.737L305.349 390.431C305.349 389.113 305.378 387.956 305.437 386.96C305.525 385.934 305.745 385.422 306.096 385.422H309.041C309.041 385.89 309.084 386.798 309.172 388.146C309.26 389.494 309.319 390.856 309.348 392.233C309.377 393.581 309.392 394.738 309.392 395.705C309.392 396.672 309.377 397.931 309.348 399.484C309.319 401.007 309.172 402.692 308.909 404.538C308.293 408.786 307.122 411.408 305.393 412.404C304.075 413.136 301.98 413.312 299.109 412.931C296.208 412.521 293.66 411.672 291.462 410.382C288.884 408.888 287.405 407.13 287.024 405.109C287.024 404.435 287.244 403.849 287.683 403.351C288.474 402.414 289.192 401.945 289.836 401.945C289.866 403.615 290.32 404.992 291.199 406.076C293.25 408.537 296.545 409.767 301.086 409.767C301.848 409.767 302.595 409.723 303.328 409.635C304.763 408.874 305.481 405.241 305.481 398.737ZM311.106 409.284C311.106 408.727 311.326 408.244 311.765 407.834C312.234 407.394 312.585 407.101 312.82 406.955C313.083 406.779 313.259 406.647 313.347 406.559C313.494 409.225 315.295 410.558 318.752 410.558C321.477 410.558 324.656 409.709 328.289 408.009C330.867 406.838 332.595 405.636 333.474 404.406C333.767 404.025 333.914 403.717 333.914 403.483C333.914 403.219 333.87 403.014 333.782 402.868L315.544 398.781C315.017 398.664 314.504 398.415 314.006 398.034C313.098 397.389 312.644 396.803 312.644 396.276C312.644 394.255 314.08 392.423 316.951 390.783C320.115 388.996 324.348 387.648 329.651 386.74C330.852 386.535 331.746 386.418 332.332 386.388C332.507 386.447 332.771 386.505 333.123 386.564C333.503 386.593 333.884 386.652 334.265 386.74C335.173 386.945 335.554 387.326 335.408 387.882C335.408 388.879 333.503 389.67 329.695 390.255C324.773 390.988 321.697 391.603 320.466 392.101C319.265 392.599 318.386 393.112 317.83 393.639C317.302 394.167 317.024 394.797 316.995 395.529C316.995 395.675 317.332 395.837 318.005 396.012C318.679 396.188 319.485 396.408 320.422 396.672C321.36 396.906 322.576 397.228 324.07 397.638C327.703 398.634 332.156 399.894 337.429 401.418C337.722 402.062 337.869 402.663 337.869 403.219C337.869 404.772 336.96 406.266 335.144 407.702C333.093 409.313 330.251 410.675 326.619 411.789C323.601 412.697 321.199 413.151 319.412 413.151C317.917 413.151 316.497 412.887 315.149 412.36C313.801 411.833 312.791 411.32 312.117 410.822C311.443 410.324 311.106 409.811 311.106 409.284Z" fill="#FC3F96"/>
</g>
<defs>
<clipPath id="clip0_63_180">
<rect width="500" height="500" fill="white"/>
</clipPath>
</defs>
</svg>
