<svg width="500" height="500" viewBox="0 0 500 500" fill="none" xmlns="http://www.w3.org/2000/svg">
<circle cx="250" cy="250" r="250" fill="#675E7D"/>
<path d="M180.269 203.132C202.656 211.001 226.274 214.789 250 214.316C273.726 214.786 297.344 210.995 319.731 203.123C337.206 196.307 343.403 188.732 343.403 184.373V151.044C337.294 155.136 330.739 158.52 323.866 161.132C300.179 169.614 275.156 173.749 250 173.338C224.846 173.741 199.825 169.613 176.134 161.151C169.258 158.539 162.702 155.148 156.597 151.044V184.326C156.597 188.769 162.812 196.307 180.269 203.132ZM180.269 265.991C188.178 269.007 196.333 271.332 204.644 272.938C219.588 275.829 234.779 277.252 250 277.185C265.221 277.255 280.412 275.835 295.356 272.948C303.667 271.341 311.822 269.017 319.731 266.001C337.206 259.185 343.403 251.61 343.403 247.251V215.469C338.353 218.508 333.045 221.096 327.541 223.204C302.657 232.014 276.393 236.279 250 235.794C223.605 236.264 197.34 231.983 172.459 223.157C166.957 221.044 161.65 218.456 156.597 215.423V247.232C156.597 251.601 162.812 259.148 180.269 265.991ZM250 341.357C301.562 341.357 343.403 325.007 343.403 304.851V278.254C338.809 281.023 333.996 283.412 329.012 285.398L327.541 285.988C302.662 294.825 276.397 299.115 250 298.654C223.602 299.128 197.335 294.837 172.459 285.988C171.953 285.801 171.466 285.585 170.987 285.398C166.004 283.412 161.191 281.023 156.597 278.254V304.851C156.597 325.007 198.437 341.357 250 341.357Z" fill="#FFDA44"/>
<path d="M250 151.869C301.585 151.869 343.403 135.525 343.403 115.363C343.403 95.2013 301.585 78.8569 250 78.8569C198.415 78.8569 156.597 95.2013 156.597 115.363C156.597 135.525 198.415 151.869 250 151.869Z" fill="#FFDA44"/>
<path d="M204.583 409.284C204.583 408.727 204.802 408.244 205.242 407.833C205.71 407.394 206.062 407.101 206.296 406.955C206.56 406.779 206.736 406.647 206.824 406.559C206.97 409.225 208.772 410.558 212.229 410.558C214.954 410.558 218.132 409.708 221.765 408.009C224.343 406.837 226.072 405.636 226.951 404.406C227.244 404.025 227.39 403.717 227.39 403.483C227.39 403.219 227.346 403.014 227.258 402.868L209.021 398.781C208.494 398.664 207.981 398.415 207.483 398.034C206.575 397.389 206.121 396.803 206.121 396.276C206.121 394.254 207.556 392.423 210.427 390.783C213.591 388.996 217.825 387.648 223.127 386.74C224.329 386.535 225.222 386.417 225.808 386.388C225.984 386.447 226.248 386.505 226.599 386.564C226.98 386.593 227.361 386.652 227.742 386.74C228.65 386.945 229.031 387.326 228.884 387.882C228.884 388.878 226.98 389.669 223.171 390.255C218.25 390.988 215.173 391.603 213.943 392.101C212.742 392.599 211.863 393.112 211.306 393.639C210.779 394.167 210.5 394.796 210.471 395.529C210.471 395.675 210.808 395.836 211.482 396.012C212.156 396.188 212.961 396.408 213.899 396.671C214.836 396.906 216.052 397.228 217.546 397.638C221.179 398.634 225.632 399.894 230.906 401.417C231.199 402.062 231.345 402.663 231.345 403.219C231.345 404.772 230.437 406.266 228.621 407.702C226.57 409.313 223.728 410.675 220.095 411.789C217.078 412.697 214.675 413.151 212.888 413.151C211.394 413.151 209.973 412.887 208.625 412.36C207.278 411.833 206.267 411.32 205.593 410.822C204.919 410.324 204.583 409.811 204.583 409.284ZM234.026 402.384C234.026 400.509 234.348 398.517 234.993 396.408C235.637 394.269 236.589 392.379 237.849 390.739C239.109 389.098 240.662 387.78 242.507 386.784C244.353 385.788 246.477 385.29 248.879 385.29C249.231 385.26 249.583 385.246 249.934 385.246C253.743 385.246 256.731 386.388 258.899 388.673C260.862 390.753 261.843 393.493 261.843 396.891C261.843 400.231 260.847 403.322 258.855 406.164C258.826 406.31 258.811 406.544 258.811 406.867C258.811 407.16 259.016 407.467 259.426 407.79C259.866 408.112 260.393 408.405 261.008 408.668C261.653 408.932 262.195 409.21 262.634 409.503C263.074 409.796 263.293 410.075 263.293 410.338C263.293 410.573 263.279 410.763 263.25 410.91C262.927 411.144 262.488 411.334 261.931 411.481C261.375 411.598 260.994 411.642 260.789 411.613C260.613 411.554 260.364 411.422 260.042 411.217C259.719 410.983 259.412 410.734 259.119 410.47C258.328 409.855 257.639 409.503 257.053 409.416C255.94 410.47 254.226 411.378 251.912 412.14C246.052 413.986 241.277 413.356 237.585 410.25C235.212 408.229 234.026 405.607 234.026 402.384ZM247.473 410.25C249.231 410.25 250.476 410.177 251.208 410.031C252.791 409.708 253.889 409.035 254.504 408.009L246.462 400.714C246.433 400.685 246.418 400.641 246.418 400.583V400.363C246.418 399.835 246.624 399.513 247.034 399.396C247.444 399.25 247.942 399.176 248.528 399.176C249.143 399.176 249.802 399.411 250.505 399.879C251.238 400.348 251.941 400.905 252.615 401.549C253.289 402.165 253.948 402.809 254.592 403.483C255.266 404.157 255.955 404.699 256.658 405.109C258.152 402.824 258.914 400.333 258.943 397.638C258.972 396.818 258.987 395.895 258.987 394.87C258.84 393.815 258.591 392.863 258.24 392.013C257.537 390.226 255.764 389.054 252.922 388.498C251.545 388.205 250.242 388.058 249.011 388.058C247.781 388.058 247.048 388.058 246.814 388.058C244.998 388.058 243.328 388.908 241.804 390.607C240.603 391.984 239.578 393.888 238.728 396.32C237.996 398.283 237.629 400.099 237.629 401.769C237.629 404.816 238.494 406.999 240.222 408.317C241.951 409.606 244.368 410.25 247.473 410.25ZM268.435 393.903L268.347 382.96L271.863 383.092L271.467 408.844L294.626 409.503C295.095 409.65 295.33 409.899 295.33 410.25C295.33 410.602 295.11 410.968 294.67 411.349C293.821 412.111 292.854 412.492 291.77 412.492C291.506 412.492 291.228 412.462 290.935 412.404L267.336 412.184C268.069 409.459 268.435 403.366 268.435 393.903Z" fill="#FC3F96"/>
</svg>
