<svg width="500" height="500" viewBox="0 0 500 500" fill="none" xmlns="http://www.w3.org/2000/svg">
<circle cx="250" cy="250" r="250" fill="#675E7D"/>
<g clip-path="url(#clip0_70_508)">
<path d="M329.688 60.1069H170.312C131.48 60.1069 100 91.5869 100 130.419V289.794C100 328.627 131.48 360.107 170.312 360.107H329.688C368.52 360.107 400 328.627 400 289.794V130.419C400 91.5869 368.52 60.1069 329.688 60.1069Z" fill="#F4F2ED"/>
<path d="M250 99.9507L361.328 293.138H138.672L250 99.9507Z" fill="black"/>
</g>
<path d="M192.827 412.404C192.036 410.294 190.571 407.16 188.433 403C186.294 398.81 184.873 396.027 184.17 394.65C182.617 391.457 181.841 389.582 181.841 389.025C181.841 388.644 182.588 388.161 184.082 387.575C185.107 389.479 186.06 391.383 186.938 393.288C187.847 395.163 188.74 396.935 189.619 398.605C191.699 402.677 193.398 405.49 194.717 407.042C195.186 406.574 196.24 404.582 197.881 401.066L201.484 393.463C203.418 389.362 204.663 386.681 205.22 385.421C206.245 384.191 207.109 383.576 207.812 383.576C208.516 383.576 208.867 384.191 208.867 385.421L196.387 412.799C195.889 413.122 195.244 413.283 194.453 413.283C193.691 413.283 193.149 412.99 192.827 412.404ZM219.722 410.031C222.3 410.031 226.182 408.859 231.367 406.515C231.689 406.515 231.953 406.632 232.158 406.867C232.363 407.072 232.466 407.321 232.466 407.614C231.294 409.606 229.053 411.159 225.742 412.272C222.432 413.385 219.341 413.576 216.47 412.843C213.218 411.994 211.24 410.163 210.537 407.35C210.479 406.793 210.449 406.046 210.449 405.109C210.449 404.171 210.684 402.941 211.152 401.417C211.65 399.865 212.485 398.4 213.657 397.023C214.829 395.646 216.206 394.562 217.788 393.771C219.37 392.98 221.055 392.584 222.842 392.584C224.541 392.584 226.445 393.17 228.555 394.342C229.551 394.899 230.342 395.529 230.928 396.232C231.514 396.935 231.807 397.653 231.807 398.385C231.807 398.59 231.792 398.795 231.763 399C231.704 400.788 230.84 401.916 229.17 402.384C228.438 402.589 227.588 402.692 226.621 402.692L220.293 402.428C218.184 402.428 216.572 402.882 215.459 403.791C214.814 404.289 214.36 405.036 214.097 406.032C214.829 408.698 216.704 410.031 219.722 410.031ZM227.544 396.452C226.899 395.983 226.226 395.646 225.522 395.441C224.819 395.236 224.233 395.133 223.765 395.133C223.296 395.133 222.534 395.294 221.479 395.617C220.425 395.91 219.487 396.247 218.667 396.627C216.646 397.565 215.635 398.546 215.635 399.572C217.979 399.777 219.736 399.879 220.908 399.879C224.16 399.879 226.357 399.601 227.5 399.044C228.203 398.751 228.555 398.385 228.555 397.946C228.555 397.418 228.218 396.92 227.544 396.452ZM256.68 397.067C255.449 396.188 253.867 395.749 251.934 395.749C250.117 395.749 248.433 396.085 246.88 396.759C243.95 397.99 241.943 399.572 240.859 401.505C240.391 402.384 240.156 403.322 240.156 404.318C240.156 404.494 240.156 404.992 240.156 405.812C240.156 406.603 240.303 407.687 240.596 409.064C240.889 410.412 241.035 411.789 241.035 413.195C240.42 413.224 239.922 413.297 239.541 413.415C239.16 413.532 238.838 413.59 238.574 413.59C238.311 413.59 238.076 413.473 237.871 413.239C237.695 413.004 237.49 412.55 237.256 411.876C237.227 411.701 237.168 411.203 237.08 410.382C236.992 409.562 236.875 408.566 236.729 407.394C236.611 406.222 236.465 404.948 236.289 403.571C236.143 402.165 235.996 400.788 235.85 399.44C235.527 396.51 235.278 394.357 235.103 392.98C235.103 392.277 235.615 391.925 236.641 391.925C237.256 391.925 237.739 392.189 238.091 392.716C238.442 393.214 238.721 393.8 238.926 394.474C239.131 395.119 239.263 395.763 239.321 396.408C239.409 397.052 239.482 397.506 239.541 397.77C243.408 394.313 248.213 392.584 253.955 392.584C254.6 392.584 255.273 392.599 255.977 392.628C256.152 392.599 256.372 392.584 256.636 392.584C256.899 392.584 257.163 392.76 257.427 393.112C257.749 393.522 257.91 394.02 257.91 394.606C257.91 396.071 257.5 396.891 256.68 397.067ZM277.686 408.493C278.887 407.995 280.059 407.541 281.201 407.13C282.344 406.72 283.428 406.515 284.453 406.515C285.508 406.515 286.035 406.837 286.035 407.482C286.035 407.628 285.991 407.863 285.903 408.185C285.845 408.478 285.449 408.844 284.717 409.284C284.014 409.694 283.135 410.089 282.08 410.47C281.055 410.851 279.927 411.203 278.696 411.525C277.466 411.847 276.265 412.125 275.093 412.36C272.661 412.858 270.933 413.107 269.907 413.107C268.882 413.107 267.769 412.99 266.567 412.755C265.396 412.521 264.297 412.14 263.271 411.613C260.898 410.382 259.712 408.566 259.712 406.164C259.712 405.988 259.712 405.636 259.712 405.109C259.712 404.582 259.932 403.834 260.371 402.868C260.811 401.872 261.47 400.89 262.349 399.923C263.228 398.927 264.253 398.019 265.425 397.199C267.886 395.441 270.464 394.298 273.159 393.771C274.097 393.566 274.873 393.463 275.488 393.463C276.133 393.463 276.66 393.478 277.07 393.507C277.48 393.507 277.905 393.537 278.345 393.595C278.784 393.625 279.165 393.727 279.487 393.903C280.249 394.284 280.63 395.031 280.63 396.144C280.63 396.847 280.132 397.536 279.136 398.209C278.872 398.385 278.638 398.546 278.433 398.693C278.286 398.019 278.096 397.448 277.861 396.979C277.627 396.51 277.114 396.276 276.323 396.276C272.866 397.008 269.893 398.107 267.402 399.572C264.59 401.242 263.184 403 263.184 404.845C263.184 405.05 263.198 405.27 263.228 405.504C263.228 407.379 263.945 408.712 265.381 409.503C266.465 410.089 267.856 410.382 269.556 410.382C271.284 410.382 272.778 410.192 274.038 409.811C275.298 409.401 276.514 408.961 277.686 408.493ZM297.373 410.031C299.951 410.031 303.833 408.859 309.019 406.515C309.341 406.515 309.604 406.632 309.81 406.867C310.015 407.072 310.117 407.321 310.117 407.614C308.945 409.606 306.704 411.159 303.394 412.272C300.083 413.385 296.992 413.576 294.121 412.843C290.869 411.994 288.892 410.163 288.188 407.35C288.13 406.793 288.101 406.046 288.101 405.109C288.101 404.171 288.335 402.941 288.804 401.417C289.302 399.865 290.137 398.4 291.309 397.023C292.48 395.646 293.857 394.562 295.439 393.771C297.021 392.98 298.706 392.584 300.493 392.584C302.192 392.584 304.097 393.17 306.206 394.342C307.202 394.899 307.993 395.529 308.579 396.232C309.165 396.935 309.458 397.653 309.458 398.385C309.458 398.59 309.443 398.795 309.414 399C309.355 400.788 308.491 401.916 306.821 402.384C306.089 402.589 305.239 402.692 304.272 402.692L297.944 402.428C295.835 402.428 294.224 402.882 293.11 403.791C292.466 404.289 292.012 405.036 291.748 406.032C292.48 408.698 294.355 410.031 297.373 410.031ZM305.195 396.452C304.551 395.983 303.877 395.646 303.174 395.441C302.471 395.236 301.885 395.133 301.416 395.133C300.947 395.133 300.186 395.294 299.131 395.617C298.076 395.91 297.139 396.247 296.318 396.627C294.297 397.565 293.286 398.546 293.286 399.572C295.63 399.777 297.388 399.879 298.56 399.879C301.812 399.879 304.009 399.601 305.151 399.044C305.854 398.751 306.206 398.385 306.206 397.946C306.206 397.418 305.869 396.92 305.195 396.452ZM313.545 396.056C313.486 394.474 313.428 393.068 313.369 391.837C313.311 390.578 313.267 389.655 313.237 389.069C313.237 388.454 313.003 386.974 312.534 384.63C312.798 384.279 313.047 383.942 313.281 383.62C313.545 383.297 313.911 383.136 314.38 383.136C315.405 383.136 316.196 387.458 316.753 396.1C317.046 401.11 317.192 406.12 317.192 411.129C317.192 412.477 316.255 413.151 314.38 413.151L314.028 413.107C314.028 411.583 313.984 409.635 313.896 407.262C313.809 404.889 313.735 402.824 313.677 401.066C313.647 399.308 313.604 397.638 313.545 396.056Z" fill="#FC3F96"/>
<defs>
<clipPath id="clip0_70_508">
<rect width="300" height="300" fill="white" transform="translate(100 60.1069)"/>
</clipPath>
</defs>
</svg>
